<svg xmlns="http://www.w3.org/2000/svg" xmlns:xlink="http://www.w3.org/1999/xlink" version="1.1" id="Layer_1" x="0px" y="0px" width="100px" height="70.7491082045px" viewBox="0 0 841.89 595.28" enable-background="new 0 0 841.89 595.28" xml:space="preserve">
<path d="M594.368,278.534c-3.917-32.088-32.922-57.021-68.15-57.021c-4.586,0-9.063,0.441-13.398,1.248  c-13.542-37.263-51.075-64.104-95.355-64.104c-45.964,0-84.668,28.908-96.797,68.389c-5.904-0.931-11.926-1.528-18.11-1.528  c-60.094,0-108.821,45.732-108.821,102.143c0,56.413,48.728,102.146,108.821,102.146c22.862,0,44.053-6.648,61.566-17.952  c12.577,13.272,30.848,21.682,51.256,21.682c21.767,0,41.137-9.546,53.712-24.387c11.117,7.271,24.604,11.565,39.177,11.565  c18.729,0,35.688-7.061,48.069-18.476c6.495,1.911,13.401,2.949,20.563,2.949c37.901,0,68.639-28.843,68.639-64.421  C645.539,310.866,623.797,285.797,594.368,278.534z"/>
</svg>