<svg xmlns="http://www.w3.org/2000/svg" xmlns:xlink="http://www.w3.org/1999/xlink" version="1.1" x="0px" y="0px" width="100px" height="100px" viewBox="0 0 100 100" enable-background="new 0 0 100 100" xml:space="preserve">
<g id="Captions">
</g>
<g id="Your_Icon">
	<path d="M88.361,53.688c-0.021,0-0.043,0.004-0.067,0.004c0.014-0.221,0.067-0.432,0.067-0.658c0-7.117-5.769-12.884-12.885-12.884   c-3.419,0-6.508,1.354-8.814,3.528c0.003-0.121,0.019-0.24,0.019-0.361c0-11.801-9.569-21.372-21.375-21.372   c-11.804,0-21.375,9.571-21.375,21.372c0,0.505,0.04,1.001,0.075,1.497c-2.169-1.017-4.581-1.6-7.133-1.6   C7.554,43.213,0,51.292,0,60.61S7.554,78,16.873,78h71.488C94.788,78,100,72.271,100,65.845   C100,59.417,94.788,53.688,88.361,53.688z"/>
</g>
</svg>