<?xml version="1.0" encoding="utf-8"?>
<!-- Generator: Adobe Illustrator 15.0.2, SVG Export Plug-In . SVG Version: 6.00 Build 0)  -->
<!DOCTYPE svg PUBLIC "-//W3C//DTD SVG 1.1//EN" "http://www.w3.org/Graphics/SVG/1.1/DTD/svg11.dtd">
<svg version="1.1" id="Layer_1" xmlns="http://www.w3.org/2000/svg" xmlns:xlink="http://www.w3.org/1999/xlink" x="0px" y="0px"
	 width="1008px" height="648px" viewBox="0 0 1008 648" enable-background="new 0 0 1008 648" xml:space="preserve">
<g id="Layer_1_1_">
	<g id="Sky">
		
			<linearGradient id="Sky_2_" gradientUnits="userSpaceOnUse" x1="180" y1="760.6807" x2="180" y2="322.5504" gradientTransform="matrix(1 0 0 -1 324 704)">
			<stop  offset="0" style="stop-color:#89C8D8"/>
			<stop  offset="0.1436" style="stop-color:#93CCDB"/>
			<stop  offset="0.4091" style="stop-color:#ADD8E3"/>
			<stop  offset="0.7644" style="stop-color:#DAEDF1"/>
			<stop  offset="1" style="stop-color:#FFFFFF"/>
		</linearGradient>
		<rect id="Sky_1_" fill="url(#Sky_2_)" width="1008" height="648"/>
	</g>
	<g id="Sun">
		<g>
			<path id="Sun_Outside" fill="#E4AF33" d="M555.674,313.266c-24.797,19.352-30.022,37.479-17.753,65.555
				c-30.515,3.063-43.529,16.081-46.594,46.594c-28.077-12.271-46.204-7.043-65.553,17.754
				c-19.352-24.797-37.479-30.023-65.552-17.752c-3.067-30.516-16.081-43.529-46.595-46.596
				c12.272-28.076,7.043-46.203-17.752-65.555c24.796-19.349,30.024-37.477,17.753-65.553c30.514-3.066,43.527-16.08,46.595-46.594
				c28.075,12.272,46.203,7.043,65.552-17.752c19.349,24.796,37.477,30.024,65.553,17.753c3.062,30.514,16.08,43.527,46.593,46.594
				C525.648,275.789,530.877,293.917,555.674,313.266z"/>
			
				<radialGradient id="Sun_Inside_1_" cx="118.9248" cy="386.7754" r="143.4413" fx="108.5146" fy="383.003" gradientTransform="matrix(1 0 0 -1 324 704)" gradientUnits="userSpaceOnUse">
				<stop  offset="0" style="stop-color:#F6D95F"/>
				<stop  offset="0.3187" style="stop-color:#F1CE53"/>
				<stop  offset="0.9061" style="stop-color:#E6B437"/>
				<stop  offset="1" style="stop-color:#E4AF33"/>
			</radialGradient>
			<circle id="Sun_Inside" fill="url(#Sun_Inside_1_)" cx="425.774" cy="313.266" r="97.631"/>
		</g>
	</g>
	<g id="Right_Mountain_1_">
		
			<linearGradient id="Right_Mountain_2_" gradientUnits="userSpaceOnUse" x1="180.811" y1="299.9854" x2="180.811" y2="364.397" gradientTransform="matrix(1 0 0 -1 324 704)">
			<stop  offset="0" style="stop-color:#3B9752"/>
			<stop  offset="0.4401" style="stop-color:#6DAA51"/>
			<stop  offset="0.8101" style="stop-color:#8EBB4F"/>
			<stop  offset="1" style="stop-color:#9AC34F"/>
		</linearGradient>
		<path id="Right_Mountain" fill="url(#Right_Mountain_2_)" d="M736.994,324.883C935.773,316.838,1008,347.93,1008,347.93
			L1006.748,648H1.622l28.283-281.559c0,0,135.375,3.633,280.201-1.731"/>
	</g>
	<g id="Trees_Behind_Front_Mountain">
		<g id="Tree_1_1_">
			<g>
				
					<linearGradient id="SVGID_1_" gradientUnits="userSpaceOnUse" x1="380.085" y1="347.2227" x2="380.085" y2="300.3673" gradientTransform="matrix(1 0 0 -1 324 704)">
					<stop  offset="0" style="stop-color:#225633"/>
					<stop  offset="0.1992" style="stop-color:#255E38"/>
					<stop  offset="0.5674" style="stop-color:#2D7543"/>
					<stop  offset="1" style="stop-color:#339853"/>
				</linearGradient>
				<path fill="url(#SVGID_1_)" d="M733.623,391.478c4.251,6.686,1.248,12.15-6.672,12.15h-45.744
					c-7.92,0-10.912-5.461-6.648-12.136l21.847-34.207c4.264-6.675,11.229-6.668,15.479,0.015L733.623,391.478z"/>
			</g>
			<g>
				
					<linearGradient id="SVGID_2_" gradientUnits="userSpaceOnUse" x1="379.9868" y1="367.5723" x2="379.9868" y2="326.2779" gradientTransform="matrix(1 0 0 -1 324 704)">
					<stop  offset="0" style="stop-color:#225633"/>
					<stop  offset="0.1992" style="stop-color:#255E38"/>
					<stop  offset="0.5674" style="stop-color:#2D7543"/>
					<stop  offset="1" style="stop-color:#339853"/>
				</linearGradient>
				<path fill="url(#SVGID_2_)" d="M726.516,365.894c4.253,6.686,1.248,12.15-6.672,12.15h-31.726
					c-7.92,0-10.913-5.461-6.649-12.136L696.29,342.7c4.263-6.675,11.229-6.668,15.479,0.014L726.516,365.894z"/>
			</g>
			<g>
				
					<linearGradient id="SVGID_3_" gradientUnits="userSpaceOnUse" x1="379.9868" y1="376.4062" x2="379.9868" y2="349.3416" gradientTransform="matrix(1 0 0 -1 324 704)">
					<stop  offset="0" style="stop-color:#225633"/>
					<stop  offset="0.1992" style="stop-color:#255E38"/>
					<stop  offset="0.5674" style="stop-color:#2D7543"/>
					<stop  offset="1" style="stop-color:#339853"/>
				</linearGradient>
				<path fill="url(#SVGID_3_)" d="M719.547,342.502c4.251,6.682,1.248,12.149-6.672,12.149h-17.788
					c-7.92,0-10.913-5.461-6.646-12.138l7.839-12.271c4.264-6.673,11.229-6.667,15.479,0.015L719.547,342.502z"/>
			</g>
			<g>
				
					<linearGradient id="SVGID_4_" gradientUnits="userSpaceOnUse" x1="379.9868" y1="402.6162" x2="379.9868" y2="371.7247" gradientTransform="matrix(1 0 0 -1 324 704)">
					<stop  offset="0" style="stop-color:#225633"/>
					<stop  offset="0.1992" style="stop-color:#255E38"/>
					<stop  offset="0.5674" style="stop-color:#2D7543"/>
					<stop  offset="1" style="stop-color:#339853"/>
				</linearGradient>
				<path fill="url(#SVGID_4_)" d="M712.186,320.58c4.251,6.682,1.248,12.146-6.674,12.146h-3.063c-7.92,0-10.912-5.46-6.649-12.134
					l0.464-0.726c4.266-6.675,11.229-6.668,15.479,0.014L712.186,320.58z"/>
			</g>
		</g>
		<g id="Tree_1">
			<g>
				
					<linearGradient id="SVGID_5_" gradientUnits="userSpaceOnUse" x1="333.1284" y1="371.0957" x2="333.1284" y2="297.4001" gradientTransform="matrix(1 0 0 -1 324 704)">
					<stop  offset="0" style="stop-color:#225633"/>
					<stop  offset="0.1992" style="stop-color:#255E38"/>
					<stop  offset="0.5674" style="stop-color:#2D7543"/>
					<stop  offset="1" style="stop-color:#339853"/>
				</linearGradient>
				<path fill="url(#SVGID_5_)" d="M705.412,394.443c4.25,6.683,1.248,12.147-6.672,12.147h-83.235
					c-7.92,0-10.912-5.461-6.646-12.136l40.629-63.617c4.263-6.675,11.229-6.668,15.479,0.018L705.412,394.443z"/>
			</g>
			<g>
				
					<linearGradient id="SVGID_6_" gradientUnits="userSpaceOnUse" x1="332.98" y1="402.1055" x2="332.98" y2="336.3687" gradientTransform="matrix(1 0 0 -1 324 704)">
					<stop  offset="0" style="stop-color:#225633"/>
					<stop  offset="0.1992" style="stop-color:#255E38"/>
					<stop  offset="0.5674" style="stop-color:#2D7543"/>
					<stop  offset="1" style="stop-color:#339853"/>
				</linearGradient>
				<path fill="url(#SVGID_6_)" d="M694.729,355.992c4.252,6.683,1.25,12.147-6.671,12.147h-62.166
					c-7.922,0-10.911-5.461-6.648-12.136l30.071-47.088c4.264-6.675,11.229-6.668,15.479,0.015L694.729,355.992z"/>
			</g>
			<g>
				
					<linearGradient id="SVGID_7_" gradientUnits="userSpaceOnUse" x1="332.9805" y1="414.9854" x2="332.9805" y2="371.0015" gradientTransform="matrix(1 0 0 -1 324 704)">
					<stop  offset="0" style="stop-color:#225633"/>
					<stop  offset="0.1992" style="stop-color:#255E38"/>
					<stop  offset="0.5674" style="stop-color:#2D7543"/>
					<stop  offset="1" style="stop-color:#339853"/>
				</linearGradient>
				<path fill="url(#SVGID_7_)" d="M684.256,320.836c4.251,6.683,1.249,12.15-6.671,12.15h-41.22c-7.92,0-10.912-5.461-6.648-12.14
					l19.578-30.656c4.262-6.675,11.229-6.668,15.479,0.015L684.256,320.836z"/>
			</g>
			<g>
				
					<linearGradient id="SVGID_8_" gradientUnits="userSpaceOnUse" x1="332.98" y1="457.3691" x2="332.98" y2="404.7396" gradientTransform="matrix(1 0 0 -1 324 704)">
					<stop  offset="0" style="stop-color:#225633"/>
					<stop  offset="0.1992" style="stop-color:#255E38"/>
					<stop  offset="0.5674" style="stop-color:#2D7543"/>
					<stop  offset="1" style="stop-color:#339853"/>
				</linearGradient>
				<path fill="url(#SVGID_8_)" d="M673.193,287.884c4.25,6.683,1.248,12.15-6.672,12.15h-19.096c-7.92,0-10.911-5.461-6.646-12.136
					l8.493-13.299c4.263-6.676,11.229-6.669,15.479,0.014L673.193,287.884z"/>
			</g>
		</g>
		<g id="Tree_1_3_">
			<g>
				
					<linearGradient id="SVGID_9_" gradientUnits="userSpaceOnUse" x1="333.1284" y1="371.0957" x2="333.1284" y2="297.4001" gradientTransform="matrix(1 0 0 -1 324 704)">
					<stop  offset="0" style="stop-color:#225633"/>
					<stop  offset="0.1992" style="stop-color:#255E38"/>
					<stop  offset="0.5674" style="stop-color:#2D7543"/>
					<stop  offset="1" style="stop-color:#339853"/>
				</linearGradient>
				<path fill="url(#SVGID_9_)" d="M705.412,394.443c4.25,6.683,1.248,12.147-6.672,12.147h-83.235
					c-7.92,0-10.912-5.461-6.646-12.136l40.629-63.617c4.263-6.675,11.229-6.668,15.479,0.018L705.412,394.443z"/>
			</g>
			<g>
				
					<linearGradient id="SVGID_10_" gradientUnits="userSpaceOnUse" x1="332.98" y1="402.1055" x2="332.98" y2="336.3687" gradientTransform="matrix(1 0 0 -1 324 704)">
					<stop  offset="0" style="stop-color:#225633"/>
					<stop  offset="0.1992" style="stop-color:#255E38"/>
					<stop  offset="0.5674" style="stop-color:#2D7543"/>
					<stop  offset="1" style="stop-color:#339853"/>
				</linearGradient>
				<path fill="url(#SVGID_10_)" d="M694.729,355.992c4.252,6.683,1.25,12.147-6.671,12.147h-62.166
					c-7.922,0-10.911-5.461-6.648-12.136l30.071-47.088c4.264-6.675,11.229-6.668,15.479,0.015L694.729,355.992z"/>
			</g>
			<g>
				
					<linearGradient id="SVGID_11_" gradientUnits="userSpaceOnUse" x1="332.9805" y1="414.9854" x2="332.9805" y2="371.0015" gradientTransform="matrix(1 0 0 -1 324 704)">
					<stop  offset="0" style="stop-color:#225633"/>
					<stop  offset="0.1992" style="stop-color:#255E38"/>
					<stop  offset="0.5674" style="stop-color:#2D7543"/>
					<stop  offset="1" style="stop-color:#339853"/>
				</linearGradient>
				<path fill="url(#SVGID_11_)" d="M684.256,320.836c4.251,6.683,1.249,12.15-6.671,12.15h-41.22c-7.92,0-10.912-5.461-6.648-12.14
					l19.578-30.656c4.262-6.675,11.229-6.668,15.479,0.015L684.256,320.836z"/>
			</g>
			<g>
				
					<linearGradient id="SVGID_12_" gradientUnits="userSpaceOnUse" x1="332.98" y1="457.3691" x2="332.98" y2="404.7396" gradientTransform="matrix(1 0 0 -1 324 704)">
					<stop  offset="0" style="stop-color:#225633"/>
					<stop  offset="0.1992" style="stop-color:#255E38"/>
					<stop  offset="0.5674" style="stop-color:#2D7543"/>
					<stop  offset="1" style="stop-color:#339853"/>
				</linearGradient>
				<path fill="url(#SVGID_12_)" d="M673.193,287.884c4.25,6.683,1.248,12.15-6.672,12.15h-19.096
					c-7.92,0-10.911-5.461-6.646-12.136l8.493-13.299c4.263-6.676,11.229-6.669,15.479,0.014L673.193,287.884z"/>
			</g>
		</g>
		<g id="Tree_1_2_">
			<g>
				
					<linearGradient id="SVGID_13_" gradientUnits="userSpaceOnUse" x1="413.6216" y1="333.4453" x2="413.6216" y2="299.5527" gradientTransform="matrix(1 0 0 -1 324 704)">
					<stop  offset="0" style="stop-color:#225633"/>
					<stop  offset="0.1992" style="stop-color:#255E38"/>
					<stop  offset="0.5674" style="stop-color:#2D7543"/>
					<stop  offset="1" style="stop-color:#339853"/>
				</linearGradient>
				<path fill="url(#SVGID_13_)" d="M758.107,392.296c4.251,6.683,1.248,12.149-6.673,12.149h-27.639
					c-7.92,0-10.913-5.461-6.647-12.139l12.771-20.001c4.266-6.676,11.229-6.669,15.479,0.017L758.107,392.296z"/>
			</g>
			<g>
				
					<linearGradient id="SVGID_14_" gradientUnits="userSpaceOnUse" x1="413.5493" y1="348.6445" x2="413.5493" y2="319.153" gradientTransform="matrix(1 0 0 -1 324 704)">
					<stop  offset="0" style="stop-color:#225633"/>
					<stop  offset="0.1992" style="stop-color:#255E38"/>
					<stop  offset="0.5674" style="stop-color:#2D7543"/>
					<stop  offset="1" style="stop-color:#339853"/>
				</linearGradient>
				<path fill="url(#SVGID_14_)" d="M752.727,372.926c4.251,6.686,1.248,12.15-6.674,12.15h-17.021
					c-7.92,0-10.912-5.461-6.649-12.137l7.456-11.677c4.265-6.676,11.229-6.669,15.479,0.017L752.727,372.926z"/>
			</g>
			<g>
				
					<linearGradient id="SVGID_15_" gradientUnits="userSpaceOnUse" x1="413.5479" y1="355.5273" x2="413.5479" y2="336.629" gradientTransform="matrix(1 0 0 -1 324 704)">
					<stop  offset="0" style="stop-color:#225633"/>
					<stop  offset="0.1992" style="stop-color:#255E38"/>
					<stop  offset="0.5674" style="stop-color:#2D7543"/>
					<stop  offset="1" style="stop-color:#339853"/>
				</linearGradient>
				<path fill="url(#SVGID_15_)" d="M747.45,355.216c4.251,6.686,1.249,12.15-6.672,12.15h-6.473
					c-7.922,0-10.911-5.462-6.648-12.136l2.17-3.398c4.263-6.675,11.229-6.668,15.479,0.014L747.45,355.216z"/>
			</g>
			<g>
				
					<linearGradient id="SVGID_16_" gradientUnits="userSpaceOnUse" x1="413.5493" y1="376.6895" x2="413.5493" y2="353.5732" gradientTransform="matrix(1 0 0 -1 324 704)">
					<stop  offset="0" style="stop-color:#225633"/>
					<stop  offset="0.1992" style="stop-color:#255E38"/>
					<stop  offset="0.5674" style="stop-color:#2D7543"/>
					<stop  offset="1" style="stop-color:#339853"/>
				</linearGradient>
				<path fill="url(#SVGID_16_)" d="M743.586,341.303c3.312,5.205,0.591,9.464-6.043,9.464c-6.635,0-9.344-4.259-6.02-9.464
					C734.847,336.098,740.275,336.098,743.586,341.303z"/>
			</g>
		</g>
		<g id="Tree_1_7_">
			<g>
				
					<linearGradient id="SVGID_17_" gradientUnits="userSpaceOnUse" x1="600.7012" y1="378.6221" x2="600.7012" y2="364.7222" gradientTransform="matrix(1 0 0 -1 324 704)">
					<stop  offset="0" style="stop-color:#225633"/>
					<stop  offset="0.1992" style="stop-color:#255E38"/>
					<stop  offset="0.5674" style="stop-color:#2D7543"/>
					<stop  offset="1" style="stop-color:#339853"/>
				</linearGradient>
				<path fill="url(#SVGID_17_)" d="M931.581,328.494c3.772,5.931,0.673,10.783-6.888,10.783c-7.562,0-10.646-4.854-6.858-10.783
					S927.809,322.564,931.581,328.494z"/>
			</g>
			<g>
				
					<linearGradient id="SVGID_18_" gradientUnits="userSpaceOnUse" x1="600.6621" y1="386.9141" x2="600.6621" y2="374.2526" gradientTransform="matrix(1 0 0 -1 324 704)">
					<stop  offset="0" style="stop-color:#225633"/>
					<stop  offset="0.1992" style="stop-color:#255E38"/>
					<stop  offset="0.5674" style="stop-color:#2D7543"/>
					<stop  offset="1" style="stop-color:#339853"/>
				</linearGradient>
				<path fill="url(#SVGID_18_)" d="M930.249,321.088c3.063,4.816,0.547,8.756-5.591,8.756c-6.139,0-8.646-3.938-5.57-8.756
					C922.164,316.272,927.186,316.272,930.249,321.088z"/>
			</g>
			<g>
				
					<linearGradient id="SVGID_19_" gradientUnits="userSpaceOnUse" x1="600.6611" y1="391.541" x2="600.6611" y2="382.7834" gradientTransform="matrix(1 0 0 -1 324 704)">
					<stop  offset="0" style="stop-color:#225633"/>
					<stop  offset="0.1992" style="stop-color:#255E38"/>
					<stop  offset="0.5674" style="stop-color:#2D7543"/>
					<stop  offset="1" style="stop-color:#339853"/>
				</linearGradient>
				<path fill="url(#SVGID_19_)" d="M928.961,314.477c2.358,3.707,0.421,6.739-4.304,6.739c-4.727,0-6.654-3.033-4.286-6.739
					C922.738,310.771,926.604,310.771,928.961,314.477z"/>
			</g>
			<g>
				
					<linearGradient id="SVGID_20_" gradientUnits="userSpaceOnUse" x1="600.6592" y1="402.2939" x2="600.6592" y2="391.0361" gradientTransform="matrix(1 0 0 -1 324 704)">
					<stop  offset="0" style="stop-color:#225633"/>
					<stop  offset="0.1992" style="stop-color:#255E38"/>
					<stop  offset="0.5674" style="stop-color:#2D7543"/>
					<stop  offset="1" style="stop-color:#339853"/>
				</linearGradient>
				<path fill="url(#SVGID_20_)" d="M927.602,308.521c1.611,2.533,0.289,4.607-2.942,4.607c-3.232,0-4.554-2.074-2.935-4.607
					C923.343,305.985,925.989,305.985,927.602,308.521z"/>
			</g>
		</g>
		<g id="Tree_1_4_">
			<g>
				
					<linearGradient id="SVGID_21_" gradientUnits="userSpaceOnUse" x1="287.498" y1="352.5381" x2="287.498" y2="301.6964" gradientTransform="matrix(1 0 0 -1 324 704)">
					<stop  offset="0" style="stop-color:#225633"/>
					<stop  offset="0.1992" style="stop-color:#255E38"/>
					<stop  offset="0.5674" style="stop-color:#2D7543"/>
					<stop  offset="1" style="stop-color:#339853"/>
				</linearGradient>
				<path fill="url(#SVGID_21_)" d="M643.82,390.148c4.25,6.683,1.248,12.147-6.672,12.147h-51.312
					c-7.92,0-10.912-5.461-6.646-12.137l24.635-38.574c4.263-6.674,11.229-6.668,15.479,0.015L643.82,390.148z"/>
			</g>
			<g>
				
					<linearGradient id="SVGID_22_" gradientUnits="userSpaceOnUse" x1="287.3931" y1="374.4727" x2="287.3931" y2="329.5475" gradientTransform="matrix(1 0 0 -1 324 704)">
					<stop  offset="0" style="stop-color:#225633"/>
					<stop  offset="0.1992" style="stop-color:#255E38"/>
					<stop  offset="0.5674" style="stop-color:#2D7543"/>
					<stop  offset="1" style="stop-color:#339853"/>
				</linearGradient>
				<path fill="url(#SVGID_22_)" d="M636.182,362.653c4.25,6.683,1.248,12.146-6.672,12.146h-36.247
					c-7.921,0-10.909-5.461-6.646-12.136l17.087-26.755c4.263-6.674,11.229-6.668,15.479,0.014L636.182,362.653z"/>
			</g>
			<g>
				
					<linearGradient id="SVGID_23_" gradientUnits="userSpaceOnUse" x1="287.3916" y1="383.9092" x2="287.3916" y2="354.3268" gradientTransform="matrix(1 0 0 -1 324 704)">
					<stop  offset="0" style="stop-color:#225633"/>
					<stop  offset="0.1992" style="stop-color:#255E38"/>
					<stop  offset="0.5674" style="stop-color:#2D7543"/>
					<stop  offset="1" style="stop-color:#339853"/>
				</linearGradient>
				<path fill="url(#SVGID_23_)" d="M628.692,337.514c4.251,6.686,1.249,12.15-6.673,12.15h-21.27
					c-7.92,0-10.912-5.461-6.646-12.137l9.582-15.005c4.265-6.678,11.229-6.671,15.479,0.014L628.692,337.514z"/>
			</g>
			<g>
				
					<linearGradient id="SVGID_24_" gradientUnits="userSpaceOnUse" x1="287.3916" y1="412.5215" x2="287.3916" y2="378.3998" gradientTransform="matrix(1 0 0 -1 324 704)">
					<stop  offset="0" style="stop-color:#225633"/>
					<stop  offset="0.1992" style="stop-color:#255E38"/>
					<stop  offset="0.5674" style="stop-color:#2D7543"/>
					<stop  offset="1" style="stop-color:#339853"/>
				</linearGradient>
				<path fill="url(#SVGID_24_)" d="M620.781,313.951c4.251,6.683,1.248,12.148-6.672,12.148h-5.446
					c-7.921,0-10.912-5.462-6.649-12.137l1.656-2.594c4.266-6.675,11.229-6.668,15.479,0.014L620.781,313.951z"/>
			</g>
		</g>
		<g id="Tree_1_5_">
			<g>
				
					<linearGradient id="SVGID_25_" gradientUnits="userSpaceOnUse" x1="572.8457" y1="388.6719" x2="572.8457" y2="369.1611" gradientTransform="matrix(1 0 0 -1 324 704)">
					<stop  offset="0" style="stop-color:#225633"/>
					<stop  offset="0.1992" style="stop-color:#255E38"/>
					<stop  offset="0.5674" style="stop-color:#2D7543"/>
					<stop  offset="1" style="stop-color:#339853"/>
				</linearGradient>
				<path fill="url(#SVGID_25_)" d="M907.286,322.688c4.251,6.685,1.248,12.149-6.672,12.149h-7.546
					c-7.92,0-10.912-5.461-6.649-12.136l2.709-4.241c4.263-6.675,11.229-6.668,15.479,0.015L907.286,322.688z"/>
			</g>
			<g>
				
					<linearGradient id="SVGID_26_" gradientUnits="userSpaceOnUse" x1="572.8008" y1="398.502" x2="572.8008" y2="381.7676" gradientTransform="matrix(1 0 0 -1 324 704)">
					<stop  offset="0" style="stop-color:#225633"/>
					<stop  offset="0.1992" style="stop-color:#255E38"/>
					<stop  offset="0.5674" style="stop-color:#2D7543"/>
					<stop  offset="1" style="stop-color:#339853"/>
				</linearGradient>
				<path fill="url(#SVGID_26_)" d="M904.186,310.787c4.051,6.367,0.884,11.576-7.036,11.576h-0.712
					c-7.92,0-11.072-5.209-7.01-11.576C893.496,304.421,900.137,304.421,904.186,310.787z"/>
			</g>
			<g>
				
					<linearGradient id="SVGID_27_" gradientUnits="userSpaceOnUse" x1="572.7979" y1="404.6221" x2="572.7979" y2="393.0407" gradientTransform="matrix(1 0 0 -1 324 704)">
					<stop  offset="0" style="stop-color:#225633"/>
					<stop  offset="0.1992" style="stop-color:#255E38"/>
					<stop  offset="0.5674" style="stop-color:#2D7543"/>
					<stop  offset="1" style="stop-color:#339853"/>
				</linearGradient>
				<path fill="url(#SVGID_27_)" d="M902.484,302.047c3.114,4.9,0.556,8.91-5.691,8.91c-6.246,0-8.797-4.01-5.667-8.91
					C894.256,297.147,899.367,297.146,902.484,302.047z"/>
			</g>
			<g>
				
					<linearGradient id="SVGID_28_" gradientUnits="userSpaceOnUse" x1="572.7959" y1="418.8379" x2="572.7959" y2="403.952" gradientTransform="matrix(1 0 0 -1 324 704)">
					<stop  offset="0" style="stop-color:#225633"/>
					<stop  offset="0.1992" style="stop-color:#255E38"/>
					<stop  offset="0.5674" style="stop-color:#2D7543"/>
					<stop  offset="1" style="stop-color:#339853"/>
				</linearGradient>
				<path fill="url(#SVGID_28_)" d="M900.686,294.172c2.134,3.352,0.382,6.095-3.895,6.095c-4.271,0-6.018-2.743-3.876-6.095
					C895.059,290.82,898.554,290.82,900.686,294.172z"/>
			</g>
		</g>
		<g id="Tree_1_6_">
			<g>
				
					<linearGradient id="SVGID_29_" gradientUnits="userSpaceOnUse" x1="584.5703" y1="377.2656" x2="584.5703" y2="357.7554" gradientTransform="matrix(1 0 0 -1 324 704)">
					<stop  offset="0" style="stop-color:#225633"/>
					<stop  offset="0.1992" style="stop-color:#255E38"/>
					<stop  offset="0.5674" style="stop-color:#2D7543"/>
					<stop  offset="1" style="stop-color:#339853"/>
				</linearGradient>
				<path fill="url(#SVGID_29_)" d="M919.01,334.092c4.251,6.687,1.248,12.15-6.672,12.15h-7.546c-7.92,0-10.912-5.461-6.647-12.135
					l2.709-4.242c4.264-6.674,11.229-6.667,15.479,0.016L919.01,334.092z"/>
			</g>
			<g>
				
					<linearGradient id="SVGID_30_" gradientUnits="userSpaceOnUse" x1="584.5234" y1="387.0957" x2="584.5234" y2="370.3596" gradientTransform="matrix(1 0 0 -1 324 704)">
					<stop  offset="0" style="stop-color:#225633"/>
					<stop  offset="0.1992" style="stop-color:#255E38"/>
					<stop  offset="0.5674" style="stop-color:#2D7543"/>
					<stop  offset="1" style="stop-color:#339853"/>
				</linearGradient>
				<path fill="url(#SVGID_30_)" d="M915.909,322.193c4.05,6.365,0.883,11.574-7.037,11.574h-0.711
					c-7.92,0-11.073-5.209-7.008-11.574C905.22,315.827,911.86,315.827,915.909,322.193z"/>
			</g>
			<g>
				
					<linearGradient id="SVGID_31_" gradientUnits="userSpaceOnUse" x1="584.5225" y1="393.2158" x2="584.5225" y2="381.6341" gradientTransform="matrix(1 0 0 -1 324 704)">
					<stop  offset="0" style="stop-color:#225633"/>
					<stop  offset="0.1992" style="stop-color:#255E38"/>
					<stop  offset="0.5674" style="stop-color:#2D7543"/>
					<stop  offset="1" style="stop-color:#339853"/>
				</linearGradient>
				<path fill="url(#SVGID_31_)" d="M914.208,313.453c3.116,4.897,0.556,8.91-5.69,8.91c-6.244,0-8.798-4.013-5.668-8.91
					C905.98,308.553,911.091,308.552,914.208,313.453z"/>
			</g>
			<g>
				
					<linearGradient id="SVGID_32_" gradientUnits="userSpaceOnUse" x1="584.5195" y1="407.4297" x2="584.5195" y2="392.5479" gradientTransform="matrix(1 0 0 -1 324 704)">
					<stop  offset="0" style="stop-color:#225633"/>
					<stop  offset="0.1992" style="stop-color:#255E38"/>
					<stop  offset="0.5674" style="stop-color:#2D7543"/>
					<stop  offset="1" style="stop-color:#339853"/>
				</linearGradient>
				<path fill="url(#SVGID_32_)" d="M912.409,305.578c2.133,3.352,0.381,6.095-3.895,6.095c-4.271,0-6.018-2.743-3.875-6.095
					C906.781,302.226,910.277,302.226,912.409,305.578z"/>
			</g>
		</g>
	</g>
	<g id="Left_Mountain_1_">
		
			<linearGradient id="Left_Mountain_2_" gradientUnits="userSpaceOnUse" x1="180" y1="265.873" x2="180" y2="31.6227" gradientTransform="matrix(1 0 0 -1 324 704)">
			<stop  offset="0" style="stop-color:#8EBE4F"/>
			<stop  offset="0.2117" style="stop-color:#8BBC4F"/>
			<stop  offset="0.4124" style="stop-color:#82B64F"/>
			<stop  offset="0.6087" style="stop-color:#73AE50"/>
			<stop  offset="0.8022" style="stop-color:#5CA351"/>
			<stop  offset="0.9921" style="stop-color:#3D9852"/>
			<stop  offset="1" style="stop-color:#3B9752"/>
		</linearGradient>
		<path id="Left_Mountain" fill="url(#Left_Mountain_2_)" d="M224.004,335.359C28.17,327.982,0,352.01,0,352.01V648h1008V357.871
			c0,0-177.381,35.269-320.06,30.352"/>
	</g>
	<g id="Trees_in_Front_of_Left_Mountain">
		<g id="Tree_1_8_">
			<g>
				
					<linearGradient id="SVGID_33_" gradientUnits="userSpaceOnUse" x1="-243.3389" y1="315.1807" x2="-243.3389" y2="228.1324" gradientTransform="matrix(1 0 0 -1 324 704)">
					<stop  offset="0" style="stop-color:#225633"/>
					<stop  offset="0.1992" style="stop-color:#255E38"/>
					<stop  offset="0.5674" style="stop-color:#2D7543"/>
					<stop  offset="1" style="stop-color:#339853"/>
				</linearGradient>
				<path fill="url(#SVGID_33_)" d="M138.271,463.709c4.251,6.684,1.249,12.15-6.671,12.15H29.71c-7.92,0-10.912-5.461-6.649-12.14
					l49.974-78.25c4.263-6.674,11.229-6.668,15.479,0.019L138.271,463.709z"/>
			</g>
			<g>
				
					<linearGradient id="SVGID_34_" gradientUnits="userSpaceOnUse" x1="-243.5103" y1="351.4961" x2="-243.5103" y2="273.6" gradientTransform="matrix(1 0 0 -1 324 704)">
					<stop  offset="0" style="stop-color:#225633"/>
					<stop  offset="0.1992" style="stop-color:#255E38"/>
					<stop  offset="0.5674" style="stop-color:#2D7543"/>
					<stop  offset="1" style="stop-color:#339853"/>
				</linearGradient>
				<path fill="url(#SVGID_34_)" d="M125.811,418.855c4.251,6.684,1.249,12.147-6.671,12.147H41.827
					c-7.92,0-10.912-5.461-6.649-12.135l37.661-58.97c4.263-6.678,11.229-6.67,15.48,0.014L125.811,418.855z"/>
			</g>
			<g>
				
					<linearGradient id="SVGID_35_" gradientUnits="userSpaceOnUse" x1="-243.5112" y1="366.3896" x2="-243.5112" y2="313.9897" gradientTransform="matrix(1 0 0 -1 324 704)">
					<stop  offset="0" style="stop-color:#225633"/>
					<stop  offset="0.1992" style="stop-color:#255E38"/>
					<stop  offset="0.5674" style="stop-color:#2D7543"/>
					<stop  offset="1" style="stop-color:#339853"/>
				</linearGradient>
				<path fill="url(#SVGID_35_)" d="M113.593,377.846c4.25,6.687,1.249,12.15-6.671,12.15H54.044c-7.92,0-10.912-5.461-6.649-12.136
					l25.419-39.805c4.263-6.676,11.229-6.669,15.479,0.017L113.593,377.846z"/>
			</g>
			<g>
				
					<linearGradient id="SVGID_36_" gradientUnits="userSpaceOnUse" x1="-243.5112" y1="416.8301" x2="-243.5112" y2="353.3746" gradientTransform="matrix(1 0 0 -1 324 704)">
					<stop  offset="0" style="stop-color:#225633"/>
					<stop  offset="0.1992" style="stop-color:#255E38"/>
					<stop  offset="0.5674" style="stop-color:#2D7543"/>
					<stop  offset="1" style="stop-color:#339853"/>
				</linearGradient>
				<path fill="url(#SVGID_36_)" d="M100.688,339.407c4.25,6.683,1.249,12.147-6.671,12.147H66.949
					c-7.92,0-10.912-5.462-6.649-12.136l12.488-19.556c4.263-6.678,11.229-6.67,15.479,0.014L100.688,339.407z"/>
			</g>
		</g>
		<g id="Tree_1_9_">
			<g>
				
					<linearGradient id="SVGID_37_" gradientUnits="userSpaceOnUse" x1="-180.0493" y1="307.0469" x2="-180.0493" y2="196.6272" gradientTransform="matrix(1 0 0 -1 324 704)">
					<stop  offset="0" style="stop-color:#225633"/>
					<stop  offset="0.1992" style="stop-color:#255E38"/>
					<stop  offset="0.5674" style="stop-color:#2D7543"/>
					<stop  offset="1" style="stop-color:#339853"/>
				</linearGradient>
				<path fill="url(#SVGID_37_)" d="M217.884,495.212c4.25,6.683,1.249,12.15-6.671,12.15H76.677c-7.92,0-10.912-5.461-6.649-12.139
					l66.329-103.857c4.263-6.675,11.229-6.669,15.479,0.014L217.884,495.212z"/>
			</g>
			<g>
				
					<linearGradient id="SVGID_38_" gradientUnits="userSpaceOnUse" x1="-180.2651" y1="352.6445" x2="-180.2651" y2="253.4661" gradientTransform="matrix(1 0 0 -1 324 704)">
					<stop  offset="0" style="stop-color:#225633"/>
					<stop  offset="0.1992" style="stop-color:#255E38"/>
					<stop  offset="0.5674" style="stop-color:#2D7543"/>
					<stop  offset="1" style="stop-color:#339853"/>
				</linearGradient>
				<path fill="url(#SVGID_38_)" d="M202.31,439.154c4.251,6.683,1.249,12.147-6.671,12.147H91.819
					c-7.92,0-10.912-5.461-6.649-12.136l50.941-79.763c4.263-6.675,11.229-6.668,15.48,0.014L202.31,439.154z"/>
			</g>
			<g>
				
					<linearGradient id="SVGID_39_" gradientUnits="userSpaceOnUse" x1="-180.2642" y1="371.0605" x2="-180.2642" y2="303.9308" gradientTransform="matrix(1 0 0 -1 324 704)">
					<stop  offset="0" style="stop-color:#225633"/>
					<stop  offset="0.1992" style="stop-color:#255E38"/>
					<stop  offset="0.5674" style="stop-color:#2D7543"/>
					<stop  offset="1" style="stop-color:#339853"/>
				</linearGradient>
				<path fill="url(#SVGID_39_)" d="M187.04,387.901c4.251,6.683,1.249,12.147-6.671,12.147H107.09
					c-7.92,0-10.912-5.462-6.649-12.136l35.641-55.809c4.263-6.679,11.228-6.671,15.479,0.014L187.04,387.901z"/>
			</g>
			<g>
				
					<linearGradient id="SVGID_40_" gradientUnits="userSpaceOnUse" x1="-180.2637" y1="435.5771" x2="-180.2637" y2="353.2002" gradientTransform="matrix(1 0 0 -1 324 704)">
					<stop  offset="0" style="stop-color:#225633"/>
					<stop  offset="0.1992" style="stop-color:#255E38"/>
					<stop  offset="0.5674" style="stop-color:#2D7543"/>
					<stop  offset="1" style="stop-color:#339853"/>
				</linearGradient>
				<path fill="url(#SVGID_40_)" d="M170.912,339.859c4.251,6.684,1.249,12.147-6.671,12.147h-41.022
					c-7.92,0-10.912-5.461-6.649-12.136l19.48-30.502c4.263-6.676,11.229-6.669,15.479,0.014L170.912,339.859z"/>
			</g>
		</g>
	</g>
	<g id="Right_Cloud">
		
			<ellipse id="_x31_2" transform="matrix(0.1238 0.9923 -0.9923 0.1238 839.5273 -687.9637)" fill="#FFFFFF" cx="809.328" cy="131.406" rx="54.843" ry="58.494"/>
		
			<ellipse id="_x31_1" transform="matrix(0.1238 0.9923 -0.9923 0.1238 872.8954 -772.7147)" fill="#FFFFFF" cx="874.007" cy="107.931" rx="32.753" ry="53.997"/>
		
			<ellipse id="_x31_0" transform="matrix(0.1238 0.9923 -0.9923 0.1238 778.78 -668.5041)" fill="#FFFFFF" cx="767.929" cy="106.731" rx="21.644" ry="27.748"/>
		
			<ellipse id="_x38_" transform="matrix(0.1238 0.9923 -0.9923 0.1238 828.8255 -756.0011)" fill="#FFFFFF" cx="842.5" cy="91.324" rx="22.747" ry="29.186"/>
		
			<ellipse id="_x37_" transform="matrix(0.1238 0.9923 -0.9923 0.1238 805.1 -617.7097)" fill="#FFFFFF" cx="752.334" cy="147.041" rx="26.945" ry="51.621"/>
		
			<ellipse id="_x36_" transform="matrix(-0.8474 0.531 -0.531 -0.8474 1681.2123 -171.7061)" fill="#FFFFFF" cx="865.283" cy="155.761" rx="31.17" ry="18"/>
	</g>
	<g id="Left_Cloud">
		
			<ellipse id="_x35_" transform="matrix(0.1394 0.9902 -0.9902 0.1394 282.7134 -1.0698)" fill="#FFFFFF" cx="141.972" cy="162.116" rx="42.409" ry="74.885"/>
		
			<ellipse id="_x34_" transform="matrix(0.1394 0.9902 -0.9902 0.1394 248.8509 16.8277)" fill="#FFFFFF" cx="114.744" cy="151.583" rx="39.323" ry="49.395"/>
		<circle id="_x33_" fill="#FFFFFF" cx="200.176" cy="144.052" r="43.789"/>
		
			<ellipse id="_x32_" transform="matrix(0.1394 0.9902 -0.9902 0.1394 250.8577 75.6002)" fill="#FFFFFF" cx="81.935" cy="182.124" rx="21.59" ry="47.034"/>
		
			<ellipse id="_x31_" transform="matrix(0.1394 0.9902 -0.9902 0.1394 348.7968 -75.3163)" fill="#FFFFFF" cx="217.729" cy="163.012" rx="42.409" ry="74.885"/>
	</g>
</g>
<g id="Barn">
	<polygon fill="#565656" points="963.312,362.224 975.312,360.891 969.312,343.734 954.33,334.6 928.72,334.213 912.562,345.573 
		910.812,353.641 920.812,359.391 	"/>
	<path fill="#EAAB6C" d="M912.062,381.391l3.5-26c0,0,7.016-11.889,28-9.5c24,2.731,25.25,15.75,25.25,15.75s1.836-4.014-5.75,41.5
		c-7.75,46.5-14.25,72.75-14.25,72.75l-2.5,6.25c0,0-3.019,4.432-8.25,5.803c-11.25,2.947-13.723,0-13.723,0l-17.777-16.448
		l-6-62.104l-4.25-23.25L912.062,381.391z"/>
	<path fill="#CC813E" d="M959.873,421.34c0,0-15.198-13.292-28.783-14.305c-17.73-1.321-21.325,5.271-21.325,5.271l-0.254-3.115
		c0,0,4.807-6.229,21.34-5.021c17.396,1.272,29.562,13.811,29.562,13.811L959.873,421.34z"/>
	<polygon fill="#D83030" points="786.729,441.142 841.062,443.308 836.396,500.475 831.18,501.846 795.394,490.585 788.896,464.475 
			"/>
	<path fill="#CC813E" d="M954.416,450.256c0,0-14.229-12.442-26.945-13.392c-16.599-1.236-19.964,4.936-19.964,4.936l-0.237-2.918
		c0,0,4.5-5.83,19.979-4.698c16.285,1.19,27.675,12.929,27.675,12.929L954.416,450.256z"/>
	<path fill="#CC813E" d="M964.842,392.314c0,0-15.855-13.867-30.029-14.925c-18.5-1.379-22.248,5.5-22.248,5.5l-0.266-3.252
		c0,0,5.014-6.498,22.264-5.235c18.149,1.326,30.843,14.406,30.843,14.406L964.842,392.314z"/>
	<path fill="#FFFFFF" d="M787.135,487.331l2.447,2.638l5.812,0.616l-4.676-44.26l40.461,55.521l3.051-6.204l-37.833-53.491
		c0,0,1.994-0.543,15.609,0c17.709,0.705,21.874,3.648,21.874,3.648l-42.15,41.343l3.664,3.443l40.51-40.246l-4.725,51.507
		l5.131,2.628l5.506-1.877l7.132-64.815l-68.82-5.256L787.135,487.331z"/>
	<polygon fill="#ADADAD" points="890.396,357.743 813.393,348.622 793.796,350.91 768.304,382.565 752.599,433.481 771.344,437.279 
		810.859,426.134 882.798,451.465 934.113,446.819 936.5,436.774 940.552,431.2 920.287,383.072 	"/>
	<path fill="#D83030" d="M776.41,485.409l-11.146-49.647l14.187-46.103l21.276-27.863l15.198-4.053l25.331,22.798l23.811,59.779
		l71.434-3.546l-12.159,51.168l-73.458,21.276l-13.173-5.571l7.543-63.327c0,0-11.54-4.346-31.356-5.218
		c-29.748-1.31-31.406,2.686-31.406,2.686l7.093,52.181L776.41,485.409z"/>
	<path fill="#ADADAD" d="M910.812,353.641c0,0-1.902-38.9,40.5-35.246c13.219,1.141,21.543,11.745,24.327,21.125
		c3.323,11.2-0.327,21.37-0.327,21.37s-9.172-19.09-32.25-20C916.217,339.833,910.812,353.641,910.812,353.641z"/>
	<polygon fill="#CCCCCC" points="888.312,479.141 891.188,477.828 896.938,446.391 894.896,444.141 873.896,447.391 
		869.146,481.808 870.812,483.891 874.102,482.878 889.73,478.006 890.625,476.516 872.75,479.766 876.75,451.016 892.625,448.641 	
		"/>
	<polygon fill="#CCCCCC" points="902.5,474.078 907.75,446.766 919.74,445.01 913.405,473.196 916.75,472.516 924.287,443.157 
		923.48,441.058 903.953,444.484 897.646,478.224 898.938,480.781 902.938,475.891 915.562,472.641 916.188,470.203 	"/>
	<path fill="#FFFFFF" d="M875.148,448.771l-4.336,35.118l21.5-3.625l4.625-33.875L875.148,448.771z M889.5,477.703l-16,3.078
		l3.938-29.017l16.5-2.438L889.5,477.703z"/>
	<path fill="#FFFFFF" d="M905.896,445.891l-6.96,34.892l18.001-4.5l7.35-33.124L905.896,445.891z M914.812,471.828L903,474.703
		l5-26.812l12.919-1.908L914.812,471.828z"/>
	<line fill="none" stroke="#636363" stroke-miterlimit="10" x1="864.523" y1="425.013" x2="936.5" y2="422.586"/>
	<line fill="none" stroke="#636363" stroke-miterlimit="10" x1="855.386" y1="403.34" x2="928.391" y2="402.318"/>
	<line fill="none" stroke="#636363" stroke-miterlimit="10" x1="845.524" y1="379.308" x2="920.559" y2="383.072"/>
	<polygon fill="#FFFFFF" points="793.562,381.975 826.396,379.975 830.229,419.642 794.396,421.34 	"/>
	<line fill="none" stroke="#636363" stroke-miterlimit="10" x1="828.748" y1="363.411" x2="903.476" y2="368.826"/>
	<line fill="none" stroke="#636363" stroke-miterlimit="10" x1="813.393" y1="349.516" x2="890.396" y2="357.743"/>
	<polygon fill="#E5E5E5" points="900.564,434.04 869.146,435.974 845.253,379.308 813.393,348.622 793.796,350.91 768.013,383.51 
		752.599,433.481 756.475,434.267 771.485,384.752 795.564,354.808 811.396,352.978 841.257,380.541 865.067,440.32 936.5,436.774 
		940.552,431.2 	"/>
	<line fill="none" stroke="#636363" stroke-miterlimit="10" x1="800.729" y1="361.796" x2="795.564" y2="354.808"/>
	<line fill="none" stroke="#636363" stroke-miterlimit="10" x1="779.45" y1="389.659" x2="771.485" y2="384.752"/>
	<line fill="none" stroke="#636363" stroke-miterlimit="10" x1="765.265" y1="435.762" x2="756.475" y2="434.267"/>
	<polygon fill="#CCCCCC" points="795.896,384.752 822.896,383.072 822.896,390.309 822.896,416.642 799.896,418.309 
		796.562,418.309 	"/>
	<polygon fill="#F9F9F9" points="876.376,453.706 887.512,480.781 891.889,479.64 890.625,476.516 879.371,450.259 876.376,449.203 
			"/>
	<polygon fill="#FFFFFF" points="893.062,447.807 873.104,477.215 873.104,481.473 875.69,482.383 876.376,480.228 895.396,450.259 
		895.396,446.391 	"/>
	<polygon fill="#F9F9F9" points="907.271,447.807 915.229,474.14 917.781,468.5 909.513,446.391 	"/>
	<polygon fill="#F9F9F9" points="921.229,444.141 901.562,471.494 901.084,478.157 903.933,475.635 919.623,451.465 
		922.229,446.391 	"/>
	<polygon fill="#CCCCCC" points="790.812,487.225 786.729,441.142 794.473,439.606 802.146,439.641 812.314,440.32 821.646,441.142 
		830.97,442.905 835.23,444.141 833.881,445.799 825.562,444.141 807.562,441.997 796.396,442.149 794.473,439.606 786.729,441.142 
		790.719,446.325 791.697,447.668 794.852,484.298 	"/>
	<polygon fill="#A88686" points="798.396,387.205 799.896,418.309 825.729,417.413 822.896,385.445 	"/>
</g>
<g id="Cow">
	<path id="Back_leg_1_" fill="#FFFFFF" d="M659.775,559.876c-0.112,3.827-0.335,7.666-0.335,11.494c0,1.104,0,2.207,0,3.311
		c0,0.507-0.317,2.418,0,2.826c0.353,0.452,2.058,0.414,2.624,0.639c1.01,0.401,2.02,0.803,3.029,1.204
		c0.168-6.491,0.335-12.982,0.503-19.474C663.656,559.876,661.716,559.876,659.775,559.876L659.775,559.876z"/>
	<g id="Udder">
		<path fill="#FFBDD8" stroke="#000000" stroke-width="0.3" stroke-miterlimit="10" d="M684.592,561.613
			c0,0-1.524,2.577-3.229,3.792c-1.947,1.388-2.65,1.051-2.771,1.458c-0.062,0.21,0,1.875,0,1.875v1.25c0,0-0.527,0.971-1.422,0.971
			c-1.112,0-1.453-1.137-1.453-1.137s0.1-2.361,0-2.584c-0.148-0.333-2.841-0.298-3.021-0.121c-0.193,0.189-0.048,2.705-0.048,2.705
			s-0.314,1.137-1.5,1.137c-1.257,0-1.547-1.233-1.547-1.233s0.126-2.704-0.009-2.862c-0.202-0.237-2.023-0.983-2.25-0.75
			c-0.22,0.227,0,3.5,0,3.5s-0.378,1.346-1.49,1.346c-1.258,0-1.51-1.221-1.51-1.221v-4.5c0,0-2.534-0.948-3.31-3.018
			c-0.811-2.162-0.587-4.271-0.587-4.271L684.592,561.613z"/>
	</g>
	<g id="Tail">
		<g>
			<path fill="#FFFFFF" stroke="#000000" stroke-width="0.1" stroke-miterlimit="10" d="M651.967,540.516
				c-4.281,0.886-8.562,1.179-11.375-3c-2.152-3.196-1.751-8.106-0.051-11.359c2.059-3.938,4.37-6.52,8.622-8.533
				c2.237-1.06,4.153-1.704,6.304-2.295c2.945-0.81,3.027-0.229,5.375,1.812c-3.103,1.478-6.498,1.961-9.58,3.408
				c-4.418,2.075-6.638,3.543-8.886,7.915c-1.512,2.938-0.99,6.708,1.841,8.677c3.351,2.33,7.335-0.307,10.5-1.75
				C653.8,537.099,652.884,538.808,651.967,540.516L651.967,540.516z"/>
			<path d="M663.217,506.516c0.736-1.138,1.514-2.226,2-3.5c0.491,2.749,1.25,5.728,1.25,8.523c0,3.928-1.836,5.206-5.378,6.511
				c-3.148,1.159-5.532-2.138-4.349-4.948C657.906,510.332,661.307,508.772,663.217,506.516L663.217,506.516z"/>
		</g>
	</g>
	<path id="Body_1_" fill="#FFFFFF" stroke="#000000" stroke-width="0.1" stroke-miterlimit="10" d="M679.467,523.113
		c-7.717,0-14.91,0.463-21.98,3.752c-5.592,2.603-8.02,12.392-8.02,18.151c0,7.632,1.336,14.922,2.025,22.506
		c0.345,3.784,0.634,7.516,0.772,11.312c0.031,0.859-0.415,4.925,0.202,5.529c0.643,0.63,4.748,0,5.75,0
		c-0.437-8.067,0.333-18.276,1.5-23.125c4.037,2.49,26.229,2.797,36.375,1.875c0,3.277,0,6.555,0,9.832
		c0,0.605-0.279,5.031,0.223,5.052c2.066,0.087,3.248,0.314,5.152,1.116c0-5.54,0.464-10.743,1.125-16.25
		c2.369,2.116,1,9.338,1,12.45c0,2.334-0.149,4.721,0,7.05c0.093,1.439-0.335,1.799,0.938,2.562c0.852,0.511,2.59,1.068,3.562,0.562
		c1.877-0.977,1.097-3.563,1.306-5.18c0.318-2.47,0.619-4.943,0.957-7.411c0.619-4.519,1.237-9.037,1.875-13.553
		c0.726-5.135,0.473-8.024-0.562-13.123c-0.834-4.11-0.959-8.678-3.433-12.122c-1.784-2.482-3.568-4.966-5.353-7.449
		c-0.558-0.776-1.85-3.537-2.911-3.537c-5.643,0-11.286,0-16.929,0C681.851,523.113,680.659,523.113,679.467,523.113
		L679.467,523.113z"/>
	<path d="M702.724,547.341c-5.54-0.812-8.859-2.102-7.936-8.248c0.679-4.52-5.113-7.337-2.89-11.717
		c3.016-5.939,8.755,1.756,9.978,5.1C703.987,538.252,703.562,541.194,702.724,547.341L702.724,547.341z"/>
	<g id="Head">
		<path fill="#FFBDD8" stroke="#000000" stroke-width="0.3" stroke-miterlimit="10" d="M705.418,549.994
			c9.725,6.603,30.421,0.73,24.108-13.844c-0.629-1.451-0.952-1.388-2.444-1.528c-2.185-0.206-4.368-0.412-6.553-0.618
			c-3.338-0.314-5.706,1.134-8.834,2.412c-3.971,1.623-4.773,1.751-6.743,5.494C703.313,545.025,702.408,547.595,705.418,549.994
			L705.418,549.994z"/>
		<path fill="#F9F9A7" stroke="#000000" stroke-width="0.3" stroke-miterlimit="10" d="M700.008,517.03
			c1.99-2.323,0.309-3.296-1.511-5.17c-1.17-1.206-3.216-2.616-4.947-2.038c-1.872,0.624,0.409,4.027,1.216,5.013
			C696.3,516.71,697.581,517.839,700.008,517.03L700.008,517.03z"/>
		<path fill="#F9F9A7" stroke="#000000" stroke-width="0.3" stroke-miterlimit="10" d="M715.842,511.696
			c-2.034-0.791-2.729-2.387-2.219-4.636c0.31-1.366,1.149-4.934,2.802-5.364c2.174-0.565,2.195,3.931,2.195,5.258
			C718.62,509.304,718.442,511.073,715.842,511.696L715.842,511.696z"/>
		<path fill="#FFFFFF" stroke="#000000" stroke-width="0.3" stroke-miterlimit="10" d="M713.508,508.029
			c-6.051-0.016-11.085,4.053-15.588,7.609c-0.403,0.318-2.878-0.57-3.901-0.813c-2.039-0.482-4.212-0.615-6.279-0.247
			c-2.794,0.497-5.217,2.051-6.649,4.529c-0.912,1.577-1.979,3.351-0.489,4.641c0.715,0.619,1.845,1.164,2.74,1.448
			c3.997,1.267,8.098,0.303,11.75-1.417c0.617,3.65,1.436,7.275,2.431,10.841c1.323,4.74,3.044,11.941,7.486,14.826
			c5.023-9.277,15.401-14.479,25.667-10.667c0.073-6.795-0.962-13.832-3.255-20.23c-0.62-1.731-2.216-3.816-1.955-5.633
			c0.109-0.765,1.732-1.373,2.358-1.77c1.759-1.113,2.894-2.35,3.914-4.104c1.07-1.838,1.521-4.039,1.521-6.164
			c0-0.998-2.357-1.232-3.155-1.388c-6.833-1.33-11.515,2.843-12.845,9.455C716.017,508.503,714.855,507.953,713.508,508.029
			L713.508,508.029z"/>
		<path fill="#FFBDD8" stroke="#000000" stroke-width="0.3" stroke-miterlimit="10" d="M694.841,516.697
			c0.174,1.643,0.349,3.285,0.522,4.928c0.125,1.185-2.753,1.209-3.759,1.438c-2.705,0.612-5.817,0.893-8.463,0.001
			c-1.277-0.431-1.242-2.433-0.644-3.356c0.782-1.208,2.525-1.893,3.791-2.393C689.139,516.189,691.863,516.241,694.841,516.697
			L694.841,516.697z"/>
		<path fill="#FFBDD8" stroke="#000000" stroke-width="0.3" stroke-miterlimit="10" d="M719.767,508.168
			c1.934,2.374,3.421,4.74,6.438,2.432c1.904-1.456,4.552-4.573,4.4-7.151c-0.187-3.178-3.894-3.008-6.044-1.943
			C722.072,502.735,719.84,505.27,719.767,508.168L719.767,508.168z"/>
		<path fill="none" stroke="#000000" stroke-width="0.3" stroke-miterlimit="10" d="M713.387,527.092
			c0,1.107,0.001,2.195-0.089,3.299c-0.099,1.206-0.63,1.915-1.402,2.812c-0.804,0.934-2.038,0.74-3.116,0.74
			c-1.039,0-2.056-0.929-2.816-1.528c-0.767-0.605-1.387-1.5-1.867-2.347c-0.248-0.438-0.698-0.973-0.825-1.468
			c-0.056-0.219-0.181-0.19-0.051-0.385c0.211-0.317,0.422-0.635,0.632-0.951c1.256-1.889,2.698-3.501,4.35-5.049
			c0.15-0.141,1.538-1.427,1.694-1.244c0.626,0.732,1.253,1.466,1.879,2.198c0.022-0.502-0.038-3.048,0.145-3.206
			c0.171-0.147,1.174,0.03,1.394,0.036c0.719,0.019,1.438,0.038,2.157,0.057c1.989,0.052,4.273,0.45,6.02,1.453
			c0.785,0.451,0.843,1.757,0.889,2.628c0.065,1.255,0.115,2.332-0.088,3.565c-0.148,0.905-1.098,1.877-1.827,2.358
			c-0.815,0.538-2.029,0.672-2.977,0.46C715.754,530.134,714.434,528.427,713.387,527.092L713.387,527.092z"/>
		<path d="M703.538,527.736c-0.135,0.203-0.27,0.405-0.404,0.608c-1.467-2.514-1.632-6.215-0.292-8.789
			c1.571-3.018,5.654-0.583,7.013,1.368C707.229,522.706,705.363,525.188,703.538,527.736L703.538,527.736z"/>
		<path d="M713.612,519.964c-0.557,0.079-1.228-0.078-1.791-0.114c0.216-8.962,9.438-4.202,10.22,2.066
			C719.499,520.251,716.562,520.12,713.612,519.964L713.612,519.964z"/>
		<ellipse transform="matrix(0.8981 -0.4398 0.4398 0.8981 -158.8628 365.9014)" cx="710.061" cy="525.723" rx="1.062" ry="1.766"/>
		<ellipse transform="matrix(0.9272 -0.3745 0.3745 0.9272 -144.1877 305.7054)" cx="714.556" cy="523.88" rx="1.063" ry="1.766"/>
		<path fill="none" stroke="#000000" stroke-width="0.3" stroke-miterlimit="10" d="M708.83,549.446
			c0.009-0.528,0.295-1.151,0.427-1.666c5.19,4.251,17.457,3.553,17.457-4.988c0.72,0.577,1.421,0.598,2.096,0"/>
		<path fill="none" stroke="#000000" stroke-width="0.3" stroke-miterlimit="10" d="M715.742,545.686
			c-1.044-1.527-2.949-2.28-4.451-0.848c0.323,0.912,1.163,1.101,2.077,0.848"/>
		<path fill="none" stroke="#000000" stroke-width="0.3" stroke-miterlimit="10" d="M722.436,544.073
			c-0.482-1.031-0.626-2.822,0.006-3.786c0.936-1.426,2.256-0.56,1.38,0.774"/>
	</g>
	<path d="M651.696,558.852c5.661,2.327,4.762,11.615,0.304,14.771C651.728,569.733,649.703,559.539,651.696,558.852L651.696,558.852
		z"/>
	<path d="M665.597,554.104c0.87,4.944,14.778-7.295,7.241-13.402c-4.654-3.771-7.241-9.153-13.096-7.501
		c-4.101,2.548-11.039,7.128-7.148,11.972C655.876,549.258,667.89,542.091,665.597,554.104L665.597,554.104z"/>
	<path d="M671.747,563.282c-0.855-4.216-6.565-5.233-7.623-0.812C666.669,562.705,669.21,562.976,671.747,563.282L671.747,563.282z"
		/>
	<path d="M679.25,535.058c10.634,1.49,9.685-0.718,7.273-6.494c-1.29-3.09-12.965-4.974-15.853-4.387
		c1.028,4.098,1.812,10.218,5.905,11.279C676.576,535.456,678.581,534.964,679.25,535.058z"/>
	<path d="M658.217,584.363c-1.351,0.081-2.702,0.163-4.053,0.244c-0.521,0.031-0.938-0.075-1.454-0.19
		c-0.503-0.111-0.434-1.201-0.511-1.661c-0.133-0.798,1.937-1.529,2.557-1.893c1.113-0.652,2.227-1.305,3.34-1.957
		C658.136,580.726,658.177,582.544,658.217,584.363L658.217,584.363z"/>
	<path d="M665.236,573.824c-1.586,0.717-3.171,1.434-4.757,2.15c-0.681,0.309-1.212,0.267-1.107,1.032
		c0.117,0.857,1.147,0.771,1.929,0.969c0.252,0.063,3.792,1.413,3.807,0.856C665.15,577.163,665.193,575.493,665.236,573.824
		L665.236,573.824z"/>
	<polygon points="696.016,575.616 701.708,572.03 701.505,576.365 701.467,579.113 698.861,578.269 696.868,578.027 
		696.016,577.408 	"/>
	<path d="M709.551,579.516c-0.353,3.179,0.726,6.864-3.695,6.232C699.479,584.837,707.962,580.383,709.551,579.516L709.551,579.516z
		"/>
	<path d="M712.154,559.876c-4.571,1.679-5.024,7.822-1.462,10.556C711.177,566.913,711.663,563.395,712.154,559.876L712.154,559.876
		z"/>
	<path d="M730.336,531.585c-4.025-1.798-4.233-3.946-5.147-7.515c-0.694-2.711-1.433-6.612,0.595-9.094
		C728.141,517.15,730.563,533.203,730.336,531.585L730.336,531.585z"/>
	<path d="M696.016,551.571c-3.44-7.718-22.007-2.94-18.692,3.053C681.829,562.77,701.481,557.808,696.016,551.571L696.016,551.571z"
		/>
</g>
</svg>
