<svg version="1.1" id="farmbackground" xmlns="http://www.w3.org/2000/svg" xmlns:xlink="http://www.w3.org/1999/xlink" x="0px" y="0px"
	 width="1008px" height="648px" viewBox="0 0 1008 648" enable-background="new 0 0 1008 648" xml:space="preserve">
<g id="Starfield">
	<g>
		<path d="M504-300.719c-345.022,0-624.719,279.696-624.719,624.719c0,345.022,279.697,624.719,624.719,624.719
			c345.022,0,624.719-279.696,624.719-624.719C1128.719-21.023,849.022-300.719,504-300.719z"/>
		<g>
			<path d="M504-304.219c-112.667,0.156-223.942,30.486-320.855,88.003C89.396-160.577,11.03-80.167-42.837,14.541
				c-55.809,98.123-83.565,210.797-81.226,323.553c2.328,112.198,35.43,222.767,94.702,318.005
				c57.607,92.562,139.607,169.267,235.449,221.126c99.521,53.85,213.074,79.219,326.022,74.373
				c111.826-4.797,221.353-40.219,315.073-101.319c91.349-59.554,166.361-143.114,216.189-240.062
				c51.836-100.852,74.81-215.212,67.453-328.265c-7.25-111.419-44.955-219.871-107.855-312.061
				c-61.479-90.106-146.57-163.396-244.594-211.172C693.131-282.83,598.77-304.088,504-304.219c-4.514-0.006-4.514,6.994,0,7
				c113.7,0.157,225.781,31.375,322.964,90.446c94.065,57.177,171.863,139.639,224.217,236.394
				c54.401,100.541,79.224,215.448,73.069,329.469c-6.08,112.638-43.795,222.376-107.323,315.486
				c-62.071,90.974-148.613,164.358-248.056,211.522c-103.71,49.188-220.585,67.765-334.543,55.278
				c-111.463-12.213-218.395-55.795-307.492-123.684C39.024,750.783-30.128,659.99-71.75,557.789
				c-43.397-106.558-55.844-224.856-36.743-338.239C-89.959,109.533-40.941,5.634,31.392-79.215
				c71.659-84.059,165.688-148.146,270.057-184.241c65.063-22.502,133.745-33.668,202.552-33.763
				C508.514-297.226,508.515-304.226,504-304.219z"/>
		</g>
	</g>
	<g>
		<g>
			<path fill="#FFFFFF" d="M299-66.167c4.514,0,4.514-7,0-7S294.486-66.167,299-66.167L299-66.167z"/>
		</g>
	</g>
	<g>
		<g>
			<path fill="#FFFFFF" d="M451,59.167c4.514,0,4.514-7,0-7S446.486,59.167,451,59.167L451,59.167z"/>
		</g>
	</g>
	<g>
		<g>
			<path fill="#FFFFFF" d="M305,205.833c4.514,0,4.514-7,0-7S300.486,205.833,305,205.833L305,205.833z"/>
		</g>
	</g>
	<g>
		<g>
			<path fill="#FFFFFF" d="M760.578-165.885c4.514,0,4.514-7,0-7S756.064-165.885,760.578-165.885L760.578-165.885z"/>
		</g>
	</g>
	<g>
		<g>
			<path fill="#FFFFFF" d="M835.574,107.102c4.514,0,4.514-7,0-7S831.061,107.102,835.574,107.102L835.574,107.102z"/>
		</g>
	</g>
	<g>
		<g>
			<path fill="#FFFFFF" d="M780.076,549.579c4.514,0,4.514-7,0-7S775.562,549.579,780.076,549.579L780.076,549.579z"/>
		</g>
	</g>
	<g>
		<g>
			<path fill="#FFFFFF" d="M382.597,665.073c4.514,0,4.514-7,0-7S378.083,665.073,382.597,665.073L382.597,665.073z"/>
		</g>
	</g>
	<g>
		<g>
			<path fill="#FFFFFF" d="M39.114,308.091c4.514,0,4.514-7,0-7S34.6,308.091,39.114,308.091L39.114,308.091z"/>
		</g>
	</g>
	<g>
		<g>
			<path fill="#FFFFFF" d="M6.115,14.106c4.514,0,4.514-7,0-7S1.601,14.106,6.115,14.106L6.115,14.106z"/>
		</g>
	</g>
	<g>
		<g>
			<path fill="#FFFFFF" d="M148.608,785.067c4.514,0,4.514-7,0-7S144.094,785.067,148.608,785.067L148.608,785.067z"/>
		</g>
	</g>
	<g>
		<g>
			<path fill="#FFFFFF" d="M166.607,633.575c4.514,0,4.514-7,0-7S162.093,633.575,166.607,633.575L166.607,633.575z"/>
		</g>
	</g>
	<g>
		<g>
			<path fill="#FFFFFF" d="M700.58,786.567c4.514,0,4.514-7,0-7S696.066,786.567,700.58,786.567L700.58,786.567z"/>
		</g>
	</g>
	<g>
		<g>
			<path fill="#FFFFFF" d="M459.093,836.064c4.514,0,4.514-7,0-7S454.579,836.064,459.093,836.064L459.093,836.064z"/>
		</g>
	</g>
	<g>
		<g>
			<path fill="#FFFFFF" d="M426.094,405.587c4.514,0,4.514-7,0-7S421.58,405.587,426.094,405.587L426.094,405.587z"/>
		</g>
	</g>
	<g>
		<g>
			<path fill="#FFFFFF" d="M190.606,360.589c4.514,0,4.514-7,0-7S186.092,360.589,190.606,360.589L190.606,360.589z"/>
		</g>
	</g>
	<g>
		<g>
			<path fill="#FFFFFF" d="M1092.061,330.59c4.514,0,4.514-7,0-7S1087.547,330.59,1092.061,330.59L1092.061,330.59z"/>
		</g>
	</g>
	<g>
		<g>
			<path fill="#FFFFFF" d="M954.068,38.105c4.514,0,4.514-7,0-7S949.555,38.105,954.068,38.105L954.068,38.105z"/>
		</g>
	</g>
	<g>
		<g>
			<path fill="#FFFFFF" d="M883.571,378.588c4.514,0,4.514-7,0-7S879.058,378.588,883.571,378.588L883.571,378.588z"/>
		</g>
	</g>
	<g>
		<g>
			<path fill="#FFFFFF" d="M658.583,213.596c4.514,0,4.514-7,0-7S654.069,213.596,658.583,213.596L658.583,213.596z"/>
		</g>
	</g>
	<g>
		<g>
			<path fill="#FFFFFF" d="M648.083-60.89c4.514,0,4.514-7,0-7S643.569-60.89,648.083-60.89L648.083-60.89z"/>
		</g>
	</g>
	<g>
		<g>
			<path fill="#FFFFFF" d="M334.599-206.383c4.514,0,4.514-7,0-7S330.084-206.383,334.599-206.383L334.599-206.383z"/>
		</g>
	</g>
	<g>
		<g>
			<path fill="#FFFFFF" d="M883.571,704.071c4.514,0,4.514-7,0-7S879.058,704.071,883.571,704.071L883.571,704.071z"/>
		</g>
	</g>
	<g>
		<g>
			<path fill="#FFFFFF" d="M573.087,705.571c4.514,0,4.514-7,0-7S568.573,705.571,573.087,705.571L573.087,705.571z"/>
		</g>
	</g>
	<g>
		<g>
			<path fill="#FFFFFF" d="M528.089,804.566c4.514,0,4.514-7,0-7S523.575,804.566,528.089,804.566L528.089,804.566z"/>
		</g>
	</g>
	<g>
		<g>
			<path fill="#FFFFFF" d="M127.609,52.604c1.935,0,1.935-3,0-3S125.675,52.604,127.609,52.604L127.609,52.604z"/>
		</g>
	</g>
	<g>
		<g>
			<path fill="#FFFFFF" d="M220.604-58.391c1.935,0,1.935-3,0-3S218.67-58.391,220.604-58.391L220.604-58.391z"/>
		</g>
	</g>
	<g>
		<g>
			<path fill="#FFFFFF" d="M540.089-43.391c1.935,0,1.935-3,0-3S538.154-43.391,540.089-43.391L540.089-43.391z"/>
		</g>
	</g>
	<g>
		<g>
			<path fill="#FFFFFF" d="M562.588-179.884c1.935,0,1.935-3,0-3S560.653-179.884,562.588-179.884L562.588-179.884z"/>
		</g>
	</g>
	<g>
		<g>
			<path fill="#FFFFFF" d="M661.582,493.582c1.935,0,1.935-3,0-3S659.647,493.582,661.582,493.582L661.582,493.582z"/>
		</g>
	</g>
	<g>
		<g>
			<path fill="#FFFFFF" d="M771.077,417.086c1.935,0,1.935-3,0-3S769.143,417.086,771.077,417.086L771.077,417.086z"/>
		</g>
	</g>
	<g>
		<g>
			<path fill="#FFFFFF" d="M889.571,243.095c1.935,0,1.935-3,0-3S887.637,243.095,889.571,243.095L889.571,243.095z"/>
		</g>
	</g>
	<g>
		<g>
			<path fill="#FFFFFF" d="M967.567,393.087c1.935,0,1.935-3,0-3S965.633,393.087,967.567,393.087L967.567,393.087z"/>
		</g>
	</g>
	<g>
		<g>
			<path fill="#FFFFFF" d="M258.103,732.07c1.935,0,1.935-3,0-3S256.168,732.07,258.103,732.07L258.103,732.07z"/>
		</g>
	</g>
	<g>
		<g>
			<path fill="#FFFFFF" d="M61.612,535.58c1.935,0,1.935-3,0-3S59.678,535.58,61.612,535.58L61.612,535.58z"/>
		</g>
	</g>
	<g>
		<g>
			<path fill="#FFFFFF" d="M61.612,478.583c1.935,0,1.935-3,0-3S59.678,478.583,61.612,478.583L61.612,478.583z"/>
		</g>
	</g>
	<g>
		<g>
			<path fill="#FFFFFF" d="M-47.882,391.587c1.935,0,1.935-3,0-3S-49.816,391.587-47.882,391.587L-47.882,391.587z"/>
		</g>
	</g>
	<g>
		<g>
			<path fill="#FFFFFF" d="M-31.383,238.595c1.935,0,1.935-3,0-3S-33.317,238.595-31.383,238.595L-31.383,238.595z"/>
		</g>
	</g>
	<g>
		<g>
			<path fill="#FFFFFF" d="M201.105,592.577c1.935,0,1.935-3,0-3S199.171,592.577,201.105,592.577L201.105,592.577z"/>
		</g>
	</g>
	<g>
		<g>
			<path fill="#FFFFFF" d="M573.087,817.565c1.935,0,1.935-3,0-3S571.152,817.565,573.087,817.565L573.087,817.565z"/>
		</g>
	</g>
	<g>
		<g>
			<path fill="#FFFFFF" d="M445.593,682.572c1.935,0,1.935-3,0-3S443.659,682.572,445.593,682.572L445.593,682.572z"/>
		</g>
	</g>
	<g>
		<g>
			<path fill="#FFFFFF" d="M555.088,445.584c1.935,0,1.935-3,0-3S553.153,445.584,555.088,445.584L555.088,445.584z"/>
		</g>
	</g>
	<g>
		<g>
			<path fill="#FFFFFF" d="M339.099,417.086c1.935,0,1.935-3,0-3S337.164,417.086,339.099,417.086L339.099,417.086z"/>
		</g>
	</g>
	<g>
		<g>
			<path fill="#FFFFFF" d="M427.594,226.595c1.935,0,1.935-3,0-3S425.66,226.595,427.594,226.595L427.594,226.595z"/>
		</g>
	</g>
	<g>
		<g>
			<path fill="#FFFFFF" d="M532.589,343.59c1.935,0,1.935-3,0-3S530.654,343.59,532.589,343.59L532.589,343.59z"/>
		</g>
	</g>
	<g>
		<g>
			<path fill="#FFFFFF" d="M634.584,13.606c1.935,0,1.935-3,0-3S632.649,13.606,634.584,13.606L634.584,13.606z"/>
		</g>
	</g>
	<g>
		<g>
			<path fill="#FFFFFF" d="M559.588,168.098c1.935,0,1.935-3,0-3S557.653,168.098,559.588,168.098L559.588,168.098z"/>
		</g>
	</g>
	<g>
		<g>
			<path fill="#FFFFFF" d="M520.59,117.101c1.935,0,1.935-3,0-3S518.655,117.101,520.59,117.101L520.59,117.101z"/>
		</g>
	</g>
	<g>
		<g>
			<path fill="#FFFFFF" d="M247.603,40.604c1.935,0,1.935-3,0-3S245.668,40.604,247.603,40.604L247.603,40.604z"/>
		</g>
	</g>
	<g>
		<g>
			<path fill="#FFFFFF" d="M166.607,207.096c1.935,0,1.935-3,0-3S164.673,207.096,166.607,207.096L166.607,207.096z"/>
		</g>
	</g>
	<g>
		<g>
			<path fill="#FFFFFF" d="M784.576-1.393c1.935,0,1.935-3,0-3S782.642-1.393,784.576-1.393L784.576-1.393z"/>
		</g>
	</g>
	<g>
		<g>
			<path fill="#FFFFFF" d="M822.074,273.093c1.935,0,1.935-3,0-3S820.14,273.093,822.074,273.093L822.074,273.093z"/>
		</g>
	</g>
	<g>
		<g>
			<path fill="#FFFFFF" d="M742.578,148.599c1.935,0,1.935-3,0-3S740.644,148.599,742.578,148.599L742.578,148.599z"/>
		</g>
	</g>
	<g>
		<g>
			<path fill="#FFFFFF" d="M399.096,258.094c1.935,0,1.935-3,0-3S397.161,258.094,399.096,258.094L399.096,258.094z"/>
		</g>
	</g>
	<g>
		<g>
			<path fill="#FFFFFF" d="M636.084,309.091c1.935,0,1.935-3,0-3S634.149,309.091,636.084,309.091L636.084,309.091z"/>
		</g>
	</g>
	<g>
		<g>
			<path fill="#FFFFFF" d="M427.594-43.391c1.935,0,1.935-3,0-3S425.66-43.391,427.594-43.391L427.594-43.391z"/>
		</g>
	</g>
	<g>
		<g>
			<path fill="#FFFFFF" d="M178.606-16.393c1.935,0,1.935-3,0-3S176.672-16.393,178.606-16.393L178.606-16.393z"/>
		</g>
	</g>
	<g>
		<g>
			<path fill="#FFFFFF" d="M280.602,539.08c4.514,0,4.514-7,0-7S276.088,539.08,280.602,539.08L280.602,539.08z"/>
		</g>
	</g>
	<g>
		<g>
			<path fill="#FFFFFF" d="M633.084,602.076c4.514,0,4.514-7,0-7S628.57,602.076,633.084,602.076L633.084,602.076z"/>
		</g>
	</g>
	<g>
		<g>
			<path fill="#FFFFFF" d="M328.6,786.567c4.514,0,4.514-7,0-7S324.085,786.567,328.6,786.567L328.6,786.567z"/>
		</g>
	</g>
	<g>
		<g>
			<path fill="#FFFFFF" d="M460.593-135.887c4.514,0,4.514-7,0-7S456.079-135.887,460.593-135.887L460.593-135.887z"/>
		</g>
	</g>
	<g>
		<g>
			<path fill="#FFFFFF" d="M193.606-129.887c4.514,0,4.514-7,0-7S189.092-129.887,193.606-129.887L193.606-129.887z"/>
		</g>
	</g>
	<g>
		<g>
			<path fill="#FFFFFF" d="M484.592,165.598c4.514,0,4.514-7,0-7S480.078,165.598,484.592,165.598L484.592,165.598z"/>
		</g>
	</g>
	<g>
		<g>
			<path fill="#FFFFFF" d="M351.098,15.606c4.514,0,4.514-7,0-7S346.584,15.606,351.098,15.606L351.098,15.606z"/>
		</g>
	</g>
	<g>
		<g>
			<path fill="#FFFFFF" d="M292.601,308.091c4.514,0,4.514-7,0-7S288.087,308.091,292.601,308.091L292.601,308.091z"/>
		</g>
	</g>
	<g>
		<g>
			<path fill="#FFFFFF" d="M130.609,294.592c4.514,0,4.514-7,0-7S126.095,294.592,130.609,294.592L130.609,294.592z"/>
		</g>
	</g>
	<g>
		<g>
			<path fill="#FFFFFF" d="M697.581,78.603c4.514,0,4.514-7,0-7S693.067,78.603,697.581,78.603L697.581,78.603z"/>
		</g>
	</g>
	<g>
		<g>
			<path fill="#FFFFFF" d="M840.074-96.889c4.514,0,4.514-7,0-7S835.561-96.889,840.074-96.889L840.074-96.889z"/>
		</g>
	</g>
	<g>
		<g>
			<path fill="#FFFFFF" d="M1063.562,338.09c4.514,0,4.514-7,0-7S1059.049,338.09,1063.562,338.09L1063.562,338.09z"/>
		</g>
	</g>
	<g>
		<g>
			<path fill="#FFFFFF" d="M946.568,545.079c4.514,0,4.514-7,0-7S942.055,545.079,946.568,545.079L946.568,545.079z"/>
		</g>
	</g>
	<g>
		<g>
			<path fill="#FFFFFF" d="M798.076,684.572c4.514,0,4.514-7,0-7S793.562,684.572,798.076,684.572L798.076,684.572z"/>
		</g>
	</g>
	<g>
		<g>
			<path fill="#FFFFFF" d="M777.077,792.567c4.514,0,4.514-7,0-7S772.563,792.567,777.077,792.567L777.077,792.567z"/>
		</g>
	</g>
	<g>
		<g>
			<path fill="#FFFFFF" d="M538.589,914.061c4.514,0,4.514-7,0-7S534.075,914.061,538.589,914.061L538.589,914.061z"/>
		</g>
	</g>
	<g>
		<g>
			<path fill="#FFFFFF" d="M312.1,870.563c4.514,0,4.514-7,0-7S307.586,870.563,312.1,870.563L312.1,870.563z"/>
		</g>
	</g>
	<g>
		<g>
			<path fill="#FFFFFF" d="M96.111,678.572c4.514,0,4.514-7,0-7S91.597,678.572,96.111,678.572L96.111,678.572z"/>
		</g>
	</g>
	<g>
		<g>
			<path fill="#FFFFFF" d="M-61.381,521.08c4.514,0,4.514-7,0-7S-65.895,521.08-61.381,521.08L-61.381,521.08z"/>
		</g>
	</g>
	<g>
		<g>
			<path fill="#FFFFFF" d="M630.084,563.078c4.514,0,4.514-7,0-7S625.57,563.078,630.084,563.078L630.084,563.078z"/>
		</g>
	</g>
	<g>
		<g>
			<path fill="#FFFFFF" d="M435.094,539.08c4.514,0,4.514-7,0-7S430.58,539.08,435.094,539.08L435.094,539.08z"/>
		</g>
	</g>
	<g>
		<g>
			<path fill="#FFFFFF" d="M184.606,435.585c4.514,0,4.514-7,0-7S180.092,435.585,184.606,435.585L184.606,435.585z"/>
		</g>
	</g>
	<g>
		<g>
			<path fill="#FFFFFF" d="M550.588,245.094c4.514,0,4.514-7,0-7S546.074,245.094,550.588,245.094L550.588,245.094z"/>
		</g>
	</g>
	<g>
		<g>
			<path fill="#FFFFFF" d="M117.11-56.391c4.514,0,4.514-7,0-7S112.596-56.391,117.11-56.391L117.11-56.391z"/>
		</g>
	</g>
	<g>
		<g>
			<path fill="#FFFFFF" d="M-20.883,188.097c4.514,0,4.514-7,0-7S-25.397,188.097-20.883,188.097L-20.883,188.097z"/>
		</g>
	</g>
	<g>
		<g>
			<path fill="#FFFFFF" d="M514.59-207.883c4.514,0,4.514-7,0-7S510.076-207.883,514.59-207.883L514.59-207.883z"/>
		</g>
	</g>
	<g>
		<g>
			<path fill="#FFFFFF" d="M594.086,45.104c1.935,0,1.935-3,0-3S592.151,45.104,594.086,45.104L594.086,45.104z"/>
		</g>
	</g>
	<g>
		<g>
			<path fill="#FFFFFF" d="M606.086-104.888c1.935,0,1.935-3,0-3S604.151-104.888,606.086-104.888L606.086-104.888z"/>
		</g>
	</g>
	<g>
		<g>
			<path fill="#FFFFFF" d="M802.576-107.888c1.935,0,1.935-3,0-3S800.642-107.888,802.576-107.888L802.576-107.888z"/>
		</g>
	</g>
	<g>
		<g>
			<path fill="#FFFFFF" d="M570.088-260.88c1.935,0,1.935-3,0-3S568.153-260.88,570.088-260.88L570.088-260.88z"/>
		</g>
	</g>
	<g>
		<g>
			<path fill="#FFFFFF" d="M310.601,640.574c1.935,0,1.935-3,0-3S308.666,640.574,310.601,640.574L310.601,640.574z"/>
		</g>
	</g>
	<g>
		<g>
			<path fill="#FFFFFF" d="M103.611,670.573c1.935,0,1.935-3,0-3S101.676,670.573,103.611,670.573L103.611,670.573z"/>
		</g>
	</g>
	<g>
		<g>
			<path fill="#FFFFFF" d="M58.613,550.579c1.935,0,1.935-3,0-3S56.678,550.579,58.613,550.579L58.613,550.579z"/>
		</g>
	</g>
	<g>
		<g>
			<path fill="#FFFFFF" d="M232.604,471.083c1.935,0,1.935-3,0-3S230.67,471.083,232.604,471.083L232.604,471.083z"/>
		</g>
	</g>
	<g>
		<g>
			<path fill="#FFFFFF" d="M10.615,591.077c1.935,0,1.935-3,0-3S8.681,591.077,10.615,591.077L10.615,591.077z"/>
		</g>
	</g>
	<g>
		<g>
			<path fill="#FFFFFF" d="M607.586,714.07c1.935,0,1.935-3,0-3S605.651,714.07,607.586,714.07L607.586,714.07z"/>
		</g>
	</g>
	<g>
		<g>
			<path fill="#FFFFFF" d="M471.092,537.08c1.935,0,1.935-3,0-3S469.158,537.08,471.092,537.08L471.092,537.08z"/>
		</g>
	</g>
	<g>
		<g>
			<path fill="#FFFFFF" d="M534.089,586.577c1.935,0,1.935-3,0-3S532.154,586.577,534.089,586.577L534.089,586.577z"/>
		</g>
	</g>
	<g>
		<g>
			<path fill="#FFFFFF" d="M825.074,466.583c1.935,0,1.935-3,0-3S823.14,466.583,825.074,466.583L825.074,466.583z"/>
		</g>
	</g>
	<g>
		<g>
			<path fill="#FFFFFF" d="M1018.564,225.095c1.935,0,1.935-3,0-3S1016.63,225.095,1018.564,225.095L1018.564,225.095z"/>
		</g>
	</g>
	<g>
		<g>
			<path fill="#FFFFFF" d="M1003.565,22.605c1.935,0,1.935-3,0-3S1001.631,22.605,1003.565,22.605L1003.565,22.605z"/>
		</g>
	</g>
	<g>
		<g>
			<path fill="#FFFFFF" d="M115.61,384.087c1.935,0,1.935-3,0-3S113.676,384.087,115.61,384.087L115.61,384.087z"/>
		</g>
	</g>
	<g>
		<g>
			<path fill="#FFFFFF" d="M937.569,735.07c1.935,0,1.935-3,0-3S935.635,735.07,937.569,735.07L937.569,735.07z"/>
		</g>
	</g>
	<g>
		<g>
			<path fill="#FFFFFF" d="M609.086,366.088c1.935,0,1.935-3,0-3S607.151,366.088,609.086,366.088L609.086,366.088z"/>
		</g>
	</g>
	<g>
		<g>
			<path fill="#FFFFFF" d="M814.575,352.589c1.935,0,1.935-3,0-3S812.641,352.589,814.575,352.589L814.575,352.589z"/>
		</g>
	</g>
	<g>
		<g>
			<path fill="#FFFFFF" d="M727.579,301.591c1.935,0,1.935-3,0-3S725.645,301.591,727.579,301.591L727.579,301.591z"/>
		</g>
	</g>
	<g>
		<g>
			<path fill="#FFFFFF" d="M781.577,705.071c1.935,0,1.935-3,0-3S779.643,705.071,781.577,705.071L781.577,705.071z"/>
		</g>
	</g>
	<g>
		<g>
			<path fill="#FFFFFF" d="M964.567,600.076c1.935,0,1.935-3,0-3S962.633,600.076,964.567,600.076L964.567,600.076z"/>
		</g>
	</g>
	<g>
		<g>
			<path fill="#FFFFFF" d="M1002.065,478.583c1.935,0,1.935-3,0-3S1000.131,478.583,1002.065,478.583L1002.065,478.583z"/>
		</g>
	</g>
	<g>
		<g>
			<path fill="#FFFFFF" d="M588.086,886.562c1.935,0,1.935-3,0-3S586.151,886.562,588.086,886.562L588.086,886.562z"/>
		</g>
	</g>
	<g>
		<g>
			<path fill="#FFFFFF" d="M393.096,909.061c1.935,0,1.935-3,0-3S391.162,909.061,393.096,909.061L393.096,909.061z"/>
		</g>
	</g>
	<g>
		<g>
			<path fill="#FFFFFF" d="M403.596-131.887c1.935,0,1.935-3,0-3S401.661-131.887,403.596-131.887L403.596-131.887z"/>
		</g>
	</g>
	<g>
		<g>
			<path fill="#FFFFFF" d="M232.604-155.886c1.935,0,1.935-3,0-3S230.67-155.886,232.604-155.886L232.604-155.886z"/>
		</g>
	</g>
	<g>
		<g>
			<path fill="#FFFFFF" d="M313.6-125.887c1.935,0,1.935-3,0-3S311.666-125.887,313.6-125.887L313.6-125.887z"/>
		</g>
	</g>
	<g>
		<g>
			<path fill="#FFFFFF" d="M-40.382,346.589c1.935,0,1.935-3,0-3S-42.317,346.589-40.382,346.589L-40.382,346.589z"/>
		</g>
	</g>
	<g>
		<g>
			<path fill="#FFFFFF" d="M-43.382,268.593c1.935,0,1.935-3,0-3S-45.316,268.593-43.382,268.593L-43.382,268.593z"/>
		</g>
	</g>
	<g>
		<g>
			<path fill="#FFFFFF" d="M1018.564,97.602c1.935,0,1.935-3,0-3S1016.63,97.602,1018.564,97.602L1018.564,97.602z"/>
		</g>
	</g>
	<g>
		<g>
			<path fill="#FFFFFF" d="M952.568,147.099c1.935,0,1.935-3,0-3S950.634,147.099,952.568,147.099L952.568,147.099z"/>
		</g>
	</g>
	<g>
		<g>
			<path fill="#FFFFFF" d="M880.572-4.393c1.935,0,1.935-3,0-3S878.638-4.393,880.572-4.393L880.572-4.393z"/>
		</g>
	</g>
	<g>
		<g>
			<path fill="#FFFFFF" d="M36.114,51.104c1.935,0,1.935-3,0-3S34.18,51.104,36.114,51.104L36.114,51.104z"/>
		</g>
	</g>
	<g>
		<g>
			<path fill="#FFFFFF" d="M-17.883,96.102c1.935,0,1.935-3,0-3S-19.818,96.102-17.883,96.102L-17.883,96.102z"/>
		</g>
	</g>
	<g>
		<g>
			<path fill="#FFFFFF" d="M160.608,112.601c1.935,0,1.935-3,0-3S158.673,112.601,160.608,112.601L160.608,112.601z"/>
		</g>
	</g>
	<g>
		<g>
			<path fill="#FFFFFF" d="M64.613,187.597c1.935,0,1.935-3,0-3S62.678,187.597,64.613,187.597L64.613,187.597z"/>
		</g>
	</g>
	<g>
		<g>
			<path fill="#FFFFFF" d="M294.101,114.101c1.935,0,1.935-3,0-3S292.167,114.101,294.101,114.101L294.101,114.101z"/>
		</g>
	</g>
	<g>
		<g>
			<path fill="#FFFFFF" d="M441.094,99.102c1.935,0,1.935-3,0-3S439.159,99.102,441.094,99.102L441.094,99.102z"/>
		</g>
	</g>
	<g>
		<g>
			<path fill="#FFFFFF" d="M358.598,165.098c1.935,0,1.935-3,0-3S356.663,165.098,358.598,165.098L358.598,165.098z"/>
		</g>
	</g>
	<g>
		<g>
			<path fill="#FFFFFF" d="M805.575,216.096c1.935,0,1.935-3,0-3S803.641,216.096,805.575,216.096L805.575,216.096z"/>
		</g>
	</g>
	<g>
		<g>
			<path fill="#FFFFFF" d="M648.084,106.601c1.935,0,1.935-3,0-3S646.149,106.601,648.084,106.601L648.084,106.601z"/>
		</g>
	</g>
	<g>
		<g>
			<path fill="#FFFFFF" d="M711.08-80.89c1.935,0,1.935-3,0-3S709.146-80.89,711.08-80.89L711.08-80.89z"/>
		</g>
	</g>
	<g>
		<g>
			<path fill="#FFFFFF" d="M676.582-184.384c1.935,0,1.935-3,0-3S674.647-184.384,676.582-184.384L676.582-184.384z"/>
		</g>
	</g>
	<g>
		<g>
			<path fill="#FFFFFF" d="M447.094,331.59c1.935,0,1.935-3,0-3S445.159,331.59,447.094,331.59L447.094,331.59z"/>
		</g>
	</g>
	<g>
		<g>
			<path fill="#FFFFFF" d="M252.104,222.095c1.935,0,1.935-3,0-3S250.169,222.095,252.104,222.095L252.104,222.095z"/>
		</g>
	</g>
	<g>
		<g>
			<path fill="#FFFFFF" d="M859.573,480.082c1.935,0,1.935-3,0-3S857.639,480.082,859.573,480.082L859.573,480.082z"/>
		</g>
	</g>
	<g>
		<g>
			<path fill="#FFFFFF" d="M867.072,687.072c1.935,0,1.935-3,0-3S865.138,687.072,867.072,687.072L867.072,687.072z"/>
		</g>
	</g>
	<g>
		<g>
			<path fill="#FFFFFF" d="M696.081,631.575c1.935,0,1.935-3,0-3S694.146,631.575,696.081,631.575L696.081,631.575z"/>
		</g>
	</g>
	<g>
		<g>
			<path fill="#FFFFFF" d="M151.608,543.079c1.935,0,1.935-3,0-3S149.674,543.079,151.608,543.079L151.608,543.079z"/>
		</g>
	</g>
</g>
<g id="Layer_1_1_">
	<g id="Sky">
		
			<linearGradient id="Sky_2_" gradientUnits="userSpaceOnUse" x1="-36.0005" y1="797.6807" x2="-36.0005" y2="359.5503" gradientTransform="matrix(-1 0 0 -1 468 741)">
			<stop  offset="0" style="stop-color:#89C8D8"/>
			<stop  offset="0.1436" style="stop-color:#93CCDB"/>
			<stop  offset="0.4091" style="stop-color:#ADD8E3"/>
			<stop  offset="0.7644" style="stop-color:#DAEDF1"/>
			<stop  offset="1" style="stop-color:#FFFFFF"/>
		</linearGradient>
		<rect id="Sky_1_" fill="url(#Sky_2_)" width="1008" height="648"/>
	</g>
	<g id="Sun">
		<g>
			<path id="Sun_Outside" fill="#E4AF33" d="M470.079,247.714c30.513-3.067,43.531-16.08,46.593-46.594
				c28.076,12.271,46.204,7.043,65.553-17.753c19.35,24.795,37.478,30.024,65.553,17.752c3.068,30.514,16.08,43.528,46.595,46.594
				c-12.271,28.076-7.043,46.204,17.753,65.553c-24.795,19.354-30.023,37.48-17.752,65.557
				c-30.514,3.066-43.528,16.08-46.596,46.596c-28.072-12.271-46.198-7.045-65.552,17.752
				c-19.349-24.797-37.476-30.025-65.553-17.754c-3.064-30.513-16.079-43.532-46.594-46.594
				c12.268-28.077,7.044-46.203-17.753-65.557C477.123,293.917,482.352,275.789,470.079,247.714z"/>
			
				<radialGradient id="Sun_Inside_1_" cx="-97.0757" cy="423.7754" r="143.4417" fx="-107.4859" fy="420.003" gradientTransform="matrix(-1 0 0 -1 468 741)" gradientUnits="userSpaceOnUse">
				<stop  offset="0" style="stop-color:#F6D95F"/>
				<stop  offset="0.3187" style="stop-color:#F1CE53"/>
				<stop  offset="0.9061" style="stop-color:#E6B437"/>
				<stop  offset="1" style="stop-color:#E4AF33"/>
			</radialGradient>
			<circle id="Sun_Inside" fill="url(#Sun_Inside_1_)" cx="582.226" cy="313.266" r="97.631"/>
		</g>
	</g>
	<g id="Right_Mountain_1_">
		
			<linearGradient id="Right_Mountain_2_" gradientUnits="userSpaceOnUse" x1="-35.189" y1="336.9844" x2="-35.189" y2="401.3959" gradientTransform="matrix(-1 0 0 -1 468 741)">
			<stop  offset="0" style="stop-color:#3B9752"/>
			<stop  offset="0.4401" style="stop-color:#6DAA51"/>
			<stop  offset="0.8101" style="stop-color:#8EBB4F"/>
			<stop  offset="1" style="stop-color:#9AC34F"/>
		</linearGradient>
		<path id="Right_Mountain" fill="url(#Right_Mountain_2_)" d="M697.895,364.71c144.826,5.364,280.201,1.731,280.201,1.731
			L1006.378,648H1.252L0,347.93c0,0,72.227-31.092,271.006-23.047"/>
	</g>
	<g id="Trees_Behind_Front_Mountain">
		<g id="Tree_1_1_">
			<g>
				
					<linearGradient id="SVGID_1_" gradientUnits="userSpaceOnUse" x1="164.0854" y1="384.2227" x2="164.0854" y2="337.3673" gradientTransform="matrix(-1 0 0 -1 468 741)">
					<stop  offset="0" style="stop-color:#225633"/>
					<stop  offset="0.1992" style="stop-color:#255E38"/>
					<stop  offset="0.5674" style="stop-color:#2D7543"/>
					<stop  offset="1" style="stop-color:#339853"/>
				</linearGradient>
				<path fill="url(#SVGID_1_)" d="M296.114,357.3c4.25-6.683,11.215-6.689,15.479-0.015l21.849,34.207
					c4.264,6.675,1.271,12.136-6.648,12.136h-45.744c-7.92,0-10.923-5.463-6.672-12.15L296.114,357.3z"/>
			</g>
			<g>
				
					<linearGradient id="SVGID_2_" gradientUnits="userSpaceOnUse" x1="163.9873" y1="404.5723" x2="163.9873" y2="363.2779" gradientTransform="matrix(-1 0 0 -1 468 741)">
					<stop  offset="0" style="stop-color:#225633"/>
					<stop  offset="0.1992" style="stop-color:#255E38"/>
					<stop  offset="0.5674" style="stop-color:#2D7543"/>
					<stop  offset="1" style="stop-color:#339853"/>
				</linearGradient>
				<path fill="url(#SVGID_2_)" d="M296.231,342.714c4.25-6.682,11.216-6.688,15.479-0.014l14.821,23.208
					c4.264,6.675,1.271,12.136-6.649,12.136h-31.726c-7.92,0-10.925-5.463-6.672-12.15L296.231,342.714z"/>
			</g>
			<g>
				
					<linearGradient id="SVGID_3_" gradientUnits="userSpaceOnUse" x1="163.9873" y1="413.4062" x2="163.9873" y2="386.3412" gradientTransform="matrix(-1 0 0 -1 468 741)">
					<stop  offset="0" style="stop-color:#225633"/>
					<stop  offset="0.1992" style="stop-color:#255E38"/>
					<stop  offset="0.5674" style="stop-color:#2D7543"/>
					<stop  offset="1" style="stop-color:#339853"/>
				</linearGradient>
				<path fill="url(#SVGID_3_)" d="M296.241,330.256c4.25-6.682,11.215-6.688,15.479-0.015l7.839,12.271
					c4.268,6.679,1.274,12.14-6.646,12.14h-17.788c-7.92,0-10.923-5.468-6.672-12.149L296.241,330.256z"/>
			</g>
			<g>
				
					<linearGradient id="SVGID_4_" gradientUnits="userSpaceOnUse" x1="163.9878" y1="439.6152" x2="163.9878" y2="408.7245" gradientTransform="matrix(-1 0 0 -1 468 741)">
					<stop  offset="0" style="stop-color:#225633"/>
					<stop  offset="0.1992" style="stop-color:#255E38"/>
					<stop  offset="0.5674" style="stop-color:#2D7543"/>
					<stop  offset="1" style="stop-color:#339853"/>
				</linearGradient>
				<path fill="url(#SVGID_4_)" d="M296.256,319.88c4.25-6.682,11.212-6.688,15.479-0.014l0.464,0.726
					c4.263,6.674,1.271,12.134-6.649,12.134h-3.062c-7.922,0-10.925-5.464-6.674-12.146L296.256,319.88z"/>
			</g>
		</g>
		<g id="Tree_1">
			<g>
				
					<linearGradient id="SVGID_5_" gradientUnits="userSpaceOnUse" x1="117.1289" y1="408.0957" x2="117.1289" y2="334.3996" gradientTransform="matrix(-1 0 0 -1 468 741)">
					<stop  offset="0" style="stop-color:#225633"/>
					<stop  offset="0.1992" style="stop-color:#255E38"/>
					<stop  offset="0.5674" style="stop-color:#2D7543"/>
					<stop  offset="1" style="stop-color:#339853"/>
				</linearGradient>
				<path fill="url(#SVGID_5_)" d="M343.033,330.855c4.25-6.688,11.216-6.694,15.479-0.02l40.629,63.617
					c4.267,6.675,1.274,12.136-6.646,12.136H309.26c-7.92,0-10.922-5.463-6.672-12.146L343.033,330.855z"/>
			</g>
			<g>
				
					<linearGradient id="SVGID_6_" gradientUnits="userSpaceOnUse" x1="116.9819" y1="439.1055" x2="116.9819" y2="373.3692" gradientTransform="matrix(-1 0 0 -1 468 741)">
					<stop  offset="0" style="stop-color:#225633"/>
					<stop  offset="0.1992" style="stop-color:#255E38"/>
					<stop  offset="0.5674" style="stop-color:#2D7543"/>
					<stop  offset="1" style="stop-color:#339853"/>
				</linearGradient>
				<path fill="url(#SVGID_6_)" d="M343.206,308.929c4.25-6.683,11.214-6.689,15.479-0.015l30.07,47.088
					c4.265,6.675,1.275,12.136-6.646,12.136h-62.166c-7.921,0-10.925-5.463-6.671-12.146L343.206,308.929z"/>
			</g>
			<g>
				
					<linearGradient id="SVGID_7_" gradientUnits="userSpaceOnUse" x1="116.981" y1="451.9844" x2="116.981" y2="408.0013" gradientTransform="matrix(-1 0 0 -1 468 741)">
					<stop  offset="0" style="stop-color:#225633"/>
					<stop  offset="0.1992" style="stop-color:#255E38"/>
					<stop  offset="0.5674" style="stop-color:#2D7543"/>
					<stop  offset="1" style="stop-color:#339853"/>
				</linearGradient>
				<path fill="url(#SVGID_7_)" d="M343.226,290.204c4.25-6.683,11.218-6.69,15.479-0.015l19.578,30.656
					c4.264,6.681,1.271,12.142-6.648,12.142h-41.22c-7.92,0-10.922-5.468-6.671-12.15L343.226,290.204z"/>
			</g>
			<g>
				
					<linearGradient id="SVGID_8_" gradientUnits="userSpaceOnUse" x1="116.979" y1="494.3691" x2="116.979" y2="441.7379" gradientTransform="matrix(-1 0 0 -1 468 741)">
					<stop  offset="0" style="stop-color:#225633"/>
					<stop  offset="0.1992" style="stop-color:#255E38"/>
					<stop  offset="0.5674" style="stop-color:#2D7543"/>
					<stop  offset="1" style="stop-color:#339853"/>
				</linearGradient>
				<path fill="url(#SVGID_8_)" d="M343.251,274.613c4.25-6.683,11.215-6.69,15.479-0.014l8.491,13.299
					c4.266,6.675,1.274,12.136-6.646,12.136h-19.098c-7.92,0-10.922-5.467-6.672-12.15L343.251,274.613z"/>
			</g>
		</g>
		<g id="Tree_1_3_">
			<g>
				
					<linearGradient id="SVGID_9_" gradientUnits="userSpaceOnUse" x1="117.1289" y1="408.0957" x2="117.1289" y2="334.3996" gradientTransform="matrix(-1 0 0 -1 468 741)">
					<stop  offset="0" style="stop-color:#225633"/>
					<stop  offset="0.1992" style="stop-color:#255E38"/>
					<stop  offset="0.5674" style="stop-color:#2D7543"/>
					<stop  offset="1" style="stop-color:#339853"/>
				</linearGradient>
				<path fill="url(#SVGID_9_)" d="M343.033,330.855c4.25-6.688,11.216-6.694,15.479-0.02l40.629,63.617
					c4.267,6.675,1.274,12.136-6.646,12.136H309.26c-7.92,0-10.922-5.463-6.672-12.146L343.033,330.855z"/>
			</g>
			<g>
				
					<linearGradient id="SVGID_10_" gradientUnits="userSpaceOnUse" x1="116.9819" y1="439.1055" x2="116.9819" y2="373.3692" gradientTransform="matrix(-1 0 0 -1 468 741)">
					<stop  offset="0" style="stop-color:#225633"/>
					<stop  offset="0.1992" style="stop-color:#255E38"/>
					<stop  offset="0.5674" style="stop-color:#2D7543"/>
					<stop  offset="1" style="stop-color:#339853"/>
				</linearGradient>
				<path fill="url(#SVGID_10_)" d="M343.206,308.929c4.25-6.683,11.214-6.689,15.479-0.015l30.07,47.088
					c4.265,6.675,1.275,12.136-6.646,12.136h-62.166c-7.921,0-10.925-5.463-6.671-12.146L343.206,308.929z"/>
			</g>
			<g>
				
					<linearGradient id="SVGID_11_" gradientUnits="userSpaceOnUse" x1="116.981" y1="451.9844" x2="116.981" y2="408.0013" gradientTransform="matrix(-1 0 0 -1 468 741)">
					<stop  offset="0" style="stop-color:#225633"/>
					<stop  offset="0.1992" style="stop-color:#255E38"/>
					<stop  offset="0.5674" style="stop-color:#2D7543"/>
					<stop  offset="1" style="stop-color:#339853"/>
				</linearGradient>
				<path fill="url(#SVGID_11_)" d="M343.226,290.204c4.25-6.683,11.218-6.69,15.479-0.015l19.578,30.656
					c4.264,6.681,1.271,12.142-6.648,12.142h-41.22c-7.92,0-10.922-5.468-6.671-12.15L343.226,290.204z"/>
			</g>
			<g>
				
					<linearGradient id="SVGID_12_" gradientUnits="userSpaceOnUse" x1="116.979" y1="494.3691" x2="116.979" y2="441.7379" gradientTransform="matrix(-1 0 0 -1 468 741)">
					<stop  offset="0" style="stop-color:#225633"/>
					<stop  offset="0.1992" style="stop-color:#255E38"/>
					<stop  offset="0.5674" style="stop-color:#2D7543"/>
					<stop  offset="1" style="stop-color:#339853"/>
				</linearGradient>
				<path fill="url(#SVGID_12_)" d="M343.251,274.613c4.25-6.683,11.215-6.69,15.479-0.014l8.491,13.299
					c4.266,6.675,1.274,12.136-6.646,12.136h-19.098c-7.92,0-10.922-5.467-6.672-12.15L343.251,274.613z"/>
			</g>
		</g>
		<g id="Tree_1_2_">
			<g>
				
					<linearGradient id="SVGID_13_" gradientUnits="userSpaceOnUse" x1="197.6211" y1="370.4453" x2="197.6211" y2="336.5527" gradientTransform="matrix(-1 0 0 -1 468 741)">
					<stop  offset="0" style="stop-color:#225633"/>
					<stop  offset="0.1992" style="stop-color:#255E38"/>
					<stop  offset="0.5674" style="stop-color:#2D7543"/>
					<stop  offset="1" style="stop-color:#339853"/>
				</linearGradient>
				<path fill="url(#SVGID_13_)" d="M262.602,372.322c4.25-6.688,11.213-6.694,15.479-0.019l12.771,20.001
					c4.268,6.68,1.274,12.141-6.646,12.141h-27.639c-7.923,0-10.926-5.467-6.675-12.149L262.602,372.322z"/>
			</g>
			<g>
				
					<linearGradient id="SVGID_14_" gradientUnits="userSpaceOnUse" x1="197.5493" y1="385.6445" x2="197.5493" y2="356.153" gradientTransform="matrix(-1 0 0 -1 468 741)">
					<stop  offset="0" style="stop-color:#225633"/>
					<stop  offset="0.1992" style="stop-color:#255E38"/>
					<stop  offset="0.5674" style="stop-color:#2D7543"/>
					<stop  offset="1" style="stop-color:#339853"/>
				</linearGradient>
				<path fill="url(#SVGID_14_)" d="M262.682,361.279c4.25-6.688,11.215-6.694,15.479-0.019l7.456,11.679
					c4.263,6.676,1.271,12.137-6.649,12.137h-17.021c-7.922,0-10.925-5.463-6.674-12.15L262.682,361.279z"/>
			</g>
			<g>
				
					<linearGradient id="SVGID_15_" gradientUnits="userSpaceOnUse" x1="197.5474" y1="392.5273" x2="197.5474" y2="373.629" gradientTransform="matrix(-1 0 0 -1 468 741)">
					<stop  offset="0" style="stop-color:#225633"/>
					<stop  offset="0.1992" style="stop-color:#255E38"/>
					<stop  offset="0.5674" style="stop-color:#2D7543"/>
					<stop  offset="1" style="stop-color:#339853"/>
				</linearGradient>
				<path fill="url(#SVGID_15_)" d="M262.694,351.846c4.25-6.682,11.216-6.688,15.479-0.014l2.17,3.398
					c4.265,6.674,1.275,12.136-6.646,12.136h-6.475c-7.921,0-10.923-5.463-6.672-12.15L262.694,351.846z"/>
			</g>
			<g>
				
					<linearGradient id="SVGID_16_" gradientUnits="userSpaceOnUse" x1="197.5493" y1="413.6895" x2="197.5493" y2="390.5732" gradientTransform="matrix(-1 0 0 -1 468 741)">
					<stop  offset="0" style="stop-color:#225633"/>
					<stop  offset="0.1992" style="stop-color:#255E38"/>
					<stop  offset="0.5674" style="stop-color:#2D7543"/>
					<stop  offset="1" style="stop-color:#339853"/>
				</linearGradient>
				<path fill="url(#SVGID_16_)" d="M276.477,341.303c3.324,5.205,0.615,9.464-6.02,9.464c-6.634,0-9.355-4.259-6.043-9.464
					C267.725,336.098,273.153,336.098,276.477,341.303z"/>
			</g>
		</g>
		<g id="Tree_1_7_">
			<g>
				
					<linearGradient id="SVGID_17_" gradientUnits="userSpaceOnUse" x1="384.7017" y1="415.6221" x2="384.7017" y2="401.7226" gradientTransform="matrix(-1 0 0 -1 468 741)">
					<stop  offset="0" style="stop-color:#225633"/>
					<stop  offset="0.1992" style="stop-color:#255E38"/>
					<stop  offset="0.5674" style="stop-color:#2D7543"/>
					<stop  offset="1" style="stop-color:#339853"/>
				</linearGradient>
				<path fill="url(#SVGID_17_)" d="M90.165,328.494c3.788,5.929,0.704,10.783-6.858,10.783c-7.561,0-10.66-4.853-6.888-10.783
					C80.191,322.564,86.377,322.565,90.165,328.494z"/>
			</g>
			<g>
				
					<linearGradient id="SVGID_18_" gradientUnits="userSpaceOnUse" x1="384.6636" y1="423.9141" x2="384.6636" y2="411.2526" gradientTransform="matrix(-1 0 0 -1 468 741)">
					<stop  offset="0" style="stop-color:#225633"/>
					<stop  offset="0.1992" style="stop-color:#255E38"/>
					<stop  offset="0.5674" style="stop-color:#2D7543"/>
					<stop  offset="1" style="stop-color:#339853"/>
				</linearGradient>
				<path fill="url(#SVGID_18_)" d="M88.912,321.088c3.076,4.818,0.568,8.756-5.57,8.756c-6.138,0-8.654-3.939-5.591-8.756
					C80.814,316.272,85.836,316.272,88.912,321.088z"/>
			</g>
			<g>
				
					<linearGradient id="SVGID_19_" gradientUnits="userSpaceOnUse" x1="384.6616" y1="428.541" x2="384.6616" y2="419.7825" gradientTransform="matrix(-1 0 0 -1 468 741)">
					<stop  offset="0" style="stop-color:#225633"/>
					<stop  offset="0.1992" style="stop-color:#255E38"/>
					<stop  offset="0.5674" style="stop-color:#2D7543"/>
					<stop  offset="1" style="stop-color:#339853"/>
				</linearGradient>
				<path fill="url(#SVGID_19_)" d="M87.629,314.477c2.368,3.706,0.442,6.739-4.286,6.739c-4.725,0-6.662-3.032-4.304-6.739
					C81.396,310.771,85.262,310.771,87.629,314.477z"/>
			</g>
			<g>
				
					<linearGradient id="SVGID_20_" gradientUnits="userSpaceOnUse" x1="384.6606" y1="439.2939" x2="384.6606" y2="428.0369" gradientTransform="matrix(-1 0 0 -1 468 741)">
					<stop  offset="0" style="stop-color:#225633"/>
					<stop  offset="0.1992" style="stop-color:#255E38"/>
					<stop  offset="0.5674" style="stop-color:#2D7543"/>
					<stop  offset="1" style="stop-color:#339853"/>
				</linearGradient>
				<path fill="url(#SVGID_20_)" d="M86.275,308.521c1.619,2.531,0.296,4.605-2.937,4.605c-3.229,0-4.552-2.074-2.94-4.605
					C82.011,305.985,84.657,305.985,86.275,308.521z"/>
			</g>
		</g>
		<g id="Tree_1_4_">
			<g>
				
					<linearGradient id="SVGID_21_" gradientUnits="userSpaceOnUse" x1="71.4985" y1="389.5381" x2="71.4985" y2="338.6964" gradientTransform="matrix(-1 0 0 -1 468 741)">
					<stop  offset="0" style="stop-color:#225633"/>
					<stop  offset="0.1992" style="stop-color:#255E38"/>
					<stop  offset="0.5674" style="stop-color:#2D7543"/>
					<stop  offset="1" style="stop-color:#339853"/>
				</linearGradient>
				<path fill="url(#SVGID_21_)" d="M388.696,351.598c4.25-6.683,11.216-6.688,15.479-0.015l24.635,38.574
					c4.267,6.676,1.274,12.137-6.646,12.137h-51.312c-7.92,0-10.922-5.463-6.672-12.146L388.696,351.598z"/>
			</g>
			<g>
				
					<linearGradient id="SVGID_22_" gradientUnits="userSpaceOnUse" x1="71.3931" y1="411.4727" x2="71.3931" y2="366.5474" gradientTransform="matrix(-1 0 0 -1 468 741)">
					<stop  offset="0" style="stop-color:#225633"/>
					<stop  offset="0.1992" style="stop-color:#255E38"/>
					<stop  offset="0.5674" style="stop-color:#2D7543"/>
					<stop  offset="1" style="stop-color:#339853"/>
				</linearGradient>
				<path fill="url(#SVGID_22_)" d="M388.817,335.922c4.25-6.682,11.216-6.688,15.479-0.014l17.087,26.755
					c4.264,6.675,1.275,12.136-6.646,12.136H378.49c-7.92,0-10.922-5.463-6.672-12.146L388.817,335.922z"/>
			</g>
			<g>
				
					<linearGradient id="SVGID_23_" gradientUnits="userSpaceOnUse" x1="71.3906" y1="420.9092" x2="71.3906" y2="391.3272" gradientTransform="matrix(-1 0 0 -1 468 741)">
					<stop  offset="0" style="stop-color:#225633"/>
					<stop  offset="0.1992" style="stop-color:#255E38"/>
					<stop  offset="0.5674" style="stop-color:#2D7543"/>
					<stop  offset="1" style="stop-color:#339853"/>
				</linearGradient>
				<path fill="url(#SVGID_23_)" d="M388.838,322.536c4.25-6.687,11.213-6.693,15.479-0.014l9.581,15.005
					c4.266,6.676,1.273,12.137-6.646,12.137H385.98c-7.922,0-10.924-5.463-6.673-12.15L388.838,322.536z"/>
			</g>
			<g>
				
					<linearGradient id="SVGID_24_" gradientUnits="userSpaceOnUse" x1="71.3921" y1="449.5215" x2="71.3921" y2="415.3998" gradientTransform="matrix(-1 0 0 -1 468 741)">
					<stop  offset="0" style="stop-color:#225633"/>
					<stop  offset="0.1992" style="stop-color:#255E38"/>
					<stop  offset="0.5674" style="stop-color:#2D7543"/>
					<stop  offset="1" style="stop-color:#339853"/>
				</linearGradient>
				<path fill="url(#SVGID_24_)" d="M388.851,311.381c4.25-6.682,11.214-6.689,15.479-0.014l1.656,2.594
					c4.263,6.675,1.271,12.137-6.649,12.137h-5.446c-7.92,0-10.923-5.464-6.672-12.146L388.851,311.381z"/>
			</g>
		</g>
		<g id="Tree_1_5_">
			<g>
				
					<linearGradient id="SVGID_25_" gradientUnits="userSpaceOnUse" x1="356.8472" y1="425.6719" x2="356.8472" y2="406.1615" gradientTransform="matrix(-1 0 0 -1 468 741)">
					<stop  offset="0" style="stop-color:#225633"/>
					<stop  offset="0.1992" style="stop-color:#255E38"/>
					<stop  offset="0.5674" style="stop-color:#2D7543"/>
					<stop  offset="1" style="stop-color:#339853"/>
				</linearGradient>
				<path fill="url(#SVGID_25_)" d="M103.393,318.475c4.25-6.683,11.217-6.689,15.479-0.015l2.709,4.241
					c4.263,6.675,1.271,12.136-6.649,12.136h-7.546c-7.92,0-10.923-5.463-6.672-12.149L103.393,318.475z"/>
			</g>
			<g>
				
					<linearGradient id="SVGID_26_" gradientUnits="userSpaceOnUse" x1="356.8022" y1="435.5" x2="356.8022" y2="418.7681" gradientTransform="matrix(-1 0 0 -1 468 741)">
					<stop  offset="0" style="stop-color:#225633"/>
					<stop  offset="0.1992" style="stop-color:#255E38"/>
					<stop  offset="0.5674" style="stop-color:#2D7543"/>
					<stop  offset="1" style="stop-color:#339853"/>
				</linearGradient>
				<path fill="url(#SVGID_26_)" d="M118.572,310.787c4.061,6.367,0.91,11.576-7.01,11.576h-0.714
					c-7.92,0-11.087-5.209-7.034-11.576C107.863,304.421,114.504,304.421,118.572,310.787z"/>
			</g>
			<g>
				
					<linearGradient id="SVGID_27_" gradientUnits="userSpaceOnUse" x1="356.7988" y1="441.6211" x2="356.7988" y2="430.041" gradientTransform="matrix(-1 0 0 -1 468 741)">
					<stop  offset="0" style="stop-color:#225633"/>
					<stop  offset="0.1992" style="stop-color:#255E38"/>
					<stop  offset="0.5674" style="stop-color:#2D7543"/>
					<stop  offset="1" style="stop-color:#339853"/>
				</linearGradient>
				<path fill="url(#SVGID_27_)" d="M116.874,302.047c3.13,4.9,0.579,8.91-5.667,8.91c-6.247,0-8.804-4.01-5.691-8.91
					C108.633,297.146,113.744,297.147,116.874,302.047z"/>
			</g>
			<g>
				
					<linearGradient id="SVGID_28_" gradientUnits="userSpaceOnUse" x1="356.7979" y1="455.8369" x2="356.7979" y2="440.951" gradientTransform="matrix(-1 0 0 -1 468 741)">
					<stop  offset="0" style="stop-color:#225633"/>
					<stop  offset="0.1992" style="stop-color:#255E38"/>
					<stop  offset="0.5674" style="stop-color:#2D7543"/>
					<stop  offset="1" style="stop-color:#339853"/>
				</linearGradient>
				<path fill="url(#SVGID_28_)" d="M115.085,294.172c2.142,3.352,0.396,6.095-3.876,6.095c-4.278,0-6.03-2.743-3.895-6.095
					C109.446,290.82,112.941,290.82,115.085,294.172z"/>
			</g>
		</g>
		<g id="Tree_1_6_">
			<g>
				
					<linearGradient id="SVGID_29_" gradientUnits="userSpaceOnUse" x1="368.5713" y1="414.2656" x2="368.5713" y2="394.755" gradientTransform="matrix(-1 0 0 -1 468 741)">
					<stop  offset="0" style="stop-color:#225633"/>
					<stop  offset="0.1992" style="stop-color:#255E38"/>
					<stop  offset="0.5674" style="stop-color:#2D7543"/>
					<stop  offset="1" style="stop-color:#339853"/>
				</linearGradient>
				<path fill="url(#SVGID_29_)" d="M91.667,329.881c4.25-6.683,11.214-6.689,15.479-0.016l2.709,4.242
					c4.265,6.674,1.272,12.135-6.647,12.135h-7.546c-7.92,0-10.923-5.462-6.672-12.15L91.667,329.881z"/>
			</g>
			<g>
				
					<linearGradient id="SVGID_30_" gradientUnits="userSpaceOnUse" x1="368.5249" y1="424.0938" x2="368.5249" y2="407.3596" gradientTransform="matrix(-1 0 0 -1 468 741)">
					<stop  offset="0" style="stop-color:#225633"/>
					<stop  offset="0.1992" style="stop-color:#255E38"/>
					<stop  offset="0.5674" style="stop-color:#2D7543"/>
					<stop  offset="1" style="stop-color:#339853"/>
				</linearGradient>
				<path fill="url(#SVGID_30_)" d="M106.847,322.193c4.065,6.363,0.912,11.572-7.008,11.572h-0.711
					c-7.92,0-11.087-5.209-7.037-11.572C96.14,315.827,102.78,315.827,106.847,322.193z"/>
			</g>
			<g>
				
					<linearGradient id="SVGID_31_" gradientUnits="userSpaceOnUse" x1="368.5239" y1="430.2168" x2="368.5239" y2="418.6347" gradientTransform="matrix(-1 0 0 -1 468 741)">
					<stop  offset="0" style="stop-color:#225633"/>
					<stop  offset="0.1992" style="stop-color:#255E38"/>
					<stop  offset="0.5674" style="stop-color:#2D7543"/>
					<stop  offset="1" style="stop-color:#339853"/>
				</linearGradient>
				<path fill="url(#SVGID_31_)" d="M105.15,313.453c3.13,4.896,0.574,8.91-5.668,8.91c-6.246,0-8.807-4.015-5.69-8.91
					C96.909,308.552,102.02,308.553,105.15,313.453z"/>
			</g>
			<g>
				
					<linearGradient id="SVGID_32_" gradientUnits="userSpaceOnUse" x1="368.52" y1="444.4287" x2="368.52" y2="429.5478" gradientTransform="matrix(-1 0 0 -1 468 741)">
					<stop  offset="0" style="stop-color:#225633"/>
					<stop  offset="0.1992" style="stop-color:#255E38"/>
					<stop  offset="0.5674" style="stop-color:#2D7543"/>
					<stop  offset="1" style="stop-color:#339853"/>
				</linearGradient>
				<path fill="url(#SVGID_32_)" d="M103.362,305.578c2.143,3.352,0.396,6.095-3.875,6.095c-4.277,0-6.029-2.743-3.896-6.095
					C97.723,302.226,101.219,302.226,103.362,305.578z"/>
			</g>
		</g>
	</g>
	<g id="Left_Mountain_1_">
		
			<linearGradient id="Left_Mountain_2_" gradientUnits="userSpaceOnUse" x1="-36.0005" y1="302.873" x2="-36.0005" y2="68.6227" gradientTransform="matrix(-1 0 0 -1 468 741)">
			<stop  offset="0" style="stop-color:#8EBE4F"/>
			<stop  offset="0.2117" style="stop-color:#8BBC4F"/>
			<stop  offset="0.4124" style="stop-color:#82B64F"/>
			<stop  offset="0.6087" style="stop-color:#73AE50"/>
			<stop  offset="0.8022" style="stop-color:#5CA351"/>
			<stop  offset="0.9921" style="stop-color:#3D9852"/>
			<stop  offset="1" style="stop-color:#3B9752"/>
		</linearGradient>
		<path id="Left_Mountain" fill="url(#Left_Mountain_2_)" d="M320.06,388.223C177.381,393.14,0,357.871,0,357.871V648h1008V352.01
			c0,0-28.17-24.027-224.004-16.65"/>
	</g>
	<g id="Trees_in_Front_of_Left_Mountain">
		<g id="Tree_1_8_">
			<g>
				
					<linearGradient id="SVGID_33_" gradientUnits="userSpaceOnUse" x1="-459.3394" y1="352.1807" x2="-459.3394" y2="265.1324" gradientTransform="matrix(-1 0 0 -1 468 741)">
					<stop  offset="0" style="stop-color:#225633"/>
					<stop  offset="0.1992" style="stop-color:#255E38"/>
					<stop  offset="0.5674" style="stop-color:#2D7543"/>
					<stop  offset="1" style="stop-color:#339853"/>
				</linearGradient>
				<path fill="url(#SVGID_33_)" d="M919.486,385.488c4.25-6.688,11.216-6.694,15.479-0.021l49.975,78.25
					c4.263,6.681,1.271,12.142-6.649,12.142H876.4c-7.92,0-10.922-5.467-6.672-12.15L919.486,385.488z"/>
			</g>
			<g>
				
					<linearGradient id="SVGID_34_" gradientUnits="userSpaceOnUse" x1="-459.5112" y1="388.4961" x2="-459.5112" y2="310.6" gradientTransform="matrix(-1 0 0 -1 468 741)">
					<stop  offset="0" style="stop-color:#225633"/>
					<stop  offset="0.1992" style="stop-color:#255E38"/>
					<stop  offset="0.5674" style="stop-color:#2D7543"/>
					<stop  offset="1" style="stop-color:#339853"/>
				</linearGradient>
				<path fill="url(#SVGID_34_)" d="M919.682,359.91c4.25-6.686,11.217-6.693,15.479-0.014l37.661,58.97
					c4.263,6.674,1.271,12.135-6.649,12.135h-77.313c-7.92,0-10.922-5.462-6.67-12.146L919.682,359.91z"/>
			</g>
			<g>
				
					<linearGradient id="SVGID_35_" gradientUnits="userSpaceOnUse" x1="-459.5122" y1="403.3896" x2="-459.5122" y2="350.9897" gradientTransform="matrix(-1 0 0 -1 468 741)">
					<stop  offset="0" style="stop-color:#225633"/>
					<stop  offset="0.1992" style="stop-color:#255E38"/>
					<stop  offset="0.5674" style="stop-color:#2D7543"/>
					<stop  offset="1" style="stop-color:#339853"/>
				</linearGradient>
				<path fill="url(#SVGID_35_)" d="M919.707,338.072c4.25-6.688,11.216-6.694,15.479-0.019l25.42,39.807
					c4.263,6.675,1.271,12.136-6.649,12.136h-52.878c-7.92,0-10.921-5.462-6.671-12.15L919.707,338.072z"/>
			</g>
			<g>
				
					<linearGradient id="SVGID_36_" gradientUnits="userSpaceOnUse" x1="-459.5122" y1="453.8311" x2="-459.5122" y2="390.3747" gradientTransform="matrix(-1 0 0 -1 468 741)">
					<stop  offset="0" style="stop-color:#225633"/>
					<stop  offset="0.1992" style="stop-color:#255E38"/>
					<stop  offset="0.5674" style="stop-color:#2D7543"/>
					<stop  offset="1" style="stop-color:#339853"/>
				</linearGradient>
				<path fill="url(#SVGID_36_)" d="M919.732,319.875c4.25-6.684,11.217-6.693,15.479-0.014l12.488,19.556
					c4.263,6.674,1.271,12.136-6.649,12.136h-27.068c-7.92,0-10.92-5.463-6.67-12.146L919.732,319.875z"/>
			</g>
		</g>
		<g id="Tree_1_9_">
			<g>
				
					<linearGradient id="SVGID_37_" gradientUnits="userSpaceOnUse" x1="-396.0503" y1="344.0469" x2="-396.0503" y2="233.6267" gradientTransform="matrix(-1 0 0 -1 468 741)">
					<stop  offset="0" style="stop-color:#225633"/>
					<stop  offset="0.1992" style="stop-color:#255E38"/>
					<stop  offset="0.5674" style="stop-color:#2D7543"/>
					<stop  offset="1" style="stop-color:#339853"/>
				</linearGradient>
				<path fill="url(#SVGID_37_)" d="M856.164,391.38c4.25-6.683,11.216-6.688,15.479-0.014l66.33,103.855
					c4.262,6.68,1.271,12.141-6.649,12.141H796.787c-7.92,0-10.921-5.468-6.671-12.15L856.164,391.38z"/>
			</g>
			<g>
				
					<linearGradient id="SVGID_38_" gradientUnits="userSpaceOnUse" x1="-396.2656" y1="389.6445" x2="-396.2656" y2="290.4661" gradientTransform="matrix(-1 0 0 -1 468 741)">
					<stop  offset="0" style="stop-color:#225633"/>
					<stop  offset="0.1992" style="stop-color:#255E38"/>
					<stop  offset="0.5674" style="stop-color:#2D7543"/>
					<stop  offset="1" style="stop-color:#339853"/>
				</linearGradient>
				<path fill="url(#SVGID_38_)" d="M856.409,359.415c4.251-6.682,11.217-6.69,15.479-0.014l50.941,79.763
					c4.263,6.675,1.271,12.136-6.648,12.136h-103.82c-7.92,0-10.922-5.463-6.672-12.146L856.409,359.415z"/>
			</g>
			<g>
				
					<linearGradient id="SVGID_39_" gradientUnits="userSpaceOnUse" x1="-396.2651" y1="408.0605" x2="-396.2651" y2="340.9308" gradientTransform="matrix(-1 0 0 -1 468 741)">
					<stop  offset="0" style="stop-color:#225633"/>
					<stop  offset="0.1992" style="stop-color:#255E38"/>
					<stop  offset="0.5674" style="stop-color:#2D7543"/>
					<stop  offset="1" style="stop-color:#339853"/>
				</linearGradient>
				<path fill="url(#SVGID_39_)" d="M856.439,332.116c4.25-6.687,11.215-6.694,15.479-0.015l35.641,55.81
					c4.264,6.674,1.271,12.136-6.648,12.136h-73.279c-7.92,0-10.922-5.463-6.671-12.146L856.439,332.116z"/>
			</g>
			<g>
				
					<linearGradient id="SVGID_40_" gradientUnits="userSpaceOnUse" x1="-396.2642" y1="472.5732" x2="-396.2642" y2="390.1998" gradientTransform="matrix(-1 0 0 -1 468 741)">
					<stop  offset="0" style="stop-color:#225633"/>
					<stop  offset="0.1992" style="stop-color:#255E38"/>
					<stop  offset="0.5674" style="stop-color:#2D7543"/>
					<stop  offset="1" style="stop-color:#339853"/>
				</linearGradient>
				<path fill="url(#SVGID_40_)" d="M856.471,309.381c4.25-6.683,11.217-6.69,15.479-0.014l19.479,30.502
					c4.264,6.675,1.271,12.136-6.648,12.136h-41.022c-7.92,0-10.922-5.462-6.671-12.146L856.471,309.381z"/>
			</g>
		</g>
	</g>
	<!-- Numbered left to right -->
	<g id="Cloud_1" transform="translate(-60 40)">
		
			<ellipse id="_x31_2" transform="matrix(0.9923 0.1238 -0.1238 0.9923 17.7957 -23.5856)" fill="#FFFFFF" cx="198.678" cy="131.4" rx="58.493" ry="54.842"/>
		
			<ellipse id="_x31_1" transform="matrix(0.9923 0.1238 -0.1238 0.9923 14.3923 -15.76)" fill="#FFFFFF" cx="134.008" cy="107.927" rx="53.997" ry="32.753"/>
		
			<ellipse id="_x31_0" transform="matrix(0.9923 0.1238 -0.1238 0.9923 15.0596 -28.9003)" fill="#FFFFFF" cx="240.065" cy="106.721" rx="27.748" ry="21.644"/>
		
			<ellipse id="_x38_" transform="matrix(0.9923 0.1238 -0.1238 0.9923 12.5779 -19.7858)" fill="#FFFFFF" cx="165.5" cy="91.318" rx="29.185" ry="22.747"/>
		
			<ellipse id="_x37_" transform="matrix(0.9923 0.1238 -0.1238 0.9923 20.1698 -30.5217)" fill="#FFFFFF" cx="255.675" cy="147.034" rx="51.62" ry="26.945"/>
		
			<ellipse id="_x36_" transform="matrix(0.531 -0.8474 0.8474 0.531 -65.0676 194.0161)" fill="#FFFFFF" cx="142.735" cy="155.788" rx="18" ry="31.171"/>
	</g>
	<g id="Cloud_2" transform="translate(-40)">
		<g>
			<path id="_x31_2_1_" fill="#FFFFFF" d="M470.981,76.599c31.941-4,58.75,11.037,59.876,33.587
				c1.126,22.549-23.856,44.071-55.8,48.072c-31.942,4-58.75-11.036-59.876-33.586S439.037,80.6,470.981,76.599z"/>
		
				<ellipse id="_x31_1_1_" transform="matrix(-0.0925 -0.9957 0.9957 -0.0925 361.47 528.7804)" fill="#FFFFFF" cx="421.701" cy="99.668" rx="32.752" ry="53.996"/>
		
				<ellipse id="_x31_0_1_" transform="matrix(-0.0925 -0.9957 0.9957 -0.0925 447.3981 558.76)" fill="#FFFFFF" cx="478.334" cy="75.494" rx="21.643" ry="27.748"/>
		
				<ellipse id="_x38__1_" transform="matrix(-0.0925 -0.9957 0.9957 -0.0925 442.9956 648.3987)" fill="#FFFFFF" cx="516.976" cy="122.324" rx="22.746" ry="29.185"/>
		
				<ellipse id="_x37__1_" transform="matrix(-0.0925 -0.9957 0.9957 -0.0925 475.3825 620.1558)" fill="#FFFFFF" cx="520.301" cy="93.443" rx="26.945" ry="51.62"/>
		
				<ellipse id="_x36__1_" transform="matrix(-0.9417 -0.3363 0.3363 -0.9417 753.1974 392.8076)" fill="#FFFFFF" cx="410.62" cy="131.17" rx="31.172" ry="18.001"/>
		</g>
	</g>
	<g id="Cloud_3" transform="translate(-280 40)">
		<g>
		
				<ellipse id="_x35__1_" transform="matrix(-0.0572 -0.9984 0.9984 -0.0572 784.405 949.3726)" fill="#FFFFFF" cx="840.483" cy="104.301" rx="42.403" ry="74.876"/>
		
				<ellipse id="_x34__1_" transform="matrix(-0.0572 -0.9984 0.9984 -0.0572 692.7745 918.2049)" fill="#FFFFFF" cx="779.945" cy="131.989" rx="39.319" ry="49.39"/>
		
				<ellipse id="_x33__1_" transform="matrix(-0.1958 -0.9806 0.9806 -0.1958 843.251 840.4701)" fill="#FFFFFF" cx="766.25" cy="74.471" rx="43.788" ry="57.829"/>
		
				<ellipse id="_x32__1_" transform="matrix(-0.0572 -0.9984 0.9984 -0.0572 826.0155 917.0826)" fill="#FFFFFF" cx="846.028" cy="68.521" rx="21.587" ry="47.031"/>
		
				<ellipse id="_x31__1_" transform="matrix(-0.0572 -0.9984 0.9984 -0.0572 682.3956 857.1285)" fill="#FFFFFF" cx="745.922" cy="106.346" rx="42.404" ry="74.876"/>
		
				<ellipse id="_x32__2_" transform="matrix(-0.0572 -0.9984 0.9984 -0.0572 607.1622 837.3456)" fill="#FFFFFF" cx="698.952" cy="131.988" rx="21.587" ry="47.031"/>
		</g>
	</g>
	<g id="Cloud_4" transform="translate(40 -10)">
		
			<ellipse id="_x35_" transform="matrix(0.9902 0.1394 -0.1394 0.9902 31.0544 -119.1454)" fill="#FFFFFF" cx="866.029" cy="162.105" rx="74.879" ry="42.405"/>
		
			<ellipse id="_x34_" transform="matrix(0.9902 0.1394 -0.1394 0.9902 29.8517 -123.0426)" fill="#FFFFFF" cx="893.255" cy="151.573" rx="49.391" ry="39.321"/>
		<circle id="_x33_" fill="#FFFFFF" cx="807.824" cy="144.052" r="43.789"/>
		
			<ellipse id="_x32_" transform="matrix(0.9902 0.1394 -0.1394 0.9902 34.4293 -127.317)" fill="#FFFFFF" cx="926.063" cy="182.114" rx="47.031" ry="21.588"/>
		
			<ellipse id="_x31_" transform="matrix(0.9902 0.1394 -0.1394 0.9902 30.4402 -108.5787)" fill="#FFFFFF" cx="790.275" cy="162.998" rx="74.879" ry="42.406"/>
	</g>
</g>
<polygon fill="#FFFFFF" stroke="#000000" stroke-miterlimit="10" points="472.683,594.1 467.314,595.783 415.748,412.641 "/>
<rect x="1.139" y="618.208" fill="#FFFFFF" stroke="#000000" stroke-miterlimit="10" width="463.799" height="5.625"/>
<rect x="1.088" y="602.965" fill="#FFFFFF" stroke="#000000" stroke-miterlimit="10" width="464.812" height="5.625"/>
<g id="Barn">
	<polygon fill="#565656" points="87.188,359.391 97.188,353.641 95.438,345.573 79.28,334.213 53.67,334.6 38.688,343.734 
		32.688,360.891 44.688,362.224 	"/>
	<path fill="#EAAB6C" d="M111.688,386.143l-4.25,23.25l-6,62.104l-17.775,16.448c0,0-2.475,2.945-13.725,0
		c-5.229-1.371-8.25-5.805-8.25-5.805l-2.5-6.25c0,0-6.5-26.25-14.25-72.75c-7.586-45.514-5.75-41.5-5.75-41.5
		s1.25-13.019,25.25-15.75c20.984-2.389,28,9.5,28,9.5l3.5,26L111.688,386.143z"/>
	<path fill="#CC813E" d="M47.587,417.983c0,0,12.166-12.54,29.562-13.812c16.531-1.208,21.34,5.021,21.34,5.021l-0.254,3.113
		c0,0-3.597-6.592-21.325-5.271c-13.585,1.013-28.783,14.305-28.783,14.305L47.587,417.983z"/>
	<polygon fill="#D83030" points="219.104,464.475 212.606,490.585 176.82,501.846 171.604,500.475 166.938,443.308 221.271,441.142 
			"/>
	<path fill="#CC813E" d="M53.076,447.114c0,0,11.39-11.74,27.675-12.931c15.479-1.132,19.979,4.698,19.979,4.698l-0.237,2.918
		c0,0-3.365-6.172-19.964-4.936c-12.717,0.951-26.945,13.392-26.945,13.392L53.076,447.114z"/>
	<path fill="#CC813E" d="M42.593,388.807c0,0,12.695-13.08,30.845-14.404c17.25-1.265,22.264,5.233,22.264,5.233l-0.268,3.252
		c0,0-3.746-6.879-22.246-5.5c-14.176,1.06-30.029,14.927-30.029,14.927L42.593,388.807z"/>
	<path fill="#FFFFFF" d="M227.872,432.527l-68.82,5.256l7.132,64.813l5.506,1.877l5.133-2.628l-4.727-51.507l40.51,40.246
		l3.664-3.443l-42.148-41.343c0,0,4.165-2.942,21.874-3.646c13.615-0.543,15.607,0,15.607,0l-37.833,53.489l3.053,6.204
		l40.461-55.521l-4.678,44.26l5.812-0.616l2.447-2.638L227.872,432.527z"/>
	<polygon fill="#ADADAD" points="87.713,383.072 67.448,431.2 71.5,436.774 73.887,446.819 125.202,451.465 197.141,426.134 
		236.656,437.279 255.401,433.481 239.696,382.565 214.204,350.91 194.607,348.622 117.604,357.743 	"/>
	<path fill="#D83030" d="M218.413,489.969l7.093-52.181c0,0-1.658-3.997-31.406-2.688c-19.814,0.872-31.354,5.22-31.354,5.22
		l7.543,63.325l-13.173,5.571l-73.458-21.274l-12.159-51.168l71.434,3.546l23.812-59.779l25.331-22.798l15.198,4.053l21.274,27.863
		l14.188,46.103l-11.146,49.647L218.413,489.969z"/>
	<path fill="#ADADAD" d="M64.938,340.89c-23.076,0.91-32.25,20-32.25,20s-3.648-10.17-0.325-21.37
		c2.782-9.38,11.106-19.982,24.325-21.125c42.402-3.652,40.5,35.246,40.5,35.246S91.783,339.833,64.938,340.89z"/>
	<polygon fill="#CCCCCC" points="115.375,448.641 131.25,451.016 135.25,479.766 117.375,476.516 118.27,478.006 133.898,482.878 
		137.188,483.891 138.854,481.808 134.104,447.391 113.104,444.141 111.062,446.391 116.812,477.828 119.688,479.141 	"/>
	<polygon fill="#CCCCCC" points="91.812,470.203 92.438,472.641 105.062,475.891 109.062,480.781 110.354,478.224 104.047,444.484 
		84.52,441.058 83.713,443.157 91.25,472.516 94.595,473.196 88.26,445.01 100.25,446.766 105.5,474.078 	"/>
	<path fill="#FFFFFF" d="M111.062,446.388l4.625,33.875l21.5,3.625l-4.336-35.116L111.062,446.388z M114.062,449.325l16.5,2.438
		l3.938,29.019l-16-3.078L114.062,449.325z"/>
	<path fill="#FFFFFF" d="M83.713,443.16l7.35,33.124l18.003,4.5l-6.962-34.894L83.713,443.16z M87.081,445.984L100,447.891l5,26.812
		l-11.812-2.875L87.081,445.984z"/>
	<line fill="none" stroke="#636363" stroke-miterlimit="10" x1="71.5" y1="422.586" x2="143.477" y2="425.013"/>
	<line fill="none" stroke="#636363" stroke-miterlimit="10" x1="79.609" y1="402.318" x2="152.614" y2="403.34"/>
	<line fill="none" stroke="#636363" stroke-miterlimit="10" x1="87.441" y1="383.072" x2="162.476" y2="379.308"/>
	<polygon fill="#FFFFFF" points="213.604,421.34 177.771,419.642 181.604,379.975 214.438,381.975 	"/>
	<line fill="none" stroke="#636363" stroke-miterlimit="10" x1="104.524" y1="368.826" x2="179.252" y2="363.411"/>
	<line fill="none" stroke="#636363" stroke-miterlimit="10" x1="117.604" y1="357.743" x2="194.607" y2="349.516"/>
	<polygon fill="#E5E5E5" points="67.448,431.2 71.5,436.774 142.933,440.32 166.743,380.541 196.604,352.978 212.436,354.808 
		236.515,384.752 251.525,434.267 255.401,433.481 239.987,383.51 214.204,350.91 194.607,348.622 162.747,379.308 138.854,435.974 
		107.436,434.04 	"/>
	<line fill="none" stroke="#636363" stroke-miterlimit="10" x1="212.436" y1="354.808" x2="207.271" y2="361.796"/>
	<line fill="none" stroke="#636363" stroke-miterlimit="10" x1="236.515" y1="384.752" x2="228.55" y2="389.659"/>
	<line fill="none" stroke="#636363" stroke-miterlimit="10" x1="251.525" y1="434.267" x2="242.735" y2="435.762"/>
	<polygon fill="#CCCCCC" points="211.438,418.309 208.104,418.309 185.104,416.642 185.104,390.309 185.104,383.072 
		212.104,384.752 	"/>
	<polygon fill="#F9F9F9" points="131.624,449.203 128.629,450.259 117.375,476.516 116.111,479.64 120.488,480.781 131.624,453.706 
			"/>
	<polygon fill="#FFFFFF" points="112.604,446.391 112.604,450.259 131.624,480.228 132.31,482.383 134.896,481.473 134.896,477.215 
		114.938,447.807 	"/>
	<polygon fill="#F9F9F9" points="98.487,446.391 90.219,468.5 92.771,474.14 100.729,447.807 	"/>
	<polygon fill="#F9F9F9" points="85.771,446.391 88.377,451.465 104.067,475.635 106.916,478.157 106.438,471.494 86.771,444.141 	
		"/>
	<polygon fill="#CCCCCC" points="213.148,484.298 216.303,447.668 217.281,446.325 221.271,441.142 213.527,439.606 
		211.604,442.149 200.438,441.997 182.438,444.141 174.119,445.799 172.77,444.141 177.03,442.905 186.354,441.142 195.686,440.32 
		205.854,439.641 213.527,439.606 221.271,441.142 217.188,487.225 	"/>
	<polygon fill="#A88686" points="185.104,385.445 182.271,417.413 208.104,418.309 209.604,387.205 	"/>
</g>
<polygon fill="#FFFFFF" stroke="#000000" stroke-miterlimit="10" points="476.361,576.535 471.054,578.4 413.277,397.121 "/>
<g id="Cow">
	<path id="Back_leg_1_" fill="#FFFFFF" d="M299.428,549.798c-0.112,3.827-0.335,7.666-0.335,11.494c0,1.104,0,2.207,0,3.311
		c0,0.508-0.317,2.419,0,2.826c0.353,0.452,2.058,0.414,2.624,0.64c1.01,0.4,2.02,0.804,3.027,1.203
		c0.169-6.489,0.336-12.98,0.504-19.474C303.309,549.798,301.368,549.798,299.428,549.798L299.428,549.798z"/>
	<g id="Udder">
		<path fill="#FFBDD8" stroke="#000000" stroke-width="0.3" stroke-miterlimit="10" d="M324.244,551.535
			c0,0-1.522,2.577-3.229,3.792c-1.947,1.388-2.65,1.051-2.771,1.458c-0.062,0.21,0,1.875,0,1.875v1.25c0,0-0.525,0.971-1.422,0.971
			c-1.111,0-1.453-1.137-1.453-1.137s0.102-2.361,0-2.584c-0.146-0.333-2.841-0.298-3.021-0.121
			c-0.193,0.188-0.048,2.705-0.048,2.705s-0.314,1.137-1.5,1.137c-1.258,0-1.548-1.231-1.548-1.231s0.126-2.704-0.009-2.862
			c-0.202-0.237-2.022-0.983-2.25-0.75c-0.221,0.227,0,3.5,0,3.5s-0.379,1.346-1.49,1.346c-1.258,0-1.51-1.221-1.51-1.221v-4.5
			c0,0-2.534-0.948-3.311-3.02c-0.812-2.161-0.587-4.271-0.587-4.271L324.244,551.535z"/>
	</g>
	<g id="Tail">
		<g>
			<path fill="#FFFFFF" stroke="#000000" stroke-width="0.1" stroke-miterlimit="10" d="M291.619,530.438
				c-4.28,0.888-8.562,1.181-11.375-3c-2.15-3.194-1.751-8.104-0.051-11.357c2.06-3.938,4.37-6.521,8.622-8.533
				c2.237-1.06,4.153-1.704,6.304-2.295c2.945-0.811,3.027-0.229,5.375,1.812c-3.103,1.479-6.498,1.961-9.58,3.407
				c-4.418,2.075-6.638,3.543-8.886,7.915c-1.512,2.938-0.989,6.708,1.841,8.678c3.353,2.33,7.336-0.308,10.5-1.75
				C293.452,527.021,292.537,528.729,291.619,530.438L291.619,530.438z"/>
			<path d="M302.869,496.438c0.736-1.138,1.515-2.226,2-3.5c0.491,2.749,1.25,5.729,1.25,8.523c0,3.928-1.836,5.206-5.378,6.511
				c-3.146,1.159-5.531-2.138-4.349-4.947C297.559,500.254,300.959,498.694,302.869,496.438L302.869,496.438z"/>
		</g>
	</g>
	<path id="Body_1_" fill="#FFFFFF" stroke="#000000" stroke-width="0.1" stroke-miterlimit="10" d="M319.119,513.035
		c-7.717,0-14.909,0.463-21.979,3.752c-5.593,2.603-8.021,12.392-8.021,18.15c0,7.633,1.336,14.922,2.025,22.506
		c0.345,3.783,0.634,7.517,0.771,11.312c0.03,0.859-0.415,4.925,0.201,5.529c0.645,0.63,4.748,0,5.75,0
		c-0.437-8.067,0.333-18.276,1.5-23.125c4.037,2.489,26.229,2.797,36.375,1.875c0,3.275,0,6.555,0,9.832
		c0,0.604-0.277,5.03,0.225,5.052c2.064,0.087,3.248,0.312,5.15,1.116c0-5.54,0.465-10.743,1.125-16.25
		c2.369,2.115,1,9.338,1,12.449c0,2.334-0.147,4.722,0,7.051c0.094,1.438-0.335,1.799,0.938,2.562
		c0.852,0.512,2.59,1.068,3.562,0.562c1.877-0.979,1.098-3.563,1.308-5.182c0.316-2.47,0.618-4.941,0.956-7.409
		c0.619-4.521,1.236-9.037,1.875-13.555c0.727-5.135,0.474-8.022-0.562-13.123c-0.834-4.108-0.959-8.678-3.433-12.122
		c-1.784-2.48-3.568-4.966-5.354-7.447c-0.558-0.776-1.85-3.537-2.91-3.537c-5.644,0-11.286,0-16.93,0
		C321.503,513.035,320.312,513.035,319.119,513.035L319.119,513.035z"/>
	<path class="cowspot" d="M342.376,537.263c-5.54-0.812-8.858-2.102-7.937-8.248c0.68-4.52-5.113-7.337-2.89-11.717
		c3.016-5.938,8.755,1.756,9.978,5.101C343.64,528.174,343.215,531.116,342.376,537.263L342.376,537.263z"/>
	<g id="Head">
		<path fill="#FFBDD8" stroke="#000000" stroke-width="0.3" stroke-miterlimit="10" d="M345.07,539.916
			c9.726,6.604,30.421,0.729,24.108-13.844c-0.63-1.451-0.952-1.39-2.444-1.528c-2.185-0.206-4.368-0.412-6.553-0.618
			c-3.338-0.312-5.706,1.134-8.834,2.412c-3.972,1.623-4.773,1.751-6.743,5.494C342.965,534.947,342.061,537.517,345.07,539.916
			L345.07,539.916z"/>
		<path fill="#F9F9A7" stroke="#000000" stroke-width="0.3" stroke-miterlimit="10" d="M339.66,506.952
			c1.99-2.323,0.311-3.296-1.511-5.17c-1.17-1.206-3.216-2.616-4.947-2.038c-1.872,0.624,0.409,4.025,1.217,5.013
			C335.952,506.632,337.233,507.761,339.66,506.952L339.66,506.952z"/>
		<path fill="#F9F9A7" stroke="#000000" stroke-width="0.3" stroke-miterlimit="10" d="M355.494,501.618
			c-2.033-0.791-2.729-2.388-2.219-4.637c0.311-1.365,1.148-4.935,2.802-5.363c2.175-0.565,2.195,3.931,2.195,5.258
			C358.272,499.226,358.095,500.995,355.494,501.618L355.494,501.618z"/>
		<path fill="#FFFFFF" stroke="#000000" stroke-width="0.3" stroke-miterlimit="10" d="M353.16,497.951
			c-6.051-0.018-11.085,4.053-15.588,7.607c-0.402,0.318-2.878-0.568-3.9-0.812c-2.038-0.482-4.212-0.615-6.278-0.247
			c-2.794,0.497-5.217,2.051-6.649,4.529c-0.911,1.575-1.979,3.351-0.488,4.641c0.716,0.619,1.846,1.164,2.739,1.448
			c3.997,1.267,8.1,0.303,11.75-1.417c0.617,3.648,1.438,7.273,2.433,10.841c1.322,4.74,3.044,11.94,7.484,14.826
			c5.023-9.277,15.401-14.479,25.667-10.667c0.073-6.795-0.962-13.832-3.255-20.23c-0.62-1.729-2.216-3.814-1.955-5.633
			c0.109-0.765,1.732-1.373,2.358-1.77c1.759-1.113,2.894-2.352,3.914-4.104c1.069-1.838,1.521-4.039,1.521-6.164
			c0-0.998-2.355-1.23-3.154-1.388c-6.833-1.33-11.516,2.843-12.846,9.455C355.669,498.425,354.508,497.875,353.16,497.951
			L353.16,497.951z"/>
		<path fill="#FFBDD8" stroke="#000000" stroke-width="0.3" stroke-miterlimit="10" d="M334.493,506.619
			c0.175,1.643,0.351,3.285,0.522,4.928c0.125,1.186-2.753,1.209-3.76,1.438c-2.704,0.611-5.816,0.894-8.463,0.002
			c-1.276-0.433-1.241-2.435-0.645-3.356c0.782-1.208,2.525-1.894,3.791-2.394C328.791,506.111,331.516,506.163,334.493,506.619
			L334.493,506.619z"/>
		<path fill="#FFBDD8" stroke="#000000" stroke-width="0.3" stroke-miterlimit="10" d="M359.419,498.09
			c1.935,2.374,3.422,4.74,6.438,2.433c1.904-1.456,4.552-4.572,4.4-7.15c-0.188-3.178-3.896-3.008-6.045-1.943
			C361.725,492.657,359.492,495.191,359.419,498.09L359.419,498.09z"/>
		<path fill="none" stroke="#000000" stroke-width="0.3" stroke-miterlimit="10" d="M353.039,517.014c0,1.107,0,2.195-0.09,3.299
			c-0.099,1.206-0.63,1.915-1.4,2.812c-0.806,0.934-2.038,0.74-3.116,0.74c-1.039,0-2.057-0.931-2.816-1.528
			c-0.767-0.604-1.387-1.5-1.866-2.347c-0.248-0.438-0.697-0.975-0.824-1.469c-0.058-0.22-0.183-0.189-0.052-0.386
			c0.211-0.315,0.422-0.635,0.633-0.951c1.256-1.889,2.696-3.501,4.35-5.049c0.15-0.141,1.538-1.427,1.693-1.244
			c0.627,0.732,1.254,1.467,1.88,2.198c0.021-0.502-0.038-3.048,0.145-3.206c0.172-0.146,1.175,0.03,1.396,0.036
			c0.719,0.02,1.438,0.038,2.156,0.057c1.988,0.054,4.272,0.45,6.021,1.453c0.785,0.451,0.843,1.758,0.889,2.628
			c0.065,1.256,0.115,2.332-0.088,3.565c-0.147,0.905-1.098,1.877-1.827,2.357c-0.813,0.537-2.028,0.673-2.977,0.46
			C355.406,520.056,354.086,518.349,353.039,517.014L353.039,517.014z"/>
		<path d="M343.19,517.658c-0.135,0.203-0.271,0.404-0.403,0.606c-1.468-2.514-1.633-6.215-0.293-8.789
			c1.571-3.018,5.654-0.583,7.015,1.368C346.881,512.628,345.016,515.109,343.19,517.658L343.19,517.658z"/>
		<path d="M353.265,509.886c-0.558,0.079-1.229-0.078-1.791-0.114c0.216-8.962,9.438-4.2,10.22,2.066
			C359.151,510.173,356.215,510.042,353.265,509.886L353.265,509.886z"/>
		<ellipse transform="matrix(-0.898 0.44 -0.44 -0.898 890.625 824.9649)" cx="349.683" cy="515.723" rx="1.062" ry="1.766"/>
		<ellipse transform="matrix(-0.9273 0.3743 -0.3743 -0.9273 875.0278 857.6182)" cx="354.231" cy="513.783" rx="1.063" ry="1.765"/>
		<path fill="none" stroke="#000000" stroke-width="0.3" stroke-miterlimit="10" d="M348.482,539.368
			c0.009-0.528,0.295-1.151,0.427-1.666c5.19,4.251,17.457,3.553,17.457-4.988c0.721,0.577,1.421,0.599,2.097,0"/>
		<path fill="none" stroke="#000000" stroke-width="0.3" stroke-miterlimit="10" d="M355.395,535.607
			c-1.044-1.526-2.949-2.279-4.451-0.849c0.323,0.912,1.163,1.103,2.077,0.849"/>
		<path fill="none" stroke="#000000" stroke-width="0.3" stroke-miterlimit="10" d="M362.088,533.995
			c-0.481-1.031-0.626-2.822,0.007-3.786c0.936-1.426,2.256-0.561,1.38,0.773"/>
		<path class="cowspot" d="M369.988,521.507c-4.024-1.798-4.231-3.946-5.146-7.515c-0.694-2.711-1.435-6.612,0.595-9.095
			C367.793,507.072,370.215,523.125,369.988,521.507L369.988,521.507z"/>
	</g>
	<path class="cowspot" d="M291.349,548.773c5.661,2.326,4.762,11.614,0.304,14.771C291.381,559.655,289.355,549.461,291.349,548.773L291.349,548.773
		z"/>
	<path class="cowspot" d="M305.249,544.025c0.869,4.943,14.777-7.295,7.24-13.401c-4.653-3.771-7.24-9.153-13.096-7.501
		c-4.102,2.548-11.039,7.128-7.147,11.972C295.528,539.18,307.542,532.013,305.249,544.025L305.249,544.025z"/>
	<path class="cowspot" d="M311.399,553.204c-0.854-4.216-6.564-5.233-7.623-0.812C306.321,552.627,308.862,552.896,311.399,553.204L311.399,553.204z
		"/>
	<path class="cowspot" d="M318.902,524.979c10.634,1.49,9.686-0.718,7.273-6.492c-1.29-3.092-12.966-4.976-15.854-4.389
		c1.028,4.1,1.812,10.219,5.905,11.279C316.229,525.378,318.233,524.886,318.902,524.979z"/>
	<path d="M297.869,574.285c-1.351,0.081-2.701,0.163-4.053,0.244c-0.521,0.029-0.938-0.075-1.454-0.19
		c-0.503-0.111-0.434-1.201-0.511-1.661c-0.133-0.798,1.938-1.528,2.557-1.893c1.113-0.652,2.229-1.307,3.341-1.957
		C297.787,570.646,297.83,572.466,297.869,574.285L297.869,574.285z"/>
	<path d="M304.889,563.746c-1.586,0.717-3.171,1.434-4.758,2.148c-0.682,0.311-1.212,0.269-1.106,1.032
		c0.117,0.857,1.146,0.771,1.929,0.969c0.253,0.063,3.793,1.413,3.809,0.856C304.803,567.085,304.846,565.415,304.889,563.746
		L304.889,563.746z"/>
	<polygon points="335.668,565.538 341.36,561.952 341.157,566.287 341.119,569.035 338.514,568.19 336.521,567.949 335.668,567.33 	
		"/>
	<path d="M349.203,569.438c-0.353,3.181,0.728,6.864-3.693,6.232C339.131,574.759,347.614,570.305,349.203,569.438L349.203,569.438z
		"/>
	<path class="cowspot" d="M351.807,549.798c-4.571,1.679-5.024,7.822-1.462,10.556C350.83,556.835,351.315,553.316,351.807,549.798L351.807,549.798z
		"/>
	<path class="cowspot" d="M335.668,541.493c-3.439-7.719-22.008-2.94-18.691,3.053C321.481,552.691,341.134,547.729,335.668,541.493L335.668,541.493
		z"/>
</g>
<path fill="#FFFFFF" stroke="#000000" stroke-miterlimit="10" d="M469.805,598.029v-44c0,0,0,0,4.066,5.045l3.615,28.485v45.5
	L469.805,598.029z"/>
<path fill="#FFFFFF" stroke="#000000" stroke-miterlimit="10" d="M439.576,637.016v-44c0,0,0,0,6.75-13.5l6,12v45.5H439.576z"/>
<path fill="#FFFFFF" stroke="#000000" stroke-miterlimit="10" d="M420.875,637.016v-44c0,0,0,0,6.75-13.5l6,12v45.5H420.875z"/>
<polygon fill="#FFFFFF" stroke="#000000" stroke-miterlimit="10" points="468.182,605.581 477.486,595.639 477.486,603.545 
	472.275,608.266 "/>
<path fill="#FFFFFF" stroke="#000000" stroke-miterlimit="10" d="M402.166,637.016v-44c0,0,0,0,6.75-13.5l6,12v45.5H402.166z"/>
<path fill="#FFFFFF" stroke="#000000" stroke-miterlimit="10" d="M382.231,637.016v-44c0,0,0,0,6.75-13.5l6,12v45.5H382.231z"/>
<path fill="#FFFFFF" stroke="#000000" stroke-miterlimit="10" d="M361.531,637.016v-44c0,0,0,0,6.75-13.5l6,12v45.5H361.531z"/>
<path fill="#FFFFFF" stroke="#000000" stroke-miterlimit="10" d="M342.822,637.016v-44c0,0,0,0,6.75-13.5l6,12v45.5H342.822z"/>
<path fill="#FFFFFF" stroke="#000000" stroke-miterlimit="10" d="M322.888,637.016v-44c0,0,0,0,6.75-13.5l6,12v45.5H322.888z"/>
<path fill="#FFFFFF" stroke="#000000" stroke-miterlimit="10" d="M304.188,637.016v-44c0,0,0,0,6.75-13.5l6,12v45.5H304.188z"/>
<path fill="#FFFFFF" stroke="#000000" stroke-miterlimit="10" d="M285.479,637.016v-44c0,0,0,0,6.75-13.5l6,12v45.5H285.479z"/>
<path fill="#FFFFFF" stroke="#000000" stroke-miterlimit="10" d="M265.543,637.016v-44c0,0,0,0,6.75-13.5l6,12v45.5H265.543z"/>
<path fill="#FFFFFF" stroke="#000000" stroke-miterlimit="10" d="M245.868,637.016v-44c0,0,0,0,6.75-13.5l6,12v45.5H245.868z"/>
<path fill="#FFFFFF" stroke="#000000" stroke-miterlimit="10" d="M227.159,637.016v-44c0,0,0,0,6.75-13.5l6,12v45.5H227.159z"/>
<path fill="#FFFFFF" stroke="#000000" stroke-miterlimit="10" d="M207.225,637.016v-44c0,0,0,0,6.75-13.5l6,12v45.5H207.225z"/>
<path fill="#FFFFFF" stroke="#000000" stroke-miterlimit="10" d="M188.523,637.016v-44c0,0,0,0,6.75-13.5l6,12v45.5H188.523z"/>
<path fill="#FFFFFF" stroke="#000000" stroke-miterlimit="10" d="M169.814,637.016v-44c0,0,0,0,6.75-13.5l6,12v45.5H169.814z"/>
<path fill="#FFFFFF" stroke="#000000" stroke-miterlimit="10" d="M149.88,637.016v-44c0,0,0,0,6.75-13.5l6,12v45.5H149.88z"/>
<path fill="#FFFFFF" stroke="#000000" stroke-miterlimit="10" d="M129.18,637.016v-44c0,0,0,0,6.75-13.5l6,12v45.5H129.18z"/>
<path fill="#FFFFFF" stroke="#000000" stroke-miterlimit="10" d="M110.471,637.016v-44c0,0,0,0,6.75-13.5l6,12v45.5H110.471z"/>
<path fill="#FFFFFF" stroke="#000000" stroke-miterlimit="10" d="M90.536,637.016v-44c0,0,0,0,6.75-13.5l6,12v45.5H90.536z"/>
<path fill="#FFFFFF" stroke="#000000" stroke-miterlimit="10" d="M71.835,637.016v-44c0,0,0,0,6.75-13.5l6,12v45.5H71.835z"/>
<path fill="#FFFFFF" stroke="#000000" stroke-miterlimit="10" d="M53.126,637.016v-44c0,0,0,0,6.75-13.5l6,12v45.5H53.126z"/>
<path fill="#FFFFFF" stroke="#000000" stroke-miterlimit="10" d="M33.191,637.016v-44c0,0,0,0,6.75-13.5l6,12v45.5H33.191z"/>
<path fill="#FFFFFF" stroke="#000000" stroke-miterlimit="10" d="M12.701,637.016v-44c0,0,0,0,6.75-13.5l6,12v45.5H12.701z"/>
<path fill="#FFFFFF" stroke="#000000" stroke-miterlimit="10" d="M460.317,567.934v-44c0,0,0,0,3.535,5.045l3.146,28.486v45.5
	L460.317,567.934z"/>
<path fill="#FFFFFF" stroke="#000000" stroke-miterlimit="10" d="M451.584,539.807v-44c0,0-0.201,0,3.335,5.045l3.146,28.486v45.5
	L451.584,539.807z"/>
<path fill="#FFFFFF" stroke="#000000" stroke-miterlimit="10" d="M385.005,380.193v-4.818c0,0,0,0,1.199,0.695l1.067,3.927
	L385.005,380.193z"/>
<path fill="#FFFFFF" stroke="#000000" stroke-miterlimit="10" d="M386.545,380.083v-6.329c0,0,0,0,1.199,0.913l1.068,5.159
	L386.545,380.083z"/>
<path fill="#FFFFFF" stroke="#000000" stroke-miterlimit="10" d="M442.975,507.861l-0.805-40.16c0,0,0,0,3.536,4.604l3.145,26
	l0.806,41.528L442.975,507.861z"/>
<path fill="#FFFFFF" stroke="#000000" stroke-miterlimit="10" d="M433.654,478.955l-0.604-33.78c0,0,0,0,3.536,3.874l3.146,21.869
	l0.604,34.932L433.654,478.955z"/>
<path fill="#FFFFFF" stroke="#000000" stroke-miterlimit="10" d="M425.317,454.473l-0.604-29.523c0,0,0,0,3.536,3.386l3.145,19.114
	l0.604,30.529L425.317,454.473z"/>
<path fill="#FFFFFF" stroke="#000000" stroke-miterlimit="10" d="M418.459,432.012l-0.805-24.615c0,0,0,0,2.947,2.822l2.621,15.938
	v25.454L418.459,432.012z"/>
<path fill="#FFFFFF" stroke="#000000" stroke-miterlimit="10" d="M411.134,411.561v-20.719c0,0,0,0,2.02,2.375l3.103,13.415v21.425
	L411.134,411.561z"/>
<path fill="#FFFFFF" stroke="#000000" stroke-miterlimit="10" d="M405.642,396.13v-18.25c0,0,0,0,2.187,2.092l1.943,11.816v18.872
	L405.642,396.13z"/>
<path fill="#FFFFFF" stroke="#000000" stroke-miterlimit="10" d="M383.523,380.325v-3.104c0,0,0,0,0.782,0.448l0.697,2.53
	L383.523,380.325z"/>
<path fill="#FFFFFF" stroke="#000000" stroke-miterlimit="10" d="M397.656,379.497v-10.491c0,0,0,0,1.267,1.202l1.128,6.793v10.848
	L397.656,379.497z"/>
<path fill="#FFFFFF" stroke="#000000" stroke-miterlimit="10" d="M394.235,376.274v-8.539c0,0,0,0,1.216,0.979l1.082,5.529v8.829
	L394.235,376.274z"/>
<path fill="#FFFFFF" stroke="#000000" stroke-miterlimit="10" d="M388.763,379.908v-7.859c0,0,0,0,1.199,1.134l1.068,6.405
	L388.763,379.908z"/>
<path fill="#FFFFFF" stroke="#000000" stroke-miterlimit="10" d="M391.504,379.707v-10.22c0,0,0,0,1.199,1.475l1.068,8.328
	L391.504,379.707z"/>
<path fill="#FFFFFF" stroke="#000000" stroke-miterlimit="10" d="M401.15,385.867v-13.134c0,0,0,0,1.715,1.505l1.524,8.504v13.582
	L401.15,385.867z"/>
<path fill="#FFFFFF" stroke="#000000" stroke-miterlimit="10" d="M382.042,380.475v-1.939c0,0,0,0,0.783,0.28l0.696,1.582
	L382.042,380.475z"/>
<polygon fill="#FFFFFF" stroke="#000000" stroke-miterlimit="10" points="467.623,621.572 476.928,611.63 476.928,619.536 
	471.717,624.257 "/>
<path fill="#FFFFFF" stroke="#000000" stroke-miterlimit="10" d="M459.511,637.016v-44c0,0,0,0,6.75-13.5l6,12v45.5H459.511z"/>
<polygon fill="#FFFFFF" stroke="#000000" stroke-miterlimit="10" points="0.604,637.016 0.604,580.333 6.771,593.167 6.771,637.016 
	"/>
<rect id="Ground_Cover" x="0" y="0" opacity="0.39" width="1008" height="648"/>
</svg>
