<svg id="farmbackground" width="1030px" height="670px" version="1.1" xmlns="http://www.w3.org/2000/svg" xmlns:xlink="http://www.w3.org/1999/xlink" xmlns:sketch="http://www.bohemiancoding.com/sketch/ns">
    <title>Slice 1</title>
    <description>Created with Sketch (http://www.bohemiancoding.com/sketch)</description>
    <defs>
        <linearGradient x1="50.0000496%" y1="-8.74702548%" x2="50.0000496%" y2="58.8656955%" id="linearGradient-1">
            <stop stop-color="rgb(153,209,223)" offset="0%"></stop>
            <stop stop-color="rgb(162,213,226)" offset="14.3600002%"></stop>
            <stop stop-color="rgb(186,223,232)" offset="40.9099996%"></stop>
            <stop stop-color="rgb(224,240,243)" offset="76.4400005%"></stop>
            <stop stop-color="rgb(254,255,255)" offset="100%"></stop>
        </linearGradient>
        <radialGradient cx="41.2167678%" cy="52.0273368%" fx="41.2167678%" fy="52.0273368%" r="73.4611452%" id="radialGradient-2">
            <stop stop-color="rgb(248,222,113)" offset="0%"></stop>
            <stop stop-color="rgb(244,213,101)" offset="31.8699986%"></stop>
            <stop stop-color="rgb(235,191,69)" offset="90.6099975%"></stop>
            <stop stop-color="rgb(234,187,65)" offset="100%"></stop>
        </radialGradient>
        <linearGradient x1="50.0000004%" y1="24.7998268%" x2="50.0000004%" y2="4.94709938%" id="linearGradient-3">
            <stop stop-color="rgb(71,164,100)" offset="0%"></stop>
            <stop stop-color="rgb(126,181,99)" offset="44.0100014%"></stop>
            <stop stop-color="rgb(158,196,97)" offset="81.0100019%"></stop>
            <stop stop-color="rgb(169,202,97)" offset="100%"></stop>
        </linearGradient>
        <linearGradient x1="49.9985359%" y1="8.75208492%" x2="49.9985359%" y2="100.009158%" id="linearGradient-4">
            <stop stop-color="rgb(42,103,66)" offset="0%"></stop>
            <stop stop-color="rgb(46,111,72)" offset="19.9200004%"></stop>
            <stop stop-color="rgb(55,133,84)" offset="56.7399979%"></stop>
            <stop stop-color="rgb(60,165,101)" offset="100%"></stop>
        </linearGradient>
        <linearGradient x1="50.0003309%" y1="-3.14974996%" x2="50.0003309%" y2="99.2021857%" id="linearGradient-5">
            <stop stop-color="rgb(42,103,66)" offset="0%"></stop>
            <stop stop-color="rgb(46,111,72)" offset="19.9200004%"></stop>
            <stop stop-color="rgb(55,133,84)" offset="56.7399979%"></stop>
            <stop stop-color="rgb(60,165,101)" offset="100%"></stop>
        </linearGradient>
        <linearGradient x1="49.9999505%" y1="8.00168989%" x2="49.9999505%" y2="100.023124%" id="linearGradient-6">
            <stop stop-color="rgb(42,103,66)" offset="0%"></stop>
            <stop stop-color="rgb(46,111,72)" offset="19.9200004%"></stop>
            <stop stop-color="rgb(55,133,84)" offset="56.7399979%"></stop>
            <stop stop-color="rgb(60,165,101)" offset="100%"></stop>
        </linearGradient>
        <linearGradient x1="50.0019688%" y1="-75.4679265%" x2="50.0019688%" y2="97.4778605%" id="linearGradient-7">
            <stop stop-color="rgb(42,103,66)" offset="0%"></stop>
            <stop stop-color="rgb(46,111,72)" offset="19.9200004%"></stop>
            <stop stop-color="rgb(55,133,84)" offset="56.7399979%"></stop>
            <stop stop-color="rgb(60,165,101)" offset="100%"></stop>
        </linearGradient>
        <linearGradient x1="49.9998863%" y1="8.75506114%" x2="49.9998863%" y2="100.015345%" id="linearGradient-8">
            <stop stop-color="rgb(42,103,66)" offset="0%"></stop>
            <stop stop-color="rgb(46,111,72)" offset="19.9200004%"></stop>
            <stop stop-color="rgb(55,133,84)" offset="56.7399979%"></stop>
            <stop stop-color="rgb(60,165,101)" offset="100%"></stop>
        </linearGradient>
        <linearGradient x1="49.9991549%" y1="-3.1422262%" x2="49.9991549%" y2="99.2102994%" id="linearGradient-9">
            <stop stop-color="rgb(42,103,66)" offset="0%"></stop>
            <stop stop-color="rgb(46,111,72)" offset="19.9200004%"></stop>
            <stop stop-color="rgb(55,133,84)" offset="56.7399979%"></stop>
            <stop stop-color="rgb(60,165,101)" offset="100%"></stop>
        </linearGradient>
        <linearGradient x1="50.0001636%" y1="8.00911641%" x2="50.0001636%" y2="100.02443%" id="linearGradient-10">
            <stop stop-color="rgb(42,103,66)" offset="0%"></stop>
            <stop stop-color="rgb(46,111,72)" offset="19.9200004%"></stop>
            <stop stop-color="rgb(55,133,84)" offset="56.7399979%"></stop>
            <stop stop-color="rgb(60,165,101)" offset="100%"></stop>
        </linearGradient>
        <linearGradient x1="50.00414%" y1="-75.4509807%" x2="50.00414%" y2="97.4639249%" id="linearGradient-11">
            <stop stop-color="rgb(42,103,66)" offset="0%"></stop>
            <stop stop-color="rgb(46,111,72)" offset="19.9200004%"></stop>
            <stop stop-color="rgb(55,133,84)" offset="56.7399979%"></stop>
            <stop stop-color="rgb(60,165,101)" offset="100%"></stop>
        </linearGradient>
        <linearGradient x1="50.0003509%" y1="8.75877244%" x2="50.0003509%" y2="100.006208%" id="linearGradient-12">
            <stop stop-color="rgb(42,103,66)" offset="0%"></stop>
            <stop stop-color="rgb(46,111,72)" offset="19.9200004%"></stop>
            <stop stop-color="rgb(55,133,84)" offset="56.7399979%"></stop>
            <stop stop-color="rgb(60,165,101)" offset="100%"></stop>
        </linearGradient>
        <linearGradient x1="50.0011569%" y1="-3.13302336%" x2="50.0011569%" y2="99.2053239%" id="linearGradient-13">
            <stop stop-color="rgb(42,103,66)" offset="0%"></stop>
            <stop stop-color="rgb(46,111,72)" offset="19.9200004%"></stop>
            <stop stop-color="rgb(55,133,84)" offset="56.7399979%"></stop>
            <stop stop-color="rgb(60,165,101)" offset="100%"></stop>
        </linearGradient>
        <linearGradient x1="50.0002293%" y1="7.9967919%" x2="50.0002293%" y2="100.02432%" id="linearGradient-14">
            <stop stop-color="rgb(42,103,66)" offset="0%"></stop>
            <stop stop-color="rgb(46,111,72)" offset="19.9200004%"></stop>
            <stop stop-color="rgb(55,133,84)" offset="56.7399979%"></stop>
            <stop stop-color="rgb(60,165,101)" offset="100%"></stop>
        </linearGradient>
        <linearGradient x1="50.0010252%" y1="-75.4708226%" x2="50.0010252%" y2="97.4549185%" id="linearGradient-15">
            <stop stop-color="rgb(42,103,66)" offset="0%"></stop>
            <stop stop-color="rgb(46,111,72)" offset="19.9200004%"></stop>
            <stop stop-color="rgb(55,133,84)" offset="56.7399979%"></stop>
            <stop stop-color="rgb(60,165,101)" offset="100%"></stop>
        </linearGradient>
        <linearGradient x1="49.9980165%" y1="8.73944702%" x2="49.9980165%" y2="100.002736%" id="linearGradient-16">
            <stop stop-color="rgb(42,103,66)" offset="0%"></stop>
            <stop stop-color="rgb(46,111,72)" offset="19.9200004%"></stop>
            <stop stop-color="rgb(55,133,84)" offset="56.7399979%"></stop>
            <stop stop-color="rgb(60,165,101)" offset="100%"></stop>
        </linearGradient>
        <linearGradient x1="49.9993475%" y1="-3.15409412%" x2="49.9993475%" y2="99.218902%" id="linearGradient-17">
            <stop stop-color="rgb(42,103,66)" offset="0%"></stop>
            <stop stop-color="rgb(46,111,72)" offset="19.9200004%"></stop>
            <stop stop-color="rgb(55,133,84)" offset="56.7399979%"></stop>
            <stop stop-color="rgb(60,165,101)" offset="100%"></stop>
        </linearGradient>
        <linearGradient x1="50.0011441%" y1="8.00042842%" x2="50.0011441%" y2="100.015855%" id="linearGradient-18">
            <stop stop-color="rgb(42,103,66)" offset="0%"></stop>
            <stop stop-color="rgb(46,111,72)" offset="19.9200004%"></stop>
            <stop stop-color="rgb(55,133,84)" offset="56.7399979%"></stop>
            <stop stop-color="rgb(60,165,101)" offset="100%"></stop>
        </linearGradient>
        <linearGradient x1="50.0094818%" y1="-75.5017171%" x2="50.0094818%" y2="97.4966703%" id="linearGradient-19">
            <stop stop-color="rgb(42,103,66)" offset="0%"></stop>
            <stop stop-color="rgb(46,111,72)" offset="19.9200004%"></stop>
            <stop stop-color="rgb(55,133,84)" offset="56.7399979%"></stop>
            <stop stop-color="rgb(60,165,101)" offset="100%"></stop>
        </linearGradient>
        <linearGradient x1="49.9996691%" y1="8.75919848%" x2="49.9996691%" y2="100.017223%" id="linearGradient-20">
            <stop stop-color="rgb(42,103,66)" offset="0%"></stop>
            <stop stop-color="rgb(46,111,72)" offset="19.9200004%"></stop>
            <stop stop-color="rgb(55,133,84)" offset="56.7399979%"></stop>
            <stop stop-color="rgb(60,165,101)" offset="100%"></stop>
        </linearGradient>
        <linearGradient x1="50.0004956%" y1="-3.14217882%" x2="50.0004956%" y2="99.2108226%" id="linearGradient-21">
            <stop stop-color="rgb(42,103,66)" offset="0%"></stop>
            <stop stop-color="rgb(46,111,72)" offset="19.9200004%"></stop>
            <stop stop-color="rgb(55,133,84)" offset="56.7399979%"></stop>
            <stop stop-color="rgb(60,165,101)" offset="100%"></stop>
        </linearGradient>
        <linearGradient x1="50.0020705%" y1="8.00700369%" x2="50.0020705%" y2="100.027311%" id="linearGradient-22">
            <stop stop-color="rgb(42,103,66)" offset="0%"></stop>
            <stop stop-color="rgb(46,111,72)" offset="19.9200004%"></stop>
            <stop stop-color="rgb(55,133,84)" offset="56.7399979%"></stop>
            <stop stop-color="rgb(60,165,101)" offset="100%"></stop>
        </linearGradient>
        <linearGradient x1="50.0005411%" y1="-75.4408372%" x2="50.0005411%" y2="97.4771905%" id="linearGradient-23">
            <stop stop-color="rgb(42,103,66)" offset="0%"></stop>
            <stop stop-color="rgb(46,111,72)" offset="19.9200004%"></stop>
            <stop stop-color="rgb(55,133,84)" offset="56.7399979%"></stop>
            <stop stop-color="rgb(60,165,101)" offset="100%"></stop>
        </linearGradient>
        <linearGradient x1="50.0001487%" y1="8.74466039%" x2="50.0001487%" y2="100.006993%" id="linearGradient-24">
            <stop stop-color="rgb(42,103,66)" offset="0%"></stop>
            <stop stop-color="rgb(46,111,72)" offset="19.9200004%"></stop>
            <stop stop-color="rgb(55,133,84)" offset="56.7399979%"></stop>
            <stop stop-color="rgb(60,165,101)" offset="100%"></stop>
        </linearGradient>
        <linearGradient x1="50.0028638%" y1="-3.13439574%" x2="50.0028638%" y2="99.1982847%" id="linearGradient-25">
            <stop stop-color="rgb(42,103,66)" offset="0%"></stop>
            <stop stop-color="rgb(46,111,72)" offset="19.9200004%"></stop>
            <stop stop-color="rgb(55,133,84)" offset="56.7399979%"></stop>
            <stop stop-color="rgb(60,165,101)" offset="100%"></stop>
        </linearGradient>
        <linearGradient x1="50.0009055%" y1="8.0035949%" x2="50.0009055%" y2="100.016034%" id="linearGradient-26">
            <stop stop-color="rgb(42,103,66)" offset="0%"></stop>
            <stop stop-color="rgb(46,111,72)" offset="19.9200004%"></stop>
            <stop stop-color="rgb(55,133,84)" offset="56.7399979%"></stop>
            <stop stop-color="rgb(60,165,101)" offset="100%"></stop>
        </linearGradient>
        <linearGradient x1="49.9964542%" y1="-75.4434288%" x2="49.9964542%" y2="97.4679309%" id="linearGradient-27">
            <stop stop-color="rgb(42,103,66)" offset="0%"></stop>
            <stop stop-color="rgb(46,111,72)" offset="19.9200004%"></stop>
            <stop stop-color="rgb(55,133,84)" offset="56.7399979%"></stop>
            <stop stop-color="rgb(60,165,101)" offset="100%"></stop>
        </linearGradient>
        <linearGradient x1="50.0015068%" y1="8.74703169%" x2="50.0015068%" y2="100.013953%" id="linearGradient-28">
            <stop stop-color="rgb(42,103,66)" offset="0%"></stop>
            <stop stop-color="rgb(46,111,72)" offset="19.9200004%"></stop>
            <stop stop-color="rgb(55,133,84)" offset="56.7399979%"></stop>
            <stop stop-color="rgb(60,165,101)" offset="100%"></stop>
        </linearGradient>
        <linearGradient x1="49.9985647%" y1="-3.1340427%" x2="49.9985647%" y2="99.2378714%" id="linearGradient-29">
            <stop stop-color="rgb(42,103,66)" offset="0%"></stop>
            <stop stop-color="rgb(46,111,72)" offset="19.9200004%"></stop>
            <stop stop-color="rgb(55,133,84)" offset="56.7399979%"></stop>
            <stop stop-color="rgb(60,165,101)" offset="100%"></stop>
        </linearGradient>
        <linearGradient x1="50.0026929%" y1="7.99001577%" x2="50.0026929%" y2="100.018217%" id="linearGradient-30">
            <stop stop-color="rgb(42,103,66)" offset="0%"></stop>
            <stop stop-color="rgb(46,111,72)" offset="19.9200004%"></stop>
            <stop stop-color="rgb(55,133,84)" offset="56.7399979%"></stop>
            <stop stop-color="rgb(60,165,101)" offset="100%"></stop>
        </linearGradient>
        <linearGradient x1="49.997108%" y1="-75.4179059%" x2="49.997108%" y2="97.4353183%" id="linearGradient-31">
            <stop stop-color="rgb(42,103,66)" offset="0%"></stop>
            <stop stop-color="rgb(46,111,72)" offset="19.9200004%"></stop>
            <stop stop-color="rgb(55,133,84)" offset="56.7399979%"></stop>
            <stop stop-color="rgb(60,165,101)" offset="100%"></stop>
        </linearGradient>
        <linearGradient x1="50.0000496%" y1="33.1715377%" x2="50.0000496%" y2="107.762301%" id="linearGradient-32">
            <stop stop-color="rgb(158,198,97)" offset="0%"></stop>
            <stop stop-color="rgb(155,196,97)" offset="21.1700007%"></stop>
            <stop stop-color="rgb(146,191,97)" offset="41.2400007%"></stop>
            <stop stop-color="rgb(132,185,98)" offset="60.8699977%"></stop>
            <stop stop-color="rgb(108,175,99)" offset="80.2200019%"></stop>
            <stop stop-color="rgb(73,165,100)" offset="99.21%"></stop>
            <stop stop-color="rgb(71,164,100)" offset="100%"></stop>
        </linearGradient>
        <linearGradient x1="49.9998949%" y1="8.75564975%" x2="49.9998949%" y2="100.009024%" id="linearGradient-33">
            <stop stop-color="rgb(42,103,66)" offset="0%"></stop>
            <stop stop-color="rgb(46,111,72)" offset="19.9200004%"></stop>
            <stop stop-color="rgb(55,133,84)" offset="56.7399979%"></stop>
            <stop stop-color="rgb(60,165,101)" offset="100%"></stop>
        </linearGradient>
        <linearGradient x1="50.0003984%" y1="-3.13654344%" x2="50.0003984%" y2="99.2103374%" id="linearGradient-34">
            <stop stop-color="rgb(42,103,66)" offset="0%"></stop>
            <stop stop-color="rgb(46,111,72)" offset="19.9200004%"></stop>
            <stop stop-color="rgb(55,133,84)" offset="56.7399979%"></stop>
            <stop stop-color="rgb(60,165,101)" offset="100%"></stop>
        </linearGradient>
        <linearGradient x1="49.9998015%" y1="8.0061125%" x2="49.9998015%" y2="100.025156%" id="linearGradient-35">
            <stop stop-color="rgb(42,103,66)" offset="0%"></stop>
            <stop stop-color="rgb(46,111,72)" offset="19.9200004%"></stop>
            <stop stop-color="rgb(55,133,84)" offset="56.7399979%"></stop>
            <stop stop-color="rgb(60,165,101)" offset="100%"></stop>
        </linearGradient>
        <linearGradient x1="50.003279%" y1="-75.4519836%" x2="50.003279%" y2="97.471956%" id="linearGradient-36">
            <stop stop-color="rgb(42,103,66)" offset="0%"></stop>
            <stop stop-color="rgb(46,111,72)" offset="19.9200004%"></stop>
            <stop stop-color="rgb(55,133,84)" offset="56.7399979%"></stop>
            <stop stop-color="rgb(60,165,101)" offset="100%"></stop>
        </linearGradient>
        <linearGradient x1="50.0004244%" y1="8.75136587%" x2="50.0004244%" y2="100.009338%" id="linearGradient-37">
            <stop stop-color="rgb(42,103,66)" offset="0%"></stop>
            <stop stop-color="rgb(46,111,72)" offset="19.9200004%"></stop>
            <stop stop-color="rgb(55,133,84)" offset="56.7399979%"></stop>
            <stop stop-color="rgb(60,165,101)" offset="100%"></stop>
        </linearGradient>
        <linearGradient x1="50.0009029%" y1="-3.14057423%" x2="50.0009029%" y2="99.2093976%" id="linearGradient-38">
            <stop stop-color="rgb(42,103,66)" offset="0%"></stop>
            <stop stop-color="rgb(46,111,72)" offset="19.9200004%"></stop>
            <stop stop-color="rgb(55,133,84)" offset="56.7399979%"></stop>
            <stop stop-color="rgb(60,165,101)" offset="100%"></stop>
        </linearGradient>
        <linearGradient x1="49.9996587%" y1="8.00988302%" x2="49.9996587%" y2="100.030453%" id="linearGradient-39">
            <stop stop-color="rgb(42,103,66)" offset="0%"></stop>
            <stop stop-color="rgb(46,111,72)" offset="19.9200004%"></stop>
            <stop stop-color="rgb(55,133,84)" offset="56.7399979%"></stop>
            <stop stop-color="rgb(60,165,101)" offset="100%"></stop>
        </linearGradient>
        <linearGradient x1="50.0005016%" y1="-75.4347634%" x2="50.0005016%" y2="97.471043%" id="linearGradient-40">
            <stop stop-color="rgb(42,103,66)" offset="0%"></stop>
            <stop stop-color="rgb(46,111,72)" offset="19.9200004%"></stop>
            <stop stop-color="rgb(55,133,84)" offset="56.7399979%"></stop>
            <stop stop-color="rgb(60,165,101)" offset="100%"></stop>
        </linearGradient>
    </defs>
    <g id="Page 1" fill="rgb(223,223,223)" fill-rule="evenodd">
        <g id="farmbackground2" fill="rgb(0,0,0)">
            <g id="Layer_1_1_">
                <g id="Sky">
                    <path d="M11,11 L11,659 L1019,659 L1019,11 L11,11 Z M11,11" id="Sky_1_" fill="url(#linearGradient-1)"></path>
                </g>
                <g id="Sun">
                    <g id="Group">
                        <path d="M210.07901,408.714005 C240.59201,405.647005 253.610008,392.634005 256.672009,362.120003 C284.748009,374.391003 302.876007,369.163003 322.22501,344.367002 C341.57501,369.162003 359.703011,374.391003 387.778011,362.119003 C390.846011,392.633003 403.858011,405.647003 434.373013,408.713005 C422.102013,436.789005 427.330012,454.917004 452.126013,474.266006 C427.331013,493.620007 422.103012,511.746006 434.374012,539.823006 C403.860012,542.889006 390.846012,555.903006 387.778011,586.419006 C359.706011,574.148006 341.580009,579.374006 322.226009,604.171007 C302.877008,579.374006 284.750008,574.146008 256.673008,586.417007 C253.609008,555.904007 240.594007,542.885006 210.079006,539.823006 C222.347006,511.746006 217.123006,493.620007 192.326006,474.266006 C217.122986,454.916992 222.35199,436.789001 210.07901,408.714005 C210.07901,408.714005 222.35199,436.789001 210.07901,408.714005 L210.07901,408.714005" id="Sun_Outside" fill="rgb(234,187,65)"></path>
                        <path d="M322.226013,571.896988 C376.146126,571.896988 419.85701,528.186104 419.85701,474.265991 C419.85701,420.345878 376.146126,376.634995 322.226013,376.634995 C268.3059,376.634995 224.595016,420.345878 224.595016,474.265991 C224.595016,528.186104 268.3059,571.896988 322.226013,571.896988 Z M322.226013,571.896988" id="Sun_Inside" fill="url(#radialGradient-2)"></path>
                    </g>
                </g>
                <g id="Right_Mountain_1_">
                    <path d="M708.89502,375.709991 C853.721024,381.073991 989.096008,377.440991 989.096008,377.440991 L1017.37799,659 L12.252,659 L11,358.929993 C11,358.929993 83.2269974,327.837994 282.006012,335.882992" id="Right_Mountain" fill="url(#linearGradient-3)"></path>
                </g>
                <g id="Trees_Behind_Front_Mountain">
                    <g id="Tree_1_1_">
                        <g id="Group">
                            <path d="M307.114014,368.299988 C311.364014,361.616988 318.329014,361.610988 322.593014,368.284988 L344.442015,402.491989 C348.706015,409.166989 345.713015,414.627988 337.794015,414.627988 L292.050015,414.627988 C284.130015,414.627988 281.127015,409.164988 285.378016,402.477989 L307.114014,368.299988 L307.114014,368.299988 L307.114014,368.299988" id="Shape" fill="url(#linearGradient-4)"></path>
                        </g>
                        <g id="Group">
                            <path d="M307.230988,353.713989 C311.480988,347.031989 318.446987,347.025989 322.709988,353.699989 L337.530988,376.907989 C341.794988,383.58299 338.801988,389.043989 330.881988,389.043989 L299.155988,389.043989 C291.235988,389.043989 288.230988,383.580989 292.483988,376.89399 L307.230988,353.713989 L307.230988,353.713989 L307.230988,353.713989" id="Shape" fill="url(#linearGradient-5)"></path>
                        </g>
                        <g id="Group">
                            <path d="M307.240997,341.256012 C311.490997,334.574012 318.455997,334.568012 322.719997,341.241012 L330.558998,353.512012 C334.826998,360.191012 331.832998,365.652012 323.912998,365.652012 L306.124998,365.652012 C298.204998,365.652012 295.201997,360.184012 299.452998,353.503012 L307.240997,341.256012 L307.240997,341.256012 L307.240997,341.256012" id="Shape" fill="url(#linearGradient-6)"></path>
                        </g>
                        <g id="Group">
                            <path d="M307.256012,330.880005 C311.506012,324.198005 318.468012,324.192005 322.735012,330.866005 L323.199012,331.592005 C327.462012,338.266005 324.470012,343.726005 316.550012,343.726005 L313.488012,343.726005 C305.566012,343.726005 302.563012,338.262004 306.814012,331.580005 L307.256012,330.880005 L307.256012,330.880005 L307.256012,330.880005" id="Shape" fill="url(#linearGradient-7)"></path>
                        </g>
                    </g>
                    <g id="Tree_1">
                        <g id="Group">
                            <path d="M354.03299,341.855011 C358.28299,335.167011 365.248989,335.161011 369.51199,341.835011 L410.140991,405.452012 C414.407991,412.127012 411.414991,417.588011 403.494991,417.588011 L320.26001,417.588011 C312.34001,417.588011 309.33801,412.125011 313.58801,405.442011 L354.03299,341.855011 L354.03299,341.855011 L354.03299,341.855011" id="Shape" fill="url(#linearGradient-8)"></path>
                        </g>
                        <g id="Group">
                            <path d="M354.205994,319.928986 C358.455994,313.245986 365.419993,313.239985 369.684994,319.913986 L399.754993,367.001987 C404.019993,373.676987 401.029993,379.137987 393.108994,379.137987 L330.942993,379.137987 C323.021993,379.137987 320.017993,373.674987 324.271993,366.991987 L354.205994,319.928986 L354.205994,319.928986 L354.205994,319.928986" id="Shape" fill="url(#linearGradient-9)"></path>
                        </g>
                        <g id="Group">
                            <path d="M354.226013,301.20401 C358.476013,294.52101 365.444014,294.51401 369.705013,301.18901 L389.283012,331.84501 C393.547012,338.52601 390.554012,343.98701 382.635013,343.98701 L341.415011,343.98701 C333.495011,343.98701 330.493011,338.51901 334.744011,331.837011 L354.226013,301.20401 L354.226013,301.20401 L354.226013,301.20401" id="Shape" fill="url(#linearGradient-10)"></path>
                        </g>
                        <g id="Group">
                            <path d="M354.251007,285.613007 C358.501007,278.930007 365.466007,278.923007 369.730007,285.599007 L378.221007,298.898006 C382.487007,305.573007 379.495007,311.034006 371.575007,311.034006 L352.477008,311.034006 C344.557008,311.034006 341.555008,305.567006 345.805008,298.884006 L354.251007,285.613007 L354.251007,285.613007 L354.251007,285.613007" id="Shape" fill="url(#linearGradient-11)"></path>
                        </g>
                    </g>
                    <g id="Tree_1_3_">
                        <g id="Group">
                            <path d="M354.03299,341.855011 C358.28299,335.167011 365.248989,335.161011 369.51199,341.835011 L410.140991,405.452012 C414.407991,412.127012 411.414991,417.588011 403.494991,417.588011 L320.26001,417.588011 C312.34001,417.588011 309.33801,412.125011 313.58801,405.442011 L354.03299,341.855011 L354.03299,341.855011 L354.03299,341.855011" id="Shape" fill="url(#linearGradient-8)"></path>
                        </g>
                        <g id="Group">
                            <path d="M354.205994,319.928986 C358.455994,313.245986 365.419993,313.239985 369.684994,319.913986 L399.754993,367.001987 C404.019993,373.676987 401.029993,379.137987 393.108994,379.137987 L330.942993,379.137987 C323.021993,379.137987 320.017993,373.674987 324.271993,366.991987 L354.205994,319.928986 L354.205994,319.928986 L354.205994,319.928986" id="Shape" fill="url(#linearGradient-9)"></path>
                        </g>
                        <g id="Group">
                            <path d="M354.226013,301.20401 C358.476013,294.52101 365.444014,294.51401 369.705013,301.18901 L389.283012,331.84501 C393.547012,338.52601 390.554012,343.98701 382.635013,343.98701 L341.415011,343.98701 C333.495011,343.98701 330.493011,338.51901 334.744011,331.837011 L354.226013,301.20401 L354.226013,301.20401 L354.226013,301.20401" id="Shape" fill="url(#linearGradient-10)"></path>
                        </g>
                        <g id="Group">
                            <path d="M354.251007,285.613007 C358.501007,278.930007 365.466007,278.923007 369.730007,285.599007 L378.221007,298.898006 C382.487007,305.573007 379.495007,311.034006 371.575007,311.034006 L352.477008,311.034006 C344.557008,311.034006 341.555008,305.567006 345.805008,298.884006 L354.251007,285.613007 L354.251007,285.613007 L354.251007,285.613007" id="Shape" fill="url(#linearGradient-11)"></path>
                        </g>
                    </g>
                    <g id="Tree_1_2_">
                        <g id="Group">
                            <path d="M273.60199,383.321991 C277.85199,376.633991 284.81499,376.627991 289.08099,383.302991 L301.85199,403.30399 C306.11999,409.98399 303.12599,415.44499 295.20599,415.44499 L267.56699,415.44499 C259.64399,415.44499 256.64099,409.97799 260.89199,403.29599 L273.60199,383.321991 L273.60199,383.321991 L273.60199,383.321991" id="Shape" fill="url(#linearGradient-12)"></path>
                        </g>
                        <g id="Group">
                            <path d="M273.682007,372.278992 C277.932007,365.590991 284.897007,365.584992 289.161007,372.259992 L296.617007,383.938992 C300.880007,390.614992 297.888007,396.075992 289.968007,396.075992 L272.947007,396.075992 C265.025007,396.075992 262.022007,390.612992 266.273007,383.925992 L273.682007,372.278992 L273.682007,372.278992 L273.682007,372.278992" id="Shape" fill="url(#linearGradient-13)"></path>
                        </g>
                        <g id="Group">
                            <path d="M273.694,362.846008 C277.944,356.164008 284.91,356.158008 289.173,362.832008 L291.343,366.230008 C295.608,372.904008 292.618,378.366008 284.697001,378.366008 L278.222001,378.366008 C270.301001,378.366008 267.299,372.903008 271.550001,366.216008 L273.694,362.846008 L273.694,362.846008 L273.694,362.846008" id="Shape" fill="url(#linearGradient-14)"></path>
                        </g>
                        <g id="Group">
                            <path d="M287.47699,352.303009 C290.80099,357.508009 288.09199,361.767009 281.45699,361.767009 C274.82299,361.767009 272.10199,357.508009 275.41399,352.303009 C278.725006,347.097992 284.153015,347.097992 287.47699,352.303009 C287.47699,352.303009 284.153015,347.097992 287.47699,352.303009 L287.47699,352.303009" id="Shape" fill="url(#linearGradient-15)"></path>
                        </g>
                    </g>
                    <g id="Tree_1_7_">
                        <g id="Group">
                            <path d="M101.165001,339.493988 C104.953001,345.422988 101.869001,350.276988 94.3070011,350.276988 C86.7460012,350.276988 83.6470013,345.423988 87.4190011,339.493988 C91.1910019,333.563995 97.3769989,333.565002 101.165001,339.493988 C101.165001,339.493988 97.3769989,333.565002 101.165001,339.493988 L101.165001,339.493988" id="Shape" fill="url(#linearGradient-16)"></path>
                        </g>
                        <g id="Group">
                            <path d="M99.9120026,332.088013 C102.988003,336.906013 100.480003,340.844012 94.3420024,340.844012 C88.2040024,340.844012 85.6880021,336.905012 88.7510023,332.088013 C91.814003,327.272003 96.8359985,327.272003 99.9120026,332.088013 C99.9120026,332.088013 96.8359985,327.272003 99.9120026,332.088013 L99.9120026,332.088013" id="Shape" fill="url(#linearGradient-17)"></path>
                        </g>
                        <g id="Group">
                            <path d="M98.6289978,325.47699 C100.996998,329.18299 99.0709978,332.21599 94.342998,332.21599 C89.6179981,332.21599 87.6809978,329.18399 90.0389981,325.47699 C92.3960037,321.770996 96.262001,321.770996 98.6289978,325.47699 C98.6289978,325.47699 96.262001,321.770996 98.6289978,325.47699 L98.6289978,325.47699" id="Shape" fill="url(#linearGradient-18)"></path>
                        </g>
                        <g id="Group">
                            <path d="M97.2750015,319.520996 C98.8940015,322.051996 97.5710015,324.125996 94.3380015,324.125996 C91.1090014,324.125996 89.7860014,322.051996 91.3980014,319.520996 C93.0110016,316.984985 95.6569977,316.984985 97.2750015,319.520996 C97.2750015,319.520996 95.6569977,316.984985 97.2750015,319.520996 L97.2750015,319.520996" id="Shape" fill="url(#linearGradient-19)"></path>
                        </g>
                    </g>
                    <g id="Tree_1_4_">
                        <g id="Group">
                            <path d="M399.696014,362.597992 C403.946014,355.914992 410.912014,355.909992 415.175014,362.582992 L439.810015,401.156993 C444.077015,407.832993 441.084015,413.293993 433.164015,413.293993 L381.852015,413.293993 C373.932014,413.293993 370.930015,407.830994 375.180015,401.147993 L399.696014,362.597992 L399.696014,362.597992 L399.696014,362.597992" id="Shape" fill="url(#linearGradient-20)"></path>
                        </g>
                        <g id="Group">
                            <path d="M399.816986,346.921997 C404.066986,340.239997 411.032986,340.233997 415.295986,346.907997 L432.382986,373.662996 C436.646986,380.337996 433.657986,385.798996 425.736986,385.798996 L389.48999,385.798996 C381.56999,385.798996 378.56799,380.335996 382.81799,373.652996 L399.816986,346.921997 L399.816986,346.921997 L399.816986,346.921997" id="Shape" fill="url(#linearGradient-21)"></path>
                        </g>
                        <g id="Group">
                            <path d="M399.838013,333.536011 C404.088013,326.849011 411.051013,326.843011 415.317013,333.522011 L424.898013,348.527011 C429.164013,355.203011 426.171013,360.664011 418.252013,360.664011 L396.980011,360.664011 C389.058011,360.664011 386.056011,355.201011 390.307011,348.514011 L399.838013,333.536011 L399.838013,333.536011 L399.838013,333.536011" id="Shape" fill="url(#linearGradient-22)"></path>
                        </g>
                        <g id="Group">
                            <path d="M399.851013,322.381012 C404.101013,315.699012 411.065013,315.692012 415.330013,322.367012 L416.986013,324.961012 C421.249013,331.636012 418.257013,337.098012 410.337013,337.098012 L404.891013,337.098012 C396.971013,337.098012 393.968013,331.634012 398.219013,324.952012 L399.851013,322.381012 L399.851013,322.381012 L399.851013,322.381012" id="Shape" fill="url(#linearGradient-23)"></path>
                        </g>
                    </g>
                    <g id="Tree_1_5_">
                        <g id="Group">
                            <path d="M114.392998,329.475006 C118.642998,322.792006 125.609998,322.786006 129.871998,329.460006 L132.580998,333.701006 C136.843998,340.376006 133.851998,345.837006 125.931998,345.837006 L118.385998,345.837006 C110.465998,345.837006 107.462997,340.374006 111.713998,333.688006 L114.392998,329.475006 L114.392998,329.475006 L114.392998,329.475006" id="Shape" fill="url(#linearGradient-24)"></path>
                        </g>
                        <g id="Group">
                            <path d="M129.571999,321.786987 C133.632998,328.153987 130.481999,333.362988 122.561998,333.362988 L121.847998,333.362988 C113.927998,333.362988 110.760998,328.153987 114.813998,321.786987 C118.862999,315.42099 125.503998,315.42099 129.571999,321.786987 C129.571999,321.786987 125.503998,315.42099 129.571999,321.786987 L129.571999,321.786987" id="Shape" fill="url(#linearGradient-25)"></path>
                        </g>
                        <g id="Group">
                            <path d="M127.874001,313.046997 C131.004001,317.946997 128.453001,321.956997 122.207001,321.956997 C115.960001,321.956997 113.403001,317.946997 116.516001,313.046997 C119.633003,308.145996 124.744003,308.147003 127.874001,313.046997 C127.874001,313.046997 124.744003,308.147003 127.874001,313.046997 L127.874001,313.046997" id="Shape" fill="url(#linearGradient-26)"></path>
                        </g>
                        <g id="Group">
                            <path d="M126.084999,305.171997 C128.226999,308.523997 126.480999,311.266997 122.208999,311.266997 C117.930999,311.266997 116.178999,308.523997 118.313999,305.171997 C120.445999,301.820007 123.941002,301.820007 126.084999,305.171997 C126.084999,305.171997 123.941002,301.820007 126.084999,305.171997 L126.084999,305.171997" id="Shape" fill="url(#linearGradient-27)"></path>
                        </g>
                    </g>
                    <g id="Tree_1_6_">
                        <g id="Group">
                            <path d="M102.667,340.881012 C106.917,334.198012 113.881,334.192012 118.146,340.865012 L120.855,345.107012 C125.12,351.781012 122.127,357.242012 114.208,357.242012 L106.662,357.242012 C98.7420001,357.242012 95.7389998,351.780012 99.9900002,345.092013 L102.667,340.881012 L102.667,340.881012 L102.667,340.881012" id="Shape" fill="url(#linearGradient-28)"></path>
                        </g>
                        <g id="Group">
                            <path d="M117.847,333.192993 C121.912,339.555993 118.759,344.764993 110.839,344.764993 L110.128,344.764993 C102.208,344.764993 99.0410003,339.555993 103.091,333.192993 C107.139999,326.826996 113.779999,326.826996 117.847,333.192993 C117.847,333.192993 113.779999,326.826996 117.847,333.192993 L117.847,333.192993" id="Shape" fill="url(#linearGradient-29)"></path>
                        </g>
                        <g id="Group">
                            <path d="M116.150002,324.453003 C119.280002,329.349003 116.724002,333.363003 110.482001,333.363003 C104.236001,333.363003 101.675001,329.348003 104.792001,324.453003 C107.908997,319.552002 113.019997,319.553009 116.150002,324.453003 C116.150002,324.453003 113.019997,319.553009 116.150002,324.453003 L116.150002,324.453003" id="Shape" fill="url(#linearGradient-30)"></path>
                        </g>
                        <g id="Group">
                            <path d="M114.362,316.578003 C116.504999,319.930003 114.758,322.673003 110.487,322.673003 C106.21,322.673003 104.458,319.930003 106.591,316.578003 C108.723,313.226013 112.219002,313.226013 114.362,316.578003 C114.362,316.578003 112.219002,313.226013 114.362,316.578003 L114.362,316.578003" id="Shape" fill="url(#linearGradient-31)"></path>
                        </g>
                    </g>
                </g>
                <g id="Left_Mountain_1_">
                    <path d="M331.059998,399.222992 C188.380997,404.140015 11,368.871002 11,368.871002 L11,659 L1019,659 L1019,363.01001 C1019,363.01001 990.83,338.983009 794.996002,346.36001" id="Left_Mountain" fill="url(#linearGradient-32)"></path>
                </g>
                <g id="Trees_in_Front_of_Left_Mountain">
                    <g id="Tree_1_8_">
                        <g id="Group">
                            <path d="M930.486023,396.488007 C934.736023,389.800006 941.702023,389.794007 945.965023,396.467007 L995.940022,474.717007 C1000.20302,481.398007 997.211022,486.859007 989.291021,486.859007 L887.400024,486.859007 C879.480024,486.859007 876.478024,481.392007 880.728024,474.709007 L930.486023,396.488007 L930.486023,396.488007 L930.486023,396.488007" id="Shape" fill="url(#linearGradient-33)"></path>
                        </g>
                        <g id="Group">
                            <path d="M930.682007,370.910004 C934.932007,364.224004 941.899007,364.217004 946.161007,370.896004 L983.822006,429.866005 C988.085006,436.540005 985.093006,442.001005 977.173006,442.001005 L899.860003,442.001005 C891.940002,442.001005 888.938003,436.539005 893.190002,429.855005 L930.682007,370.910004 L930.682007,370.910004 L930.682007,370.910004" id="Shape" fill="url(#linearGradient-34)"></path>
                        </g>
                        <g id="Group">
                            <path d="M930.70697,349.071991 C934.95697,342.383991 941.92297,342.377991 946.18597,349.052991 L971.60597,388.85999 C975.86897,395.53499 972.87697,400.99599 964.95697,400.99599 L912.078972,400.99599 C904.158972,400.99599 901.157972,395.53399 905.407972,388.84599 L930.70697,349.071991 L930.70697,349.071991 L930.70697,349.071991" id="Shape" fill="url(#linearGradient-35)"></path>
                        </g>
                        <g id="Group">
                            <path d="M930.731995,330.875 C934.981995,324.191 941.948995,324.182 946.210995,330.861 L958.698995,350.417 C962.961995,357.091 959.969995,362.552999 952.049994,362.552999 L924.981994,362.552999 C917.061994,362.552999 914.061994,357.09 918.311994,350.407 L930.731995,330.875 L930.731995,330.875 L930.731995,330.875" id="Shape" fill="url(#linearGradient-36)"></path>
                        </g>
                    </g>
                    <g id="Tree_1_9_">
                        <g id="Group">
                            <path d="M867.164001,402.380005 C871.414001,395.697005 878.380001,395.692005 882.643002,402.366005 L948.973003,506.221008 C953.235003,512.901008 950.244003,518.362008 942.324003,518.362008 L807.786987,518.362008 C799.866987,518.362008 796.865988,512.894008 801.115987,506.212008 L867.164001,402.380005 L867.164001,402.380005 L867.164001,402.380005" id="Shape" fill="url(#linearGradient-37)"></path>
                        </g>
                        <g id="Group">
                            <path d="M867.408997,370.415009 C871.659997,363.733008 878.625997,363.725008 882.887997,370.401009 L933.828999,450.164009 C938.091999,456.839009 935.099999,462.300009 927.180999,462.300009 L823.360999,462.300009 C815.440999,462.300009 812.438999,456.837009 816.688999,450.154009 L867.408997,370.415009 L867.408997,370.415009 L867.408997,370.415009" id="Shape" fill="url(#linearGradient-38)"></path>
                        </g>
                        <g id="Group">
                            <path d="M867.439026,343.115997 C871.689026,336.428998 878.654026,336.421998 882.918026,343.100997 L918.559025,398.910999 C922.823025,405.584998 919.830025,411.046998 911.911025,411.046998 L838.632026,411.046998 C830.712026,411.046998 827.710026,405.583999 831.961026,398.900998 L867.439026,343.115997 L867.439026,343.115997 L867.439026,343.115997" id="Shape" fill="url(#linearGradient-39)"></path>
                        </g>
                        <g id="Group">
                            <path d="M867.471008,320.381012 C871.721008,313.698012 878.688008,313.691012 882.950008,320.367012 L902.429008,350.869013 C906.693008,357.544013 903.700009,363.005012 895.781009,363.005012 L854.759009,363.005012 C846.839009,363.005012 843.837009,357.543013 848.088009,350.859013 L867.471008,320.381012 L867.471008,320.381012 L867.471008,320.381012" id="Shape" fill="url(#linearGradient-40)"></path>
                        </g>
                    </g>
                </g>
                <g id="Right_Cloud">
                    <path d="M209.676554,203.960229 C245.431525,203.960229 274.416653,176.398307 274.416653,142.39895 C274.416653,108.399592 245.431525,80.8376702 209.676554,80.8376702 C173.921583,80.8376702 144.936455,108.399592 144.936455,142.39895 C144.936455,176.398307 173.921583,203.960229 209.676554,203.960229 Z M209.676554,203.960229" id="_x31_2" fill="rgb(254,255,255)" transform="translate(133.676554, 77.3989496) rotate(-353) translate(-133.676554, -77.3989496)"></path>
                    <path d="M145.007071,158.015317 C176.810772,158.015317 202.592763,140.514503 202.592763,118.926154 C202.592763,97.3378044 176.810772,79.8369912 145.007071,79.8369912 C113.20337,79.8369912 87.4213795,97.3378044 87.4213795,118.926154 C87.4213795,140.514503 113.20337,158.015317 145.007071,158.015317 Z M145.007071,158.015317" id="_x31_1" fill="rgb(254,255,255)" transform="translate(69.0070712, 53.9261539) rotate(-353) translate(-69.0070712, -53.9261539)"></path>
                    <path d="M251.064042,142.583117 C267.731276,142.583117 281.242736,131.451072 281.242736,117.718996 C281.242736,103.986921 267.731276,92.8548752 251.064042,92.8548752 C234.396809,92.8548752 220.885348,103.986921 220.885348,117.718996 C220.885348,131.451072 234.396809,142.583117 251.064042,142.583117 Z M251.064042,142.583117" id="_x31_0" fill="rgb(254,255,255)" transform="translate(175.064042, 52.7189963) rotate(-353) translate(-175.064042, -52.7189963)"></path>
                    <path d="M176.498382,128.451969 C194.027566,128.451969 208.237776,116.751372 208.237776,102.317952 C208.237776,87.8845323 194.027566,76.1839349 176.498382,76.1839349 C158.969197,76.1839349 144.758987,87.8845323 144.758987,102.317952 C144.758987,116.751372 158.969197,128.451969 176.498382,128.451969 Z M176.498382,128.451969" id="_x38_" fill="rgb(254,255,255)" transform="translate(100.498382, 37.3179522) rotate(-353) translate(-100.498382, -37.3179522)"></path>
                    <path d="M266.673297,191.067516 C296.783096,191.067516 321.191908,176.277326 321.191908,158.0327 C321.191908,139.788075 296.783096,124.997885 266.673297,124.997885 C236.563497,124.997885 212.154685,139.788075 212.154685,158.0327 C212.154685,176.277326 236.563497,191.067516 266.673297,191.067516 Z M266.673297,191.067516" id="_x37_" fill="rgb(254,255,255)" transform="translate(190.673297, 93.0327002) rotate(-353) translate(-190.673297, -93.0327002)"></path>
                    <path d="M153.739432,198.859665 C173.59217,198.859665 189.685993,184.499746 189.685993,166.785886 C189.685993,149.072025 173.59217,134.712106 153.739432,134.712106 C133.886693,134.712106 117.792871,149.072025 117.792871,166.785886 C117.792871,184.499746 133.886693,198.859665 153.739432,198.859665 Z M153.739432,198.859665" id="_x36_" fill="rgb(254,255,255)" transform="translate(77.7394318, 101.785886) rotate(-57) translate(-77.7394318, -101.785886)"></path>
                </g>
                <g id="Left_Cloud">
                    <path d="M876.998871,225.50699 C921.208743,225.50699 957.047921,202.041527 957.047921,173.095408 C957.047921,144.149289 921.208743,120.683826 876.998871,120.683826 C832.789,120.683826 796.949821,144.149289 796.949821,173.095408 C796.949821,202.041527 832.789,225.50699 876.998871,225.50699 Z M876.998871,225.50699" id="_x35_" fill="rgb(254,255,255)" transform="translate(166.998871, 73.0954082) rotate(-352) translate(-166.998871, -73.0954082)"></path>
                    <path d="M904.22353,208.375319 C934.257222,208.375319 958.604337,187.865221 958.604337,162.56473 C958.604337,137.26424 934.257222,116.754142 904.22353,116.754142 C874.189838,116.754142 849.842722,137.26424 849.842722,162.56473 C849.842722,187.865221 874.189838,208.375319 904.22353,208.375319 Z M904.22353,208.375319" id="_x34_" fill="rgb(254,255,255)" transform="translate(194.22353, 62.5647303) rotate(-352) translate(-194.22353, -62.5647303)"></path>
                    <path d="M818.823975,198.841003 C843.007974,198.841003 862.612976,179.236001 862.612976,155.052002 C862.612976,130.868003 843.007974,111.263 818.823975,111.263 C794.639976,111.263 775.034973,130.868003 775.034973,155.052002 C775.034973,179.236001 794.639976,198.841003 818.823975,198.841003 Z M818.823975,198.841003" id="_x33_" fill="rgb(254,255,255)"></path>
                    <path d="M937.03018,221.027818 C964.410244,221.027818 986.606169,208.526554 986.606169,193.105462 C986.606169,177.684369 964.410244,165.183105 937.03018,165.183105 C909.650115,165.183105 887.45419,177.684369 887.45419,193.105462 C887.45419,208.526554 909.650115,221.027818 937.03018,221.027818 Z M937.03018,221.027818" id="_x32_" fill="rgb(254,255,255)" transform="translate(227.03018, 93.1054618) rotate(-352) translate(-227.03018, -93.1054618)"></path>
                    <path d="M801.248608,226.398831 C845.458556,226.398831 881.297797,202.932925 881.297797,173.986259 C881.297797,145.039594 845.458556,121.573687 801.248608,121.573687 C757.038659,121.573687 721.199419,145.039594 721.199419,173.986259 C721.199419,202.932925 757.038659,226.398831 801.248608,226.398831 Z M801.248608,226.398831" id="_x31_" fill="rgb(254,255,255)" transform="translate(91.2486078, 73.9862591) rotate(-352) translate(-91.2486078, -73.9862591)"></path>
                </g>
            </g>
            <path d="M483.683014,605.099976 L478.313995,606.78302 L426.747986,423.640991 L483.683014,605.099976 Z M483.683014,605.099976" id="Shape" stroke="rgb(0,0,0)" stroke-width="1" fill="rgb(254,255,255)"></path>
            <path d="M12.1390001,629.208008 L12.1390001,634.833008 L475.938011,634.833008 L475.938011,629.208008 L12.1390001,629.208008 Z M12.1390001,629.208008" id="Rectangle" stroke="rgb(0,0,0)" stroke-width="1" fill="rgb(254,255,255)"></path>
            <path d="M12.0880001,613.965027 L12.0880001,619.590027 L476.900012,619.590027 L476.900012,613.965027 L12.0880001,613.965027 Z M12.0880001,613.965027" id="Rectangle" stroke="rgb(0,0,0)" stroke-width="1" fill="rgb(254,255,255)"></path>
            <g id="Barn">
                <path d="M98.1880035,370.390991 L108.188004,364.640991 L106.438004,356.572998 L90.2799988,345.213013 L64.6699982,345.600006 L49.6879997,354.734009 L43.6879997,371.890991 L55.6879997,373.223999 L98.1880035,370.390991 Z M98.1880035,370.390991" id="Shape" fill="rgb(105,105,105)"></path>
                <path d="M122.688004,397.143005 L118.438004,420.393005 L112.438004,482.497005 L94.6630039,498.945005 C94.6630039,498.945005 92.188004,501.890005 80.9380035,498.945005 C75.7090034,497.574005 72.6880035,493.140006 72.6880035,493.140006 L70.1880035,486.890006 C70.1880035,486.890006 63.6880035,460.640006 55.9380035,414.140006 C48.3520036,368.626006 50.1880035,372.640006 50.1880035,372.640006 C50.1880035,372.640006 51.4380035,359.621006 75.4380035,356.890006 C96.4220028,354.501006 103.438004,366.390006 103.438004,366.390006 L106.938004,392.390006 L122.688004,397.143005 L122.688004,397.143005 L122.688004,397.143005" id="Shape" fill="rgb(239,185,126)"></path>
                <path d="M58.5870018,428.983002 C58.5870018,428.983002 70.7530022,416.443002 88.1490021,415.171001 C104.680002,413.963001 109.489002,420.192001 109.489002,420.192001 L109.235002,423.305001 C109.235002,423.305001 105.638002,416.713001 87.9100015,418.034001 C74.3250014,419.047001 59.1270005,432.339002 59.1270005,432.339002 L58.5870018,428.983002 L58.5870018,428.983002 L58.5870018,428.983002" id="Shape" fill="rgb(214,147,78)"></path>
                <path d="M230.104004,475.475006 L223.606003,501.584991 L187.820007,512.846008 L182.604004,511.475006 L177.938004,454.308014 L232.270996,452.141998 L230.104004,475.475006 Z M230.104004,475.475006" id="Shape" fill="rgb(225,70,62)"></path>
                <path d="M64.0760002,458.114014 C64.0760002,458.114014 75.4660006,446.374014 91.7509995,445.183014 C107.23,444.051014 111.73,449.881014 111.73,449.881014 L111.493,452.799014 C111.493,452.799014 108.128,446.627014 91.5289988,447.863014 C78.8119988,448.814014 64.5839991,461.255014 64.5839991,461.255014 L64.0760002,458.114014 L64.0760002,458.114014 L64.0760002,458.114014" id="Shape" fill="rgb(214,147,78)"></path>
                <path d="M53.5929985,399.807007 C53.5929985,399.807007 66.2879982,386.727007 84.4379978,385.403007 C101.687998,384.138007 106.701998,390.636006 106.701998,390.636006 L106.433998,393.888006 C106.433998,393.888006 102.687998,387.009006 84.1879975,388.388006 C70.0119978,389.448006 54.1589981,403.315006 54.1589981,403.315006 L53.5929985,399.807007 L53.5929985,399.807007 L53.5929985,399.807007" id="Shape" fill="rgb(214,147,78)"></path>
                <path d="M238.871994,443.527008 L170.051994,448.783008 L177.183994,513.596012 L182.689994,515.473012 L187.822994,512.845012 L183.095994,461.338012 L223.605992,501.58401 L227.269992,498.14101 L185.121994,456.798011 C185.121994,456.798011 189.286994,453.856012 206.995994,453.152012 C220.610994,452.609012 222.602994,453.152012 222.602994,453.152012 L184.769994,506.64101 L187.822994,512.84501 L228.283993,457.32401 L223.605993,501.584008 L229.417993,500.968008 L231.864993,498.330008 L238.871994,443.527008 L238.871994,443.527008 L238.871994,443.527008" id="Shape" fill="rgb(254,255,255)"></path>
                <path d="M98.7129974,394.071991 L78.447998,442.200012 L82.5,447.773987 L84.887001,457.819 L136.202003,462.464996 L208.141006,437.134003 L247.656006,448.278992 L266.401001,444.480988 L250.695999,393.565002 L225.203995,361.910004 L205.606995,359.622009 L128.603996,368.743011 L98.7129974,394.071991 Z M98.7129974,394.071991" id="Shape" fill="rgb(187,187,187)"></path>
                <path d="M229.412994,500.968994 L236.505994,448.787994 C236.505994,448.787994 234.847994,444.790994 205.099994,446.099994 C185.285995,446.971994 173.745994,451.319994 173.745994,451.319994 L181.288994,514.644995 L168.115994,520.215995 L94.6579938,498.941995 L82.4989934,447.773996 L153.932992,451.319996 L177.744992,391.540996 L203.075991,368.742996 L218.273991,372.795996 L239.547991,400.658997 L253.735991,446.761997 L242.589991,496.408997 L229.412994,500.968994 L229.412994,500.968994 L229.412994,500.968994" id="Shape" fill="rgb(225,70,62)"></path>
                <path d="M75.9380035,351.890015 C52.8620033,352.800015 43.6880035,371.890015 43.6880035,371.890015 C43.6880035,371.890015 40.0400035,361.720015 43.3630036,350.520014 C46.1450036,341.140014 54.4690035,330.538013 67.6880043,329.395014 C110.090005,325.743014 108.188004,364.641012 108.188004,364.641012 C108.188004,364.641012 102.782997,350.833008 75.9380035,351.890015 C75.9380035,351.890015 102.782997,350.833008 75.9380035,351.890015 L75.9380035,351.890015" id="Shape" fill="rgb(187,187,187)"></path>
                <path d="M126.375,459.640991 L142.25,462.015991 L146.25,490.765991 L128.375,487.515991 L129.269997,489.006012 L144.897995,493.877991 L148.188004,494.890991 L149.854004,492.808014 L145.104004,458.390991 L124.103996,455.140991 L122.061996,457.390991 L127.811996,488.828003 L130.688004,490.140991 L126.375,459.640991 Z M126.375,459.640991" id="Shape" fill="rgb(213,213,213)"></path>
                <path d="M102.811996,481.203003 L103.438004,483.640991 L116.061996,486.890991 L120.061996,491.781006 L121.353996,489.223999 L115.046997,455.484009 L95.5199966,452.058014 L94.7129974,454.157013 L102.25,483.515991 L105.595001,484.196014 L99.2600021,456.01001 L111.25,457.765991 L116.5,485.078003 L102.811996,481.203003 Z M102.811996,481.203003" id="Shape" fill="rgb(213,213,213)"></path>
                <path d="M122.061996,457.388 L126.686996,491.263 L148.186996,494.888 L143.850996,459.771999 L122.061996,457.388 L122.061996,457.388 L122.061996,457.388 M125.061996,460.325012 L141.561996,462.763012 L145.499996,491.782011 L129.499996,488.704011 L125.061996,460.325012 L125.061996,460.325012 L125.061996,460.325012" id="Shape" fill="rgb(254,255,255)"></path>
                <path d="M94.7129974,454.160004 L102.062997,487.284004 L120.065998,491.784004 L113.103998,456.890003 L94.7129974,454.160004 L94.7129974,454.160004 L94.7129974,454.160004 M98.0810013,456.984009 L111,458.890991 L116,485.702991 L104.188,482.827991 L98.0810013,456.984009 L98.0810013,456.984009 L98.0810013,456.984009" id="Shape" fill="rgb(254,255,255)"></path>
                <path d="M82,433.085999 L154,435.085999" id="Path" stroke="rgb(118,118,118)" stroke-width="1"></path>
                <path d="M90.1090012,412.817993 L163.109001,413.817993" id="Path" stroke="rgb(118,118,118)" stroke-width="1"></path>
                <path d="M97.9410019,393.808014 L172.941002,389.808014" id="Path" stroke="rgb(118,118,118)" stroke-width="1"></path>
                <path d="M224.604004,432.339996 L188.770996,430.641998 L192.604004,390.975006 L225.438004,392.975006 L224.604004,432.339996 Z M224.604004,432.339996" id="Shape" fill="rgb(254,255,255)"></path>
                <path d="M115.024002,378.911011 L190.024002,373.911011" id="Path" stroke="rgb(118,118,118)" stroke-width="1"></path>
                <path d="M128.103996,368.015991 L205.103996,360.015991" id="Path" stroke="rgb(118,118,118)" stroke-width="1"></path>
                <path d="M78.447998,442.200012 L82.5,447.773987 L153.932999,451.320007 L177.742996,391.540985 L207.604004,363.977997 L223.436005,365.808014 L247.514999,395.752014 L262.524994,445.266998 L266.401001,444.480988 L250.987,394.51001 L225.203995,361.910004 L205.606995,359.622009 L173.746994,390.308014 L149.854004,446.973999 L118.435997,445.040009 L78.447998,442.200012 Z M78.447998,442.200012" id="Shape" fill="rgb(234,234,234)"></path>
                <path d="M222.770996,365.308014 L217.770996,372.308014" id="Path" stroke="rgb(118,118,118)" stroke-width="1"></path>
                <path d="M247.050003,395.252014 L239.050003,400.252014" id="Path" stroke="rgb(118,118,118)" stroke-width="1"></path>
                <path d="M262.235001,444.766998 L253.235001,445.766998" id="Path" stroke="rgb(118,118,118)" stroke-width="1"></path>
                <path d="M222.438004,429.30899 L219.104004,429.30899 L196.104004,427.641998 L196.104004,401.30899 L196.104004,394.071991 L223.104004,395.752014 L222.438004,429.30899 Z M222.438004,429.30899" id="Shape" fill="rgb(213,213,213)"></path>
                <path d="M142.623993,460.203003 L139.628998,461.259003 L128.375,487.515991 L127.111,490.640015 L131.487999,491.781006 L142.623993,464.705994 L142.623993,460.203003 Z M142.623993,460.203003" id="Shape" fill="rgb(250,250,250)"></path>
                <path d="M123.603996,457.390991 L123.603996,461.259003 L142.623993,491.227997 L143.309998,493.382996 L145.895996,492.472992 L145.895996,488.214996 L125.938004,458.807007 L123.603996,457.390991 Z M123.603996,457.390991" id="Shape" fill="rgb(254,255,255)"></path>
                <path d="M109.487,457.390991 L101.219002,479.5 L103.771004,485.140015 L111.728996,458.807007 L109.487,457.390991 Z M109.487,457.390991" id="Shape" fill="rgb(250,250,250)"></path>
                <path d="M96.7710037,457.390991 L99.3769989,462.464996 L115.067001,486.63501 L117.916,489.157013 L117.438004,482.493988 L97.7710037,455.140991 L96.7710037,457.390991 Z M96.7710037,457.390991" id="Shape" fill="rgb(250,250,250)"></path>
                <path d="M224.147995,495.298004 L227.302994,458.667999 L228.281006,457.325012 L232.270996,452.141998 L224.526993,450.605988 L222.604004,453.148987 L211.438004,452.997009 L193.438004,455.140991 L185.119003,456.799011 L183.770004,455.140991 L188.029999,453.904999 L197.354004,452.141998 L206.686005,451.320007 L216.854004,450.640991 L224.526993,450.605988 L232.270996,452.141998 L228.188004,498.225006 L224.147995,495.298004 Z M224.147995,495.298004" id="Shape" fill="rgb(213,213,213)"></path>
                <path d="M196.104004,396.445007 L193.270996,428.412994 L219.104004,429.30899 L220.604004,398.204987 L196.104004,396.445007 Z M196.104004,396.445007" id="Shape" fill="rgb(183,152,151)"></path>
            </g>
            <path d="M487.360992,587.534973 L482.053986,589.400024 L424.277008,408.121002 L487.360992,587.534973 Z M487.360992,587.534973" id="Shape" stroke="rgb(0,0,0)" stroke-width="1" fill="rgb(254,255,255)"></path>
            <g id="Cow">
                <path d="M310.428009,560.797974 C310.316009,564.624974 310.093009,568.463974 310.093009,572.291974 L310.093009,575.602974 C310.093009,576.110974 309.776009,578.021974 310.093009,578.428974 C310.446009,578.880974 312.151009,578.842974 312.717009,579.068974 C313.727009,579.468974 314.737009,579.872974 315.744009,580.271974 C315.913009,573.782974 316.080009,567.291975 316.248009,560.797973 L310.428009,560.797974 L310.428009,560.797974 L310.428009,560.797974 L310.428009,560.797974" id="Back_leg_1_" fill="rgb(254,255,255)"></path>
                <g id="Udder">
                    <path d="M335.243988,562.534973 C335.243988,562.534973 333.721988,565.111973 332.014988,566.326973 C330.067988,567.714973 329.364988,567.377973 329.243988,567.784973 C329.181988,567.994973 329.243988,569.659973 329.243988,569.659973 L329.243988,570.909973 C329.243988,570.909973 328.718988,571.880973 327.821988,571.880973 C326.710988,571.880973 326.368988,570.743973 326.368988,570.743973 C326.368988,570.743973 326.470988,568.382973 326.368988,568.159973 C326.222988,567.826973 323.527988,567.861973 323.347988,568.038973 C323.154988,568.226973 323.299988,570.743973 323.299988,570.743973 C323.299988,570.743973 322.985988,571.880973 321.799988,571.880973 C320.541988,571.880973 320.251988,570.649973 320.251988,570.649973 C320.251988,570.649973 320.377988,567.945973 320.242988,567.787973 C320.040988,567.550973 318.220988,566.804973 317.992988,567.037973 C317.771988,567.264973 317.992988,570.537973 317.992988,570.537973 C317.992988,570.537973 317.613988,571.883973 316.502988,571.883973 C315.244988,571.883973 314.992988,570.662973 314.992988,570.662973 L314.992988,566.162973 C314.992988,566.162973 312.458988,565.214973 311.681988,563.142973 C310.869988,560.981973 311.094988,558.871973 311.094988,558.871973 L335.243988,562.534973 L335.243988,562.534973 L335.243988,562.534973" id="Shape" stroke="rgb(0,0,0)" stroke-width="0.3" fill="rgb(255,202,223)"></path>
                </g>
                <g id="Tail">
                    <g id="Group">
                        <path d="M302.618988,541.437988 C298.338988,542.325988 294.056988,542.618988 291.243988,538.437988 C289.093988,535.243988 289.492988,530.333988 291.192988,527.080988 C293.252988,523.142988 295.562988,520.559988 299.814988,518.547988 C302.051988,517.487988 303.967988,516.843988 306.118988,516.252988 C309.063988,515.441988 309.145988,516.023988 311.493988,518.064988 C308.390988,519.543988 304.995988,520.025988 301.913988,521.471988 C297.495988,523.546988 295.275988,525.014988 293.027988,529.386988 C291.515988,532.324988 292.038988,536.094988 294.868988,538.064988 C298.221988,540.394988 302.204988,537.756988 305.368988,536.314988 C304.451996,538.020996 303.536987,539.729004 302.618988,541.437988 L302.618988,541.437988 L302.618988,541.437988 L302.618988,541.437988" id="Shape" stroke="rgb(0,0,0)" stroke-width="0.1" fill="rgb(254,255,255)"></path>
                        <path d="M313.868988,507.437988 C314.604988,506.299988 315.383988,505.211988 315.868988,503.937988 C316.359988,506.686988 317.118988,509.666988 317.118988,512.460988 C317.118988,516.388988 315.282988,517.666988 311.740988,518.971988 C308.594988,520.130988 306.209988,516.833988 307.391988,514.024988 C308.55899,511.253998 311.959015,509.694 313.868988,507.437988 L313.868988,507.437988 L313.868988,507.437988 L313.868988,507.437988" id="Shape"></path>
                    </g>
                </g>
                <path d="M330.118988,524.034973 C322.401988,524.034973 315.209988,524.497973 308.139988,527.786973 C302.546988,530.389973 300.118988,540.178973 300.118988,545.936973 C300.118988,553.569973 301.454988,560.858973 302.143988,568.442973 C302.488988,572.225973 302.777988,575.959974 302.914988,579.754974 C302.944988,580.613974 302.499988,584.679974 303.115988,585.283973 C303.760988,585.913973 307.863988,585.283973 308.865988,585.283973 C308.428988,577.216973 309.198988,567.007974 310.365988,562.158973 C314.402988,564.647974 336.594988,564.955973 346.740988,564.033973 L346.740988,573.865973 C346.740988,574.469973 346.463988,578.895973 346.965988,578.917973 C349.029988,579.004973 350.213988,579.229973 352.115988,580.033973 C352.115988,574.493973 352.580988,569.290973 353.240988,563.783973 C355.609988,565.898973 354.240988,573.121974 354.240988,576.232974 C354.240988,578.566974 354.093988,580.954974 354.240988,583.283974 C354.334988,584.721974 353.905988,585.082974 355.178988,585.845974 C356.030988,586.357974 357.768988,586.913974 358.740988,586.407974 C360.617988,585.428974 359.838988,582.844974 360.048988,581.225974 C360.364988,578.755974 360.666988,576.284974 361.004988,573.816974 C361.623988,569.295974 362.240988,564.779974 362.879988,560.261973 C363.606988,555.126973 363.353988,552.239973 362.317988,547.138973 C361.483988,543.030973 361.358988,538.460973 358.884988,535.016974 C357.100988,532.536974 355.316988,530.050973 353.530988,527.569974 C352.972988,526.793974 351.680988,524.032974 350.620988,524.032974 L333.690988,524.032974 C332.502991,524.034973 331.312012,524.034973 330.118988,524.034973 L330.118988,524.034973 L330.118988,524.034973 L330.118988,524.034973" id="Body_1_" stroke="rgb(0,0,0)" stroke-width="0.1" fill="rgb(254,255,255)"></path>
                <path d="M353.376007,548.263 C347.836007,547.451001 344.518007,546.161 345.439007,540.015 C346.119007,535.495 340.326007,532.678 342.549007,528.298 C345.565007,522.36 351.304007,530.054 352.527007,533.399 C354.640015,539.174011 354.214996,542.116028 353.376007,548.263 L353.376007,548.263 L353.376007,548.263 L353.376007,548.263" id="Shape"></path>
                <g id="Head">
                    <path d="M356.070007,550.916016 C365.796007,557.520016 386.491007,551.645016 380.178007,537.072016 C379.548007,535.621016 379.226007,535.682016 377.734007,535.544016 C375.549007,535.338016 373.366007,535.132016 371.181007,534.926016 C367.843007,534.614016 365.475007,536.060016 362.347008,537.338016 C358.375008,538.961016 357.574008,539.089016 355.604007,542.832016 C353.964996,545.947021 353.061005,548.517029 356.070007,550.916016 L356.070007,550.916016 L356.070007,550.916016 L356.070007,550.916016" id="Shape" stroke="rgb(0,0,0)" stroke-width="0.3" fill="rgb(255,202,223)"></path>
                    <path d="M350.660004,517.951996 C352.650004,515.628996 350.971004,514.655996 349.149004,512.781996 C347.979004,511.575996 345.933004,510.165996 344.202004,510.743996 C342.330004,511.367996 344.611004,514.768996 345.419004,515.756996 C346.951996,517.631989 348.233002,518.760986 350.660004,517.951996 L350.660004,517.951996 L350.660004,517.951996 L350.660004,517.951996" id="Shape" stroke="rgb(0,0,0)" stroke-width="0.3" fill="rgb(250,248,181)"></path>
                    <path d="M366.493988,512.618011 C364.460988,511.827011 363.764988,510.230011 364.274988,507.981011 C364.585988,506.616011 365.422988,503.046011 367.076988,502.618011 C369.251988,502.053011 369.271988,506.549011 369.271988,507.876011 C369.272003,510.226013 369.095001,511.994995 366.493988,512.618011 L366.493988,512.618011 L366.493988,512.618011 L366.493988,512.618011" id="Shape" stroke="rgb(0,0,0)" stroke-width="0.3" fill="rgb(250,248,181)"></path>
                    <path d="M364.160004,508.950989 C358.109004,508.932989 353.075004,513.003989 348.572003,516.557989 C348.170003,516.875989 345.694003,515.989989 344.672003,515.745989 C342.634003,515.263989 340.460003,515.130989 338.394003,515.498989 C335.600003,515.995989 333.177003,517.549989 331.745003,520.027988 C330.834003,521.602989 329.766003,523.378989 331.257003,524.668988 C331.973003,525.287988 333.103003,525.832988 333.996003,526.116988 C337.993003,527.383988 342.096004,526.419988 345.746003,524.699988 C346.363003,528.347988 347.184003,531.972988 348.179003,535.540988 C349.501003,540.280988 351.223003,547.480987 355.663004,550.366988 C360.686003,541.089988 371.064004,535.887988 381.330003,539.699988 C381.403003,532.904988 380.368003,525.867988 378.075003,519.469989 C377.455003,517.740989 375.859003,515.655989 376.120003,513.836989 C376.229003,513.071989 377.852003,512.463989 378.478003,512.066989 C380.237003,510.953989 381.372003,509.714989 382.392003,507.962989 C383.461003,506.124989 383.913003,503.923989 383.913003,501.798989 C383.913003,500.800989 381.558003,500.568989 380.759003,500.410989 C373.926003,499.080989 369.243004,503.253989 367.913004,509.865989 C366.669006,509.424988 365.507996,508.875 364.160004,508.950989 L364.160004,508.950989 L364.160004,508.950989 L364.160004,508.950989" id="Shape" stroke="rgb(0,0,0)" stroke-width="0.3" fill="rgb(254,255,255)"></path>
                    <path d="M345.493011,517.618988 C345.668011,519.261988 345.844011,520.903988 346.015011,522.546988 C346.140011,523.732988 343.262011,523.755988 342.255011,523.984988 C339.551012,524.595988 336.439012,524.878988 333.792011,523.986988 C332.516011,523.553988 332.551011,521.551988 333.147011,520.630988 C333.929011,519.422988 335.672011,518.736988 336.938011,518.236988 C339.790985,517.110992 342.515991,517.162994 345.493011,517.618988 L345.493011,517.618988 L345.493011,517.618988 L345.493011,517.618988" id="Shape" stroke="rgb(0,0,0)" stroke-width="0.3" fill="rgb(255,202,223)"></path>
                    <path d="M370.419006,509.089996 C372.354006,511.463996 373.841006,513.829996 376.857007,511.522996 C378.761007,510.066996 381.409007,506.950996 381.257007,504.372996 C381.069007,501.194996 377.361007,501.364996 375.212007,502.429996 C372.725006,503.657013 370.492004,506.19101 370.419006,509.089996 L370.419006,509.089996 L370.419006,509.089996 L370.419006,509.089996" id="Shape" stroke="rgb(0,0,0)" stroke-width="0.3" fill="rgb(255,202,223)"></path>
                    <path d="M364.039001,528.013977 C364.039001,529.120977 364.039001,530.208977 363.949001,531.312977 C363.850001,532.518977 363.319001,533.227977 362.549001,534.124977 C361.743001,535.058977 360.511001,534.864977 359.433002,534.864977 C358.394002,534.864977 357.376002,533.933977 356.617002,533.336977 C355.850002,532.732977 355.230002,531.836977 354.751002,530.989977 C354.503002,530.551977 354.054001,530.014977 353.927002,529.520977 C353.869002,529.300977 353.744002,529.331977 353.875002,529.134977 C354.086002,528.819977 354.297001,528.499977 354.508002,528.183977 C355.764002,526.294977 357.204002,524.682977 358.858001,523.134977 C359.008001,522.993977 360.396001,521.707977 360.551001,521.890978 C361.178001,522.622978 361.805001,523.357978 362.431001,524.088977 C362.452001,523.586978 362.393001,521.040977 362.576001,520.882977 C362.748001,520.736977 363.751001,520.912977 363.972001,520.918977 C364.691001,520.938977 365.410001,520.956977 366.128001,520.975977 C368.116001,521.029977 370.400001,521.425977 372.149001,522.428977 C372.934001,522.879977 372.992001,524.186977 373.038001,525.056977 C373.103001,526.312977 373.153001,527.388977 372.950001,528.621977 C372.803001,529.526977 371.852001,530.498977 371.123001,530.978978 C370.310001,531.515978 369.095001,531.651978 368.146001,531.438978 C366.406006,531.05603 365.085999,529.348999 364.039001,528.013977 L364.039001,528.013977 L364.039001,528.013977 L364.039001,528.013977" id="Shape" stroke="rgb(0,0,0)" stroke-width="0.3"></path>
                    <path d="M354.190002,528.65802 C354.055002,528.86102 353.919002,529.06202 353.787002,529.26402 C352.319002,526.75002 352.154002,523.04902 353.494002,520.47502 C355.065002,517.457021 359.148002,519.89202 360.509002,521.84302 C357.881012,523.627991 356.015991,526.109009 354.190002,528.65802 L354.190002,528.65802 L354.190002,528.65802 L354.190002,528.65802" id="Shape"></path>
                    <path d="M364.265015,520.885986 C363.707015,520.964986 363.036015,520.807986 362.474015,520.771986 C362.690015,511.809986 371.912014,516.571987 372.694015,522.837986 C370.151001,521.173004 367.214996,521.041992 364.265015,520.885986 L364.265015,520.885986 L364.265015,520.885986 L364.265015,520.885986" id="Shape"></path>
                    <path d="M360.691524,528.761812 C361.656917,528.761812 362.439523,527.841461 362.439523,526.706152 C362.439523,525.570842 361.656917,524.650492 360.691524,524.650492 C359.72613,524.650492 358.943524,525.570842 358.943524,526.706152 C358.943524,527.841461 359.72613,528.761812 360.691524,528.761812 Z M360.691524,528.761812" id="Oval" transform="translate(41.6915236, 37.706152) rotate(-207) translate(-41.6915236, -37.706152)"></path>
                    <path d="M365.240421,526.810536 C366.149904,526.810536 366.887186,525.899582 366.887186,524.775864 C366.887186,523.652146 366.149904,522.741192 365.240421,522.741192 C364.330937,522.741192 363.593656,523.652146 363.593656,524.775864 C363.593656,525.899582 364.330937,526.810536 365.240421,526.810536 Z M365.240421,526.810536" id="Oval" transform="translate(46.2404209, 35.7758642) rotate(-202) translate(-46.2404209, -35.7758642)"></path>
                    <path d="M359.481995,550.367981 C359.490995,549.839981 359.776995,549.216981 359.908995,548.701981 C365.098995,552.952981 377.365995,552.254981 377.365995,543.713981 C378.086995,544.290981 378.786995,544.312981 379.462995,543.713981" id="Shape" stroke="rgb(0,0,0)" stroke-width="0.3"></path>
                    <path d="M366.394989,546.606995 C365.350989,545.080995 363.445989,544.327995 361.943989,545.757995 C362.266989,546.669995 363.106989,546.860995 364.020989,546.606995" id="Shape" stroke="rgb(0,0,0)" stroke-width="0.3"></path>
                    <path d="M373.088013,544.994995 C372.607013,543.963995 372.462013,542.172995 373.095013,541.208995 C374.031013,539.782995 375.351013,540.647995 374.475013,541.981995" id="Shape" stroke="rgb(0,0,0)" stroke-width="0.3"></path>
                </g>
                <path d="M302.348999,559.77301 C308.009999,562.09901 307.110999,571.387011 302.652999,574.54401 C302.381012,570.655029 300.355011,560.460999 302.348999,559.77301 L302.348999,559.77301 L302.348999,559.77301 L302.348999,559.77301" id="Shape"></path>
                <path d="M316.248993,555.025024 C317.117993,559.968024 331.025993,547.730024 323.488993,541.624024 C318.835993,537.853024 316.248993,532.471025 310.392993,534.123024 C306.290993,536.671025 299.353993,541.251024 303.245993,546.095025 C306.528015,550.179993 318.541992,543.013 316.248993,555.025024 L316.248993,555.025024 L316.248993,555.025024 L316.248993,555.025024" id="Shape"></path>
                <path d="M322.398987,564.203979 C321.544987,559.987979 315.834987,558.97098 314.775987,563.39198 C317.321014,563.627014 319.862,563.895996 322.398987,564.203979 L322.398987,564.203979 L322.398987,564.203979 L322.398987,564.203979" id="Shape"></path>
                <path d="M329.902008,535.979004 C340.536008,537.469004 339.588008,535.261004 337.175008,529.487004 C335.885008,526.395004 324.209008,524.511004 321.321008,525.098004 C322.349008,529.198004 323.133008,535.317004 327.226008,536.377004 C327.229004,536.377991 329.233002,535.885986 329.902008,535.979004 C329.902008,535.979004 329.233002,535.885986 329.902008,535.979004 L329.902008,535.979004" id="Shape"></path>
                <path d="M308.868988,585.284973 C307.517988,585.365973 306.167988,585.447973 304.815988,585.528973 C304.294988,585.557973 303.877988,585.453973 303.361988,585.338973 C302.858988,585.227973 302.927988,584.137973 302.850988,583.677973 C302.717988,582.879973 304.788988,582.149973 305.407988,581.784973 C306.520988,581.132973 307.636988,580.477973 308.748988,579.827973 C308.786987,581.645996 308.829987,583.466003 308.868988,585.284973 L308.868988,585.284973 L308.868988,585.284973 L308.868988,585.284973" id="Shape"></path>
                <path d="M315.889008,574.745972 C314.303008,575.462972 312.718008,576.179972 311.131008,576.893972 C310.449008,577.204972 309.919008,577.162972 310.025008,577.925972 C310.142008,578.782972 311.171008,578.696972 311.954008,578.894972 C312.207008,578.957972 315.747008,580.307972 315.763008,579.750972 C315.803009,578.085022 315.846008,576.414978 315.889008,574.745972 L315.889008,574.745972 L315.889008,574.745972 L315.889008,574.745972" id="Shape"></path>
                <path d="M346.667999,576.538025 L352.359985,572.952026 L352.157013,577.286987 L352.118988,580.034973 L349.514008,579.190002 L347.520996,578.948975 L346.667999,578.330017 L346.667999,576.538025 Z M346.667999,576.538025" id="Shape"></path>
                <path d="M360.203003,580.437988 C359.850003,583.618988 360.931003,587.301988 356.510003,586.669988 C350.131012,585.758972 358.614014,581.304993 360.203003,580.437988 L360.203003,580.437988 L360.203003,580.437988 L360.203003,580.437988" id="Shape"></path>
                <path d="M362.807007,560.797974 C358.236007,562.476974 357.783007,568.619974 361.345007,571.353973 C361.829987,567.835022 362.315002,564.315979 362.807007,560.797974 L362.807007,560.797974 L362.807007,560.797974 L362.807007,560.797974" id="Shape"></path>
                <path d="M380.988007,532.507019 C376.964006,530.709019 376.757007,528.561019 375.842007,524.992019 C375.148007,522.281019 374.407007,518.380019 376.437007,515.897019 C378.792999,518.071991 381.214996,534.125 380.988007,532.507019 L380.988007,532.507019 L380.988007,532.507019 L380.988007,532.507019" id="Shape"></path>
                <path d="M346.667999,552.492981 C343.228999,544.773981 324.66,549.552981 327.976999,555.545981 C332.480988,563.690979 352.134003,558.729004 346.667999,552.492981 L346.667999,552.492981 L346.667999,552.492981 L346.667999,552.492981" id="Shape"></path>
            </g>
            <path d="M480.804993,609.028992 L480.804993,565.028992 C480.804993,565.028992 480.804993,565.028992 484.870993,570.073992 L488.485993,598.558992 L488.485993,644.058992 L480.804993,609.028992 L480.804993,609.028992 L480.804993,609.028992" id="Shape" stroke="rgb(0,0,0)" stroke-width="1" fill="rgb(254,255,255)"></path>
            <path d="M450.575989,648.015991 L450.575989,604.015991 C450.575989,604.015991 450.575989,604.015991 457.325989,590.515991 L463.325989,602.515991 L463.325989,648.015991 L450.575989,648.015991 L450.575989,648.015991 L450.575989,648.015991" id="Shape" stroke="rgb(0,0,0)" stroke-width="1" fill="rgb(254,255,255)"></path>
            <path d="M431.875,648.015991 L431.875,604.015991 C431.875,604.015991 431.875,604.015991 438.625,590.515991 L444.625,602.515991 L444.625,648.015991 L431.875,648.015991 L431.875,648.015991 L431.875,648.015991" id="Shape" stroke="rgb(0,0,0)" stroke-width="1" fill="rgb(254,255,255)"></path>
            <path d="M479.182007,616.580994 L488.485992,606.638977 L488.485992,614.544983 L483.274994,619.265991 L479.182007,616.580994 Z M479.182007,616.580994" id="Shape" stroke="rgb(0,0,0)" stroke-width="1" fill="rgb(254,255,255)"></path>
            <path d="M413.165985,648.015991 L413.165985,604.015991 C413.165985,604.015991 413.165985,604.015991 419.915985,590.515991 L425.915985,602.515991 L425.915985,648.015991 L413.165985,648.015991 L413.165985,648.015991 L413.165985,648.015991" id="Shape" stroke="rgb(0,0,0)" stroke-width="1" fill="rgb(254,255,255)"></path>
            <path d="M393.230988,648.015991 L393.230988,604.015991 C393.230988,604.015991 393.230988,604.015991 399.980988,590.515991 L405.980988,602.515991 L405.980988,648.015991 L393.230988,648.015991 L393.230988,648.015991 L393.230988,648.015991" id="Shape" stroke="rgb(0,0,0)" stroke-width="1" fill="rgb(254,255,255)"></path>
            <path d="M372.531006,648.015991 L372.531006,604.015991 C372.531006,604.015991 372.531006,604.015991 379.281006,590.515991 L385.281006,602.515991 L385.281006,648.015991 L372.531006,648.015991 L372.531006,648.015991 L372.531006,648.015991" id="Shape" stroke="rgb(0,0,0)" stroke-width="1" fill="rgb(254,255,255)"></path>
            <path d="M353.821991,648.015991 L353.821991,604.015991 C353.821991,604.015991 353.821991,604.015991 360.571991,590.515991 L366.571991,602.515991 L366.571991,648.015991 L353.821991,648.015991 L353.821991,648.015991 L353.821991,648.015991" id="Shape" stroke="rgb(0,0,0)" stroke-width="1" fill="rgb(254,255,255)"></path>
            <path d="M333.888,648.015991 L333.888,604.015991 C333.888,604.015991 333.888,604.015991 340.638,590.515991 L346.638,602.515991 L346.638,648.015991 L333.888,648.015991 L333.888,648.015991 L333.888,648.015991" id="Shape" stroke="rgb(0,0,0)" stroke-width="1" fill="rgb(254,255,255)"></path>
            <path d="M315.187988,648.015991 L315.187988,604.015991 C315.187988,604.015991 315.187988,604.015991 321.937988,590.515991 L327.937988,602.515991 L327.937988,648.015991 L315.187988,648.015991 L315.187988,648.015991 L315.187988,648.015991" id="Shape" stroke="rgb(0,0,0)" stroke-width="1" fill="rgb(254,255,255)"></path>
            <path d="M296.479004,648.015991 L296.479004,604.015991 C296.479004,604.015991 296.479004,604.015991 303.229004,590.515991 L309.229004,602.515991 L309.229004,648.015991 L296.479004,648.015991 L296.479004,648.015991 L296.479004,648.015991" id="Shape" stroke="rgb(0,0,0)" stroke-width="1" fill="rgb(254,255,255)"></path>
            <path d="M276.542999,648.015991 L276.542999,604.015991 C276.542999,604.015991 276.542999,604.015991 283.292999,590.515991 L289.292999,602.515991 L289.292999,648.015991 L276.542999,648.015991 L276.542999,648.015991 L276.542999,648.015991" id="Shape" stroke="rgb(0,0,0)" stroke-width="1" fill="rgb(254,255,255)"></path>
            <path d="M256.867996,648.015991 L256.867996,604.015991 C256.867996,604.015991 256.867996,604.015991 263.617996,590.515991 L269.617996,602.515991 L269.617996,648.015991 L256.867996,648.015991 L256.867996,648.015991 L256.867996,648.015991" id="Shape" stroke="rgb(0,0,0)" stroke-width="1" fill="rgb(254,255,255)"></path>
            <path d="M238.158997,648.015991 L238.158997,604.015991 C238.158997,604.015991 238.158997,604.015991 244.908997,590.515991 L250.908997,602.515991 L250.908997,648.015991 L238.158997,648.015991 L238.158997,648.015991 L238.158997,648.015991" id="Shape" stroke="rgb(0,0,0)" stroke-width="1" fill="rgb(254,255,255)"></path>
            <path d="M218.225006,648.015991 L218.225006,604.015991 C218.225006,604.015991 218.225006,604.015991 224.975006,590.515991 L230.975006,602.515991 L230.975006,648.015991 L218.225006,648.015991 L218.225006,648.015991 L218.225006,648.015991" id="Shape" stroke="rgb(0,0,0)" stroke-width="1" fill="rgb(254,255,255)"></path>
            <path d="M199.522995,648.015991 L199.522995,604.015991 C199.522995,604.015991 199.522995,604.015991 206.272995,590.515991 L212.272995,602.515991 L212.272995,648.015991 L199.522995,648.015991 L199.522995,648.015991 L199.522995,648.015991" id="Shape" stroke="rgb(0,0,0)" stroke-width="1" fill="rgb(254,255,255)"></path>
            <path d="M180.813995,648.015991 L180.813995,604.015991 C180.813995,604.015991 180.813995,604.015991 187.563995,590.515991 L193.563995,602.515991 L193.563995,648.015991 L180.813995,648.015991 L180.813995,648.015991 L180.813995,648.015991" id="Shape" stroke="rgb(0,0,0)" stroke-width="1" fill="rgb(254,255,255)"></path>
            <path d="M160.880005,648.015991 L160.880005,604.015991 C160.880005,604.015991 160.880005,604.015991 167.630005,590.515991 L173.630005,602.515991 L173.630005,648.015991 L160.880005,648.015991 L160.880005,648.015991 L160.880005,648.015991" id="Shape" stroke="rgb(0,0,0)" stroke-width="1" fill="rgb(254,255,255)"></path>
            <path d="M140.179993,648.015991 L140.179993,604.015991 C140.179993,604.015991 140.179993,604.015991 146.929993,590.515991 L152.929993,602.515991 L152.929993,648.015991 L140.179993,648.015991 L140.179993,648.015991 L140.179993,648.015991" id="Shape" stroke="rgb(0,0,0)" stroke-width="1" fill="rgb(254,255,255)"></path>
            <path d="M121.471001,648.015991 L121.471001,604.015991 C121.471001,604.015991 121.471001,604.015991 128.221001,590.515991 L134.221001,602.515991 L134.221001,648.015991 L121.471001,648.015991 L121.471001,648.015991 L121.471001,648.015991" id="Shape" stroke="rgb(0,0,0)" stroke-width="1" fill="rgb(254,255,255)"></path>
            <path d="M101.536003,648.015991 L101.536003,604.015991 C101.536003,604.015991 101.536003,604.015991 108.286003,590.515991 L114.286003,602.515991 L114.286003,648.015991 L101.536003,648.015991 L101.536003,648.015991 L101.536003,648.015991" id="Shape" stroke="rgb(0,0,0)" stroke-width="1" fill="rgb(254,255,255)"></path>
            <path d="M82.8349991,648.015991 L82.8349991,604.015991 C82.8349991,604.015991 82.8349991,604.015991 89.5849991,590.515991 L95.5849991,602.515991 L95.5849991,648.015991 L82.8349991,648.015991 L82.8349991,648.015991 L82.8349991,648.015991" id="Shape" stroke="rgb(0,0,0)" stroke-width="1" fill="rgb(254,255,255)"></path>
            <path d="M64.1259995,648.015991 L64.1259995,604.015991 C64.1259995,604.015991 64.1259995,604.015991 70.8759995,590.515991 L76.8759995,602.515991 L76.8759995,648.015991 L64.1259995,648.015991 L64.1259995,648.015991 L64.1259995,648.015991" id="Shape" stroke="rgb(0,0,0)" stroke-width="1" fill="rgb(254,255,255)"></path>
            <path d="M44.1910019,648.015991 L44.1910019,604.015991 C44.1910019,604.015991 44.1910019,604.015991 50.9410019,590.515991 L56.9410019,602.515991 L56.9410019,648.015991 L44.1910019,648.015991 L44.1910019,648.015991 L44.1910019,648.015991" id="Shape" stroke="rgb(0,0,0)" stroke-width="1" fill="rgb(254,255,255)"></path>
            <path d="M23.7010002,648.015991 L23.7010002,604.015991 C23.7010002,604.015991 23.7010002,604.015991 30.4510002,590.515991 L36.4510002,602.515991 L36.4510002,648.015991 L23.7010002,648.015991 L23.7010002,648.015991 L23.7010002,648.015991" id="Shape" stroke="rgb(0,0,0)" stroke-width="1" fill="rgb(254,255,255)"></path>
            <path d="M471.316986,578.934021 L471.316986,534.934021 C471.316986,534.934021 471.316986,534.934021 474.851986,539.979021 L477.997986,568.465021 L477.997986,613.965021 L471.316986,578.934021 L471.316986,578.934021 L471.316986,578.934021" id="Shape" stroke="rgb(0,0,0)" stroke-width="1" fill="rgb(254,255,255)"></path>
            <path d="M462.584015,550.807007 L462.584015,506.807007 C462.584015,506.807007 462.383015,506.807007 465.919015,511.852007 L469.065015,540.338007 L469.065015,585.838007 L462.584015,550.807007 L462.584015,550.807007 L462.584015,550.807007" id="Shape" stroke="rgb(0,0,0)" stroke-width="1" fill="rgb(254,255,255)"></path>
            <path d="M396.005005,391.192993 L396.005005,386.374993 C396.005005,386.374993 396.005005,386.374993 397.204005,387.069993 L398.271005,390.996993 L396.005005,391.192993 L396.005005,391.192993 L396.005005,391.192993" id="Shape" stroke="rgb(0,0,0)" stroke-width="1" fill="rgb(254,255,255)"></path>
            <path d="M397.545013,391.083008 L397.545013,384.754008 C397.545013,384.754008 397.545013,384.754008 398.744013,385.667008 L399.812013,390.826008 L397.545013,391.083008 L397.545013,391.083008 L397.545013,391.083008" id="Shape" stroke="rgb(0,0,0)" stroke-width="1" fill="rgb(254,255,255)"></path>
            <path d="M453.975006,518.860992 L453.170006,478.700993 C453.170006,478.700993 453.170006,478.700993 456.706006,483.304993 L459.851006,509.304993 L460.657006,550.832993 L453.975006,518.860992 L453.975006,518.860992 L453.975006,518.860992" id="Shape" stroke="rgb(0,0,0)" stroke-width="1" fill="rgb(254,255,255)"></path>
            <path d="M444.653992,489.954987 L444.049992,456.174988 C444.049992,456.174988 444.049992,456.174988 447.585992,460.048988 L450.731992,481.917987 L451.335992,516.849987 L444.653992,489.954987 L444.653992,489.954987 L444.653992,489.954987" id="Shape" stroke="rgb(0,0,0)" stroke-width="1" fill="rgb(254,255,255)"></path>
            <path d="M436.316986,465.472992 L435.712986,435.949991 C435.712986,435.949991 435.712986,435.949991 439.248986,439.335991 L442.393986,458.449991 L442.997986,488.978991 L436.316986,465.472992 L436.316986,465.472992 L436.316986,465.472992" id="Shape" stroke="rgb(0,0,0)" stroke-width="1" fill="rgb(254,255,255)"></path>
            <path d="M429.459015,443.011993 L428.654015,418.396994 C428.654015,418.396994 428.654015,418.396994 431.601015,421.218994 L434.222015,437.156993 L434.222015,462.610994 L429.459015,443.011993 L429.459015,443.011993 L429.459015,443.011993" id="Shape" stroke="rgb(0,0,0)" stroke-width="1" fill="rgb(254,255,255)"></path>
            <path d="M422.134003,422.561005 L422.134003,401.842005 C422.134003,401.842005 422.134003,401.842005 424.154003,404.217005 L427.257003,417.632005 L427.257003,439.057004 L422.134003,422.561005 L422.134003,422.561005 L422.134003,422.561005" id="Shape" stroke="rgb(0,0,0)" stroke-width="1" fill="rgb(254,255,255)"></path>
            <path d="M416.641998,407.130005 L416.641998,388.880005 C416.641998,388.880005 416.641998,388.880005 418.828998,390.972005 L420.771998,402.788005 L420.771998,421.660005 L416.641998,407.130005 L416.641998,407.130005 L416.641998,407.130005" id="Shape" stroke="rgb(0,0,0)" stroke-width="1" fill="rgb(254,255,255)"></path>
            <path d="M394.52301,391.325012 L394.52301,388.221012 C394.52301,388.221012 394.52301,388.221012 395.30501,388.669012 L396.00201,391.199012 L394.52301,391.325012 L394.52301,391.325012 L394.52301,391.325012" id="Shape" stroke="rgb(0,0,0)" stroke-width="1" fill="rgb(254,255,255)"></path>
            <path d="M408.656006,390.497009 L408.656006,380.006009 C408.656006,380.006009 408.656006,380.006009 409.923006,381.208009 L411.051006,388.001009 L411.051006,398.849009 L408.656006,390.497009 L408.656006,390.497009 L408.656006,390.497009" id="Shape" stroke="rgb(0,0,0)" stroke-width="1" fill="rgb(254,255,255)"></path>
            <path d="M405.234985,387.273987 L405.234985,378.734987 C405.234985,378.734987 405.234985,378.734987 406.450985,379.713987 L407.532985,385.242987 L407.532985,394.071988 L405.234985,387.273987 L405.234985,387.273987 L405.234985,387.273987" id="Shape" stroke="rgb(0,0,0)" stroke-width="1" fill="rgb(254,255,255)"></path>
            <path d="M399.763,390.90799 L399.763,383.048989 C399.763,383.048989 399.763,383.048989 400.962,384.182989 L402.03,390.587989 L399.763,390.90799 L399.763,390.90799 L399.763,390.90799" id="Shape" stroke="rgb(0,0,0)" stroke-width="1" fill="rgb(254,255,255)"></path>
            <path d="M402.503998,390.707001 L402.503998,380.487 C402.503998,380.487 402.503998,380.487 403.702998,381.962 L404.770998,390.290001 L402.503998,390.707001 L402.503998,390.707001 L402.503998,390.707001" id="Shape" stroke="rgb(0,0,0)" stroke-width="1" fill="rgb(254,255,255)"></path>
            <path d="M412.149994,396.867004 L412.149994,383.733005 C412.149994,383.733005 412.149994,383.733005 413.864994,385.238005 L415.388994,393.742004 L415.388994,407.324004 L412.149994,396.867004 L412.149994,396.867004 L412.149994,396.867004" id="Shape" stroke="rgb(0,0,0)" stroke-width="1" fill="rgb(254,255,255)"></path>
            <path d="M393.041992,391.475006 L393.041992,389.536006 C393.041992,389.536006 393.041992,389.536006 393.824992,389.816006 L394.520992,391.398006 L393.041992,391.475006 L393.041992,391.475006 L393.041992,391.475006" id="Shape" stroke="rgb(0,0,0)" stroke-width="1" fill="rgb(254,255,255)"></path>
            <path d="M478.622986,632.572021 L487.928009,622.630005 L487.928009,630.536011 L482.71701,635.257019 L478.622986,632.572021 Z M478.622986,632.572021" id="Shape" stroke="rgb(0,0,0)" stroke-width="1" fill="rgb(254,255,255)"></path>
            <path d="M470.510986,648.015991 L470.510986,604.015991 C470.510986,604.015991 470.510986,604.015991 477.260986,590.515991 L483.260986,602.515991 L483.260986,648.015991 L470.510986,648.015991 L470.510986,648.015991 L470.510986,648.015991" id="Shape" stroke="rgb(0,0,0)" stroke-width="1" fill="rgb(254,255,255)"></path>
            <path d="M11.604,648.015991 L11.604,591.333008 L17.7709999,604.166992 L17.7709999,648.015991 L11.604,648.015991 Z M11.604,648.015991" id="Shape" stroke="rgb(0,0,0)" stroke-width="1" fill="rgb(254,255,255)"></path>
        </g>
    </g>
</svg>